M48
INCH,TZ
T1C0.0157
T2C0.0300
T3C0.0315
T4C0.0394
%
G90
G05
T1
X63000Y-33600
X63000Y-35000
X69350Y-26250
X70000Y-35250
X70750Y-30250
X74800Y-35200
X79700Y-29700
X80000Y-27500
X80250Y-33500
X81000Y-29750
X81200Y-29000
X83000Y-29400
X74355Y-29771
X74355Y-30493
X74716Y-29409
X74716Y-30132
X74716Y-30854
X75078Y-29771
X75078Y-30493
X75439Y-29409
X75439Y-30132
X75439Y-30854
X75800Y-29771
X75800Y-30493
T2
X64000Y-25000
X64000Y-26000
X64000Y-27000
X64000Y-28000
T3
X73750Y-36250
X73750Y-37250
X80500Y-37750
X81500Y-37750
T4
X76231Y-37200
X78200Y-37200
X81500Y-25000
X81500Y-26000
X81500Y-27000
X81500Y-28000
T0
M30
