G04 #@! TF.GenerationSoftware,KiCad,Pcbnew,(5.1.7)-1*
G04 #@! TF.CreationDate,2021-04-12T14:54:16+02:00*
G04 #@! TF.ProjectId,FitnessTracker.kicad_pcb2,4669746e-6573-4735-9472-61636b65722e,rev?*
G04 #@! TF.SameCoordinates,Original*
G04 #@! TF.FileFunction,Legend,Bot*
G04 #@! TF.FilePolarity,Positive*
%FSLAX46Y46*%
G04 Gerber Fmt 4.6, Leading zero omitted, Abs format (unit mm)*
G04 Created by KiCad (PCBNEW (5.1.7)-1) date 2021-04-12 14:54:16*
%MOMM*%
%LPD*%
G01*
G04 APERTURE LIST*
%ADD10C,0.300000*%
G04 APERTURE END LIST*
D10*
X174017857Y-78874285D02*
X174417857Y-78874285D01*
X174417857Y-79502857D02*
X174417857Y-78302857D01*
X173846428Y-78302857D01*
X173389285Y-79502857D02*
X173389285Y-78702857D01*
X173389285Y-78302857D02*
X173446428Y-78360000D01*
X173389285Y-78417142D01*
X173332142Y-78360000D01*
X173389285Y-78302857D01*
X173389285Y-78417142D01*
X172989285Y-78702857D02*
X172532142Y-78702857D01*
X172817857Y-78302857D02*
X172817857Y-79331428D01*
X172760714Y-79445714D01*
X172646428Y-79502857D01*
X172532142Y-79502857D01*
X172132142Y-78702857D02*
X172132142Y-79502857D01*
X172132142Y-78817142D02*
X172075000Y-78760000D01*
X171960714Y-78702857D01*
X171789285Y-78702857D01*
X171675000Y-78760000D01*
X171617857Y-78874285D01*
X171617857Y-79502857D01*
X170589285Y-79445714D02*
X170703571Y-79502857D01*
X170932142Y-79502857D01*
X171046428Y-79445714D01*
X171103571Y-79331428D01*
X171103571Y-78874285D01*
X171046428Y-78760000D01*
X170932142Y-78702857D01*
X170703571Y-78702857D01*
X170589285Y-78760000D01*
X170532142Y-78874285D01*
X170532142Y-78988571D01*
X171103571Y-79102857D01*
X170075000Y-79445714D02*
X169960714Y-79502857D01*
X169732142Y-79502857D01*
X169617857Y-79445714D01*
X169560714Y-79331428D01*
X169560714Y-79274285D01*
X169617857Y-79160000D01*
X169732142Y-79102857D01*
X169903571Y-79102857D01*
X170017857Y-79045714D01*
X170075000Y-78931428D01*
X170075000Y-78874285D01*
X170017857Y-78760000D01*
X169903571Y-78702857D01*
X169732142Y-78702857D01*
X169617857Y-78760000D01*
X169103571Y-79445714D02*
X168989285Y-79502857D01*
X168760714Y-79502857D01*
X168646428Y-79445714D01*
X168589285Y-79331428D01*
X168589285Y-79274285D01*
X168646428Y-79160000D01*
X168760714Y-79102857D01*
X168932142Y-79102857D01*
X169046428Y-79045714D01*
X169103571Y-78931428D01*
X169103571Y-78874285D01*
X169046428Y-78760000D01*
X168932142Y-78702857D01*
X168760714Y-78702857D01*
X168646428Y-78760000D01*
X168246428Y-78302857D02*
X167560714Y-78302857D01*
X167903571Y-79502857D02*
X167903571Y-78302857D01*
X167160714Y-79502857D02*
X167160714Y-78702857D01*
X167160714Y-78931428D02*
X167103571Y-78817142D01*
X167046428Y-78760000D01*
X166932142Y-78702857D01*
X166817857Y-78702857D01*
X165903571Y-79502857D02*
X165903571Y-78874285D01*
X165960714Y-78760000D01*
X166075000Y-78702857D01*
X166303571Y-78702857D01*
X166417857Y-78760000D01*
X165903571Y-79445714D02*
X166017857Y-79502857D01*
X166303571Y-79502857D01*
X166417857Y-79445714D01*
X166475000Y-79331428D01*
X166475000Y-79217142D01*
X166417857Y-79102857D01*
X166303571Y-79045714D01*
X166017857Y-79045714D01*
X165903571Y-78988571D01*
X164817857Y-79445714D02*
X164932142Y-79502857D01*
X165160714Y-79502857D01*
X165275000Y-79445714D01*
X165332142Y-79388571D01*
X165389285Y-79274285D01*
X165389285Y-78931428D01*
X165332142Y-78817142D01*
X165275000Y-78760000D01*
X165160714Y-78702857D01*
X164932142Y-78702857D01*
X164817857Y-78760000D01*
X164303571Y-79502857D02*
X164303571Y-78302857D01*
X164189285Y-79045714D02*
X163846428Y-79502857D01*
X163846428Y-78702857D02*
X164303571Y-79160000D01*
X162875000Y-79445714D02*
X162989285Y-79502857D01*
X163217857Y-79502857D01*
X163332142Y-79445714D01*
X163389285Y-79331428D01*
X163389285Y-78874285D01*
X163332142Y-78760000D01*
X163217857Y-78702857D01*
X162989285Y-78702857D01*
X162875000Y-78760000D01*
X162817857Y-78874285D01*
X162817857Y-78988571D01*
X163389285Y-79102857D01*
X162303571Y-79502857D02*
X162303571Y-78702857D01*
X162303571Y-78931428D02*
X162246428Y-78817142D01*
X162189285Y-78760000D01*
X162075000Y-78702857D01*
X161960714Y-78702857D01*
X170532142Y-80402857D02*
X170532142Y-81260000D01*
X170589285Y-81431428D01*
X170703571Y-81545714D01*
X170875000Y-81602857D01*
X170989285Y-81602857D01*
X169960714Y-81602857D02*
X169960714Y-80402857D01*
X169675000Y-80402857D01*
X169503571Y-80460000D01*
X169389285Y-80574285D01*
X169332142Y-80688571D01*
X169275000Y-80917142D01*
X169275000Y-81088571D01*
X169332142Y-81317142D01*
X169389285Y-81431428D01*
X169503571Y-81545714D01*
X169675000Y-81602857D01*
X169960714Y-81602857D01*
X167846428Y-81602857D02*
X167846428Y-80402857D01*
X167446428Y-81260000D01*
X167046428Y-80402857D01*
X167046428Y-81602857D01*
X166475000Y-81602857D02*
X166475000Y-80402857D01*
X166075000Y-81260000D01*
X165675000Y-80402857D01*
X165675000Y-81602857D01*
M02*
