G04 #@! TF.GenerationSoftware,KiCad,Pcbnew,(5.1.7)-1*
G04 #@! TF.CreationDate,2021-04-12T14:54:16+02:00*
G04 #@! TF.ProjectId,FitnessTracker.kicad_pcb2,4669746e-6573-4735-9472-61636b65722e,rev?*
G04 #@! TF.SameCoordinates,Original*
G04 #@! TF.FileFunction,Paste,Top*
G04 #@! TF.FilePolarity,Positive*
%FSLAX46Y46*%
G04 Gerber Fmt 4.6, Leading zero omitted, Abs format (unit mm)*
G04 Created by KiCad (PCBNEW (5.1.7)-1) date 2021-04-12 14:54:16*
%MOMM*%
%LPD*%
G01*
G04 APERTURE LIST*
%ADD10R,1.310000X3.240000*%
%ADD11R,1.310000X0.930000*%
%ADD12R,1.330000X1.330000*%
%ADD13R,2.000000X0.900000*%
%ADD14R,0.900000X2.000000*%
%ADD15R,1.500000X2.300000*%
G04 APERTURE END LIST*
D10*
X178265000Y-93345000D03*
D11*
X184955000Y-91055000D03*
X184955000Y-93345000D03*
X184955000Y-95635000D03*
D12*
X192532000Y-78370000D03*
X190697000Y-78370000D03*
X188862000Y-78370000D03*
X192532000Y-76535000D03*
X190697000Y-76535000D03*
X188862000Y-76535000D03*
X192532000Y-74700000D03*
X190697000Y-74700000D03*
X188862000Y-74700000D03*
D13*
X200197000Y-69035000D03*
X200197000Y-70305000D03*
X200197000Y-71575000D03*
X200197000Y-72845000D03*
X200197000Y-74115000D03*
X200197000Y-75385000D03*
X200197000Y-76655000D03*
X200197000Y-77925000D03*
X200197000Y-79195000D03*
X200197000Y-80465000D03*
X200197000Y-81735000D03*
X200197000Y-83005000D03*
X200197000Y-84275000D03*
X200197000Y-85545000D03*
D14*
X197412000Y-86545000D03*
X196142000Y-86545000D03*
X194872000Y-86545000D03*
X193602000Y-86545000D03*
X192332000Y-86545000D03*
X191062000Y-86545000D03*
X189792000Y-86545000D03*
X188522000Y-86545000D03*
X187252000Y-86545000D03*
X185982000Y-86545000D03*
D13*
X183197000Y-85545000D03*
X183197000Y-84275000D03*
X183197000Y-83005000D03*
X183197000Y-81735000D03*
X183197000Y-80465000D03*
X183197000Y-79195000D03*
X183197000Y-77925000D03*
X183197000Y-76655000D03*
X183197000Y-75385000D03*
X183197000Y-74115000D03*
X183197000Y-72845000D03*
X183197000Y-71575000D03*
X183197000Y-70305000D03*
X183197000Y-69035000D03*
D15*
X165100000Y-89995000D03*
X165100000Y-96695000D03*
X169545000Y-89995000D03*
X169545000Y-96695000D03*
G36*
G01*
X173974999Y-92975000D02*
X175275001Y-92975000D01*
G75*
G02*
X175525000Y-93224999I0J-249999D01*
G01*
X175525000Y-93875001D01*
G75*
G02*
X175275001Y-94125000I-249999J0D01*
G01*
X173974999Y-94125000D01*
G75*
G02*
X173725000Y-93875001I0J249999D01*
G01*
X173725000Y-93224999D01*
G75*
G02*
X173974999Y-92975000I249999J0D01*
G01*
G37*
G36*
G01*
X173974999Y-90025000D02*
X175275001Y-90025000D01*
G75*
G02*
X175525000Y-90274999I0J-249999D01*
G01*
X175525000Y-90925001D01*
G75*
G02*
X175275001Y-91175000I-249999J0D01*
G01*
X173974999Y-91175000D01*
G75*
G02*
X173725000Y-90925001I0J249999D01*
G01*
X173725000Y-90274999D01*
G75*
G02*
X173974999Y-90025000I249999J0D01*
G01*
G37*
G36*
G01*
X160639999Y-91295000D02*
X161940001Y-91295000D01*
G75*
G02*
X162190000Y-91544999I0J-249999D01*
G01*
X162190000Y-92195001D01*
G75*
G02*
X161940001Y-92445000I-249999J0D01*
G01*
X160639999Y-92445000D01*
G75*
G02*
X160390000Y-92195001I0J249999D01*
G01*
X160390000Y-91544999D01*
G75*
G02*
X160639999Y-91295000I249999J0D01*
G01*
G37*
G36*
G01*
X160639999Y-94245000D02*
X161940001Y-94245000D01*
G75*
G02*
X162190000Y-94494999I0J-249999D01*
G01*
X162190000Y-95145001D01*
G75*
G02*
X161940001Y-95395000I-249999J0D01*
G01*
X160639999Y-95395000D01*
G75*
G02*
X160390000Y-95145001I0J249999D01*
G01*
X160390000Y-94494999D01*
G75*
G02*
X160639999Y-94245000I249999J0D01*
G01*
G37*
G36*
G01*
X177225000Y-67325001D02*
X177225000Y-66024999D01*
G75*
G02*
X177474999Y-65775000I249999J0D01*
G01*
X178125001Y-65775000D01*
G75*
G02*
X178375000Y-66024999I0J-249999D01*
G01*
X178375000Y-67325001D01*
G75*
G02*
X178125001Y-67575000I-249999J0D01*
G01*
X177474999Y-67575000D01*
G75*
G02*
X177225000Y-67325001I0J249999D01*
G01*
G37*
G36*
G01*
X180175000Y-67325001D02*
X180175000Y-66024999D01*
G75*
G02*
X180424999Y-65775000I249999J0D01*
G01*
X181075001Y-65775000D01*
G75*
G02*
X181325000Y-66024999I0J-249999D01*
G01*
X181325000Y-67325001D01*
G75*
G02*
X181075001Y-67575000I-249999J0D01*
G01*
X180424999Y-67575000D01*
G75*
G02*
X180175000Y-67325001I0J249999D01*
G01*
G37*
G36*
G01*
X180175000Y-69865001D02*
X180175000Y-68564999D01*
G75*
G02*
X180424999Y-68315000I249999J0D01*
G01*
X181075001Y-68315000D01*
G75*
G02*
X181325000Y-68564999I0J-249999D01*
G01*
X181325000Y-69865001D01*
G75*
G02*
X181075001Y-70115000I-249999J0D01*
G01*
X180424999Y-70115000D01*
G75*
G02*
X180175000Y-69865001I0J249999D01*
G01*
G37*
G36*
G01*
X177225000Y-69865001D02*
X177225000Y-68564999D01*
G75*
G02*
X177474999Y-68315000I249999J0D01*
G01*
X178125001Y-68315000D01*
G75*
G02*
X178375000Y-68564999I0J-249999D01*
G01*
X178375000Y-69865001D01*
G75*
G02*
X178125001Y-70115000I-249999J0D01*
G01*
X177474999Y-70115000D01*
G75*
G02*
X177225000Y-69865001I0J249999D01*
G01*
G37*
G36*
G01*
X204840000Y-91424999D02*
X204840000Y-92725001D01*
G75*
G02*
X204590001Y-92975000I-249999J0D01*
G01*
X203939999Y-92975000D01*
G75*
G02*
X203690000Y-92725001I0J249999D01*
G01*
X203690000Y-91424999D01*
G75*
G02*
X203939999Y-91175000I249999J0D01*
G01*
X204590001Y-91175000D01*
G75*
G02*
X204840000Y-91424999I0J-249999D01*
G01*
G37*
G36*
G01*
X207790000Y-91424999D02*
X207790000Y-92725001D01*
G75*
G02*
X207540001Y-92975000I-249999J0D01*
G01*
X206889999Y-92975000D01*
G75*
G02*
X206640000Y-92725001I0J249999D01*
G01*
X206640000Y-91424999D01*
G75*
G02*
X206889999Y-91175000I249999J0D01*
G01*
X207540001Y-91175000D01*
G75*
G02*
X207790000Y-91424999I0J-249999D01*
G01*
G37*
G36*
G01*
X183865000Y-98409999D02*
X183865000Y-99710001D01*
G75*
G02*
X183615001Y-99960000I-249999J0D01*
G01*
X182964999Y-99960000D01*
G75*
G02*
X182715000Y-99710001I0J249999D01*
G01*
X182715000Y-98409999D01*
G75*
G02*
X182964999Y-98160000I249999J0D01*
G01*
X183615001Y-98160000D01*
G75*
G02*
X183865000Y-98409999I0J-249999D01*
G01*
G37*
G36*
G01*
X180915000Y-98409999D02*
X180915000Y-99710001D01*
G75*
G02*
X180665001Y-99960000I-249999J0D01*
G01*
X180014999Y-99960000D01*
G75*
G02*
X179765000Y-99710001I0J249999D01*
G01*
X179765000Y-98409999D01*
G75*
G02*
X180014999Y-98160000I249999J0D01*
G01*
X180665001Y-98160000D01*
G75*
G02*
X180915000Y-98409999I0J-249999D01*
G01*
G37*
G36*
G01*
X180175000Y-73675001D02*
X180175000Y-72374999D01*
G75*
G02*
X180424999Y-72125000I249999J0D01*
G01*
X181075001Y-72125000D01*
G75*
G02*
X181325000Y-72374999I0J-249999D01*
G01*
X181325000Y-73675001D01*
G75*
G02*
X181075001Y-73925000I-249999J0D01*
G01*
X180424999Y-73925000D01*
G75*
G02*
X180175000Y-73675001I0J249999D01*
G01*
G37*
G36*
G01*
X177225000Y-73675001D02*
X177225000Y-72374999D01*
G75*
G02*
X177474999Y-72125000I249999J0D01*
G01*
X178125001Y-72125000D01*
G75*
G02*
X178375000Y-72374999I0J-249999D01*
G01*
X178375000Y-73675001D01*
G75*
G02*
X178125001Y-73925000I-249999J0D01*
G01*
X177474999Y-73925000D01*
G75*
G02*
X177225000Y-73675001I0J249999D01*
G01*
G37*
G36*
G01*
X207512500Y-81899999D02*
X207512500Y-83200001D01*
G75*
G02*
X207262501Y-83450000I-249999J0D01*
G01*
X206612499Y-83450000D01*
G75*
G02*
X206362500Y-83200001I0J249999D01*
G01*
X206362500Y-81899999D01*
G75*
G02*
X206612499Y-81650000I249999J0D01*
G01*
X207262501Y-81650000D01*
G75*
G02*
X207512500Y-81899999I0J-249999D01*
G01*
G37*
G36*
G01*
X204562500Y-81899999D02*
X204562500Y-83200001D01*
G75*
G02*
X204312501Y-83450000I-249999J0D01*
G01*
X203662499Y-83450000D01*
G75*
G02*
X203412500Y-83200001I0J249999D01*
G01*
X203412500Y-81899999D01*
G75*
G02*
X203662499Y-81650000I249999J0D01*
G01*
X204312501Y-81650000D01*
G75*
G02*
X204562500Y-81899999I0J-249999D01*
G01*
G37*
G36*
G01*
X209534999Y-62085000D02*
X210835001Y-62085000D01*
G75*
G02*
X211085000Y-62334999I0J-249999D01*
G01*
X211085000Y-62985001D01*
G75*
G02*
X210835001Y-63235000I-249999J0D01*
G01*
X209534999Y-63235000D01*
G75*
G02*
X209285000Y-62985001I0J249999D01*
G01*
X209285000Y-62334999D01*
G75*
G02*
X209534999Y-62085000I249999J0D01*
G01*
G37*
G36*
G01*
X209534999Y-65035000D02*
X210835001Y-65035000D01*
G75*
G02*
X211085000Y-65284999I0J-249999D01*
G01*
X211085000Y-65935001D01*
G75*
G02*
X210835001Y-66185000I-249999J0D01*
G01*
X209534999Y-66185000D01*
G75*
G02*
X209285000Y-65935001I0J249999D01*
G01*
X209285000Y-65284999D01*
G75*
G02*
X209534999Y-65035000I249999J0D01*
G01*
G37*
G36*
G01*
X204562500Y-78089999D02*
X204562500Y-79390001D01*
G75*
G02*
X204312501Y-79640000I-249999J0D01*
G01*
X203662499Y-79640000D01*
G75*
G02*
X203412500Y-79390001I0J249999D01*
G01*
X203412500Y-78089999D01*
G75*
G02*
X203662499Y-77840000I249999J0D01*
G01*
X204312501Y-77840000D01*
G75*
G02*
X204562500Y-78089999I0J-249999D01*
G01*
G37*
G36*
G01*
X207512500Y-78089999D02*
X207512500Y-79390001D01*
G75*
G02*
X207262501Y-79640000I-249999J0D01*
G01*
X206612499Y-79640000D01*
G75*
G02*
X206362500Y-79390001I0J249999D01*
G01*
X206362500Y-78089999D01*
G75*
G02*
X206612499Y-77840000I249999J0D01*
G01*
X207262501Y-77840000D01*
G75*
G02*
X207512500Y-78089999I0J-249999D01*
G01*
G37*
G36*
G01*
X207512500Y-86979999D02*
X207512500Y-88280001D01*
G75*
G02*
X207262501Y-88530000I-249999J0D01*
G01*
X206612499Y-88530000D01*
G75*
G02*
X206362500Y-88280001I0J249999D01*
G01*
X206362500Y-86979999D01*
G75*
G02*
X206612499Y-86730000I249999J0D01*
G01*
X207262501Y-86730000D01*
G75*
G02*
X207512500Y-86979999I0J-249999D01*
G01*
G37*
G36*
G01*
X204562500Y-86979999D02*
X204562500Y-88280001D01*
G75*
G02*
X204312501Y-88530000I-249999J0D01*
G01*
X203662499Y-88530000D01*
G75*
G02*
X203412500Y-88280001I0J249999D01*
G01*
X203412500Y-86979999D01*
G75*
G02*
X203662499Y-86730000I249999J0D01*
G01*
X204312501Y-86730000D01*
G75*
G02*
X204562500Y-86979999I0J-249999D01*
G01*
G37*
M02*
