G04 #@! TF.GenerationSoftware,KiCad,Pcbnew,(5.1.7)-1*
G04 #@! TF.CreationDate,2021-04-12T14:54:16+02:00*
G04 #@! TF.ProjectId,FitnessTracker.kicad_pcb2,4669746e-6573-4735-9472-61636b65722e,rev?*
G04 #@! TF.SameCoordinates,Original*
G04 #@! TF.FileFunction,Copper,L2,Bot*
G04 #@! TF.FilePolarity,Positive*
%FSLAX46Y46*%
G04 Gerber Fmt 4.6, Leading zero omitted, Abs format (unit mm)*
G04 Created by KiCad (PCBNEW (5.1.7)-1) date 2021-04-12 14:54:16*
%MOMM*%
%LPD*%
G01*
G04 APERTURE LIST*
G04 #@! TA.AperFunction,ComponentPad*
%ADD10C,2.000000*%
G04 #@! TD*
G04 #@! TA.AperFunction,ComponentPad*
%ADD11C,2.500000*%
G04 #@! TD*
G04 #@! TA.AperFunction,ComponentPad*
%ADD12R,2.500000X2.500000*%
G04 #@! TD*
G04 #@! TA.AperFunction,ComponentPad*
%ADD13C,1.800000*%
G04 #@! TD*
G04 #@! TA.AperFunction,ComponentPad*
%ADD14C,0.500000*%
G04 #@! TD*
G04 #@! TA.AperFunction,ComponentPad*
%ADD15R,1.700000X1.700000*%
G04 #@! TD*
G04 #@! TA.AperFunction,ComponentPad*
%ADD16O,1.700000X1.700000*%
G04 #@! TD*
G04 #@! TA.AperFunction,ViaPad*
%ADD17C,0.800000*%
G04 #@! TD*
G04 #@! TA.AperFunction,Conductor*
%ADD18C,0.800000*%
G04 #@! TD*
G04 #@! TA.AperFunction,Conductor*
%ADD19C,0.300000*%
G04 #@! TD*
G04 #@! TA.AperFunction,Conductor*
%ADD20C,0.350000*%
G04 #@! TD*
G04 #@! TA.AperFunction,Conductor*
%ADD21C,0.100000*%
G04 #@! TD*
G04 APERTURE END LIST*
D10*
X162560000Y-71120000D03*
X162560000Y-68580000D03*
X162560000Y-66040000D03*
X162560000Y-63500000D03*
D11*
X193628000Y-94488000D03*
D12*
X198628000Y-94488000D03*
D10*
X204470000Y-95885000D03*
X207010000Y-95885000D03*
D13*
X187325000Y-94615000D03*
X187325000Y-92075000D03*
D14*
X191614500Y-78370000D03*
X189779500Y-78370000D03*
X192532000Y-77452500D03*
X190697000Y-77452500D03*
X188862000Y-77452500D03*
X191614500Y-76535000D03*
X189779500Y-76535000D03*
X192532000Y-75617500D03*
X190697000Y-75617500D03*
X188862000Y-75617500D03*
X191614500Y-74700000D03*
X189779500Y-74700000D03*
D15*
X207010000Y-71120000D03*
D16*
X207010000Y-68580000D03*
X207010000Y-66040000D03*
X207010000Y-63500000D03*
D17*
X179705000Y-76835000D03*
X177800000Y-89535000D03*
X210820000Y-74676000D03*
X160020000Y-85344000D03*
X206248000Y-73660000D03*
X203835000Y-85090000D03*
X160020000Y-88900000D03*
X176149000Y-66675000D03*
X189992000Y-89408000D03*
X205740000Y-75565000D03*
X203200000Y-69850000D03*
X202438000Y-75438000D03*
D18*
X177800000Y-87630000D02*
X179347500Y-86082500D01*
X177800000Y-89535000D02*
X177800000Y-87630000D01*
X179347500Y-77192500D02*
X179705000Y-76835000D01*
X179347500Y-86082500D02*
X179347500Y-77192500D01*
D19*
X207010000Y-71882000D02*
X209804000Y-74676000D01*
X209804000Y-74676000D02*
X210820000Y-74676000D01*
D18*
X196215000Y-92846002D02*
X200025000Y-89036002D01*
X196215000Y-95250000D02*
X196215000Y-92846002D01*
X194854999Y-96610001D02*
X196215000Y-95250000D01*
X170905001Y-96610001D02*
X194854999Y-96610001D01*
X163195000Y-88900000D02*
X170905001Y-96610001D01*
X160020000Y-88900000D02*
X163195000Y-88900000D01*
X200025000Y-88900000D02*
X203835000Y-85090000D01*
X200025000Y-89036002D02*
X200025000Y-88900000D01*
X162560000Y-63500000D02*
X165100000Y-63500000D01*
X168275000Y-66675000D02*
X176149000Y-66675000D01*
X165100000Y-63500000D02*
X168275000Y-66675000D01*
X195072000Y-86233000D02*
X205740000Y-75565000D01*
X195072000Y-89408000D02*
X195072000Y-86233000D01*
X189992000Y-89408000D02*
X195072000Y-89408000D01*
X164465000Y-68580000D02*
X162560000Y-68580000D01*
X167460000Y-71575000D02*
X164465000Y-68580000D01*
X201475000Y-71575000D02*
X167460000Y-71575000D01*
X203200000Y-69850000D02*
X201475000Y-71575000D01*
X162560000Y-71120000D02*
X165100000Y-71120000D01*
X165100000Y-71120000D02*
X167005000Y-73025000D01*
X167005000Y-73025000D02*
X194945000Y-73025000D01*
X197305000Y-75385000D02*
X202385000Y-75385000D01*
X194945000Y-73025000D02*
X197305000Y-75385000D01*
D20*
X181460960Y-68036717D02*
X181481717Y-68064031D01*
X181507403Y-68086771D01*
X181537033Y-68104062D01*
X181569466Y-68115241D01*
X181610000Y-68120000D01*
X201930000Y-68120000D01*
X201964141Y-68116637D01*
X201996970Y-68106679D01*
X202027225Y-68090507D01*
X202053744Y-68068744D01*
X202073884Y-68044612D01*
X205545126Y-63030595D01*
X205535912Y-63052840D01*
X205477000Y-63349013D01*
X205477000Y-63650987D01*
X205535912Y-63947160D01*
X205651473Y-64226148D01*
X205819241Y-64477231D01*
X206032769Y-64690759D01*
X206151362Y-64770000D01*
X206032769Y-64849241D01*
X205819241Y-65062769D01*
X205651473Y-65313852D01*
X205535912Y-65592840D01*
X205477000Y-65889013D01*
X205477000Y-66190987D01*
X205535912Y-66487160D01*
X205651473Y-66766148D01*
X205819241Y-67017231D01*
X206032769Y-67230759D01*
X206151362Y-67310000D01*
X206032769Y-67389241D01*
X205819241Y-67602769D01*
X205651473Y-67853852D01*
X205535912Y-68132840D01*
X205477000Y-68429013D01*
X205477000Y-68730987D01*
X205535912Y-69027160D01*
X205651473Y-69306148D01*
X205819241Y-69557231D01*
X205897811Y-69635801D01*
X205897362Y-69635937D01*
X205778709Y-69699358D01*
X205674709Y-69784709D01*
X205589358Y-69888709D01*
X205525937Y-70007362D01*
X205486882Y-70136109D01*
X205473695Y-70270000D01*
X205477000Y-70870250D01*
X205647750Y-71041000D01*
X206931000Y-71041000D01*
X206931000Y-71021000D01*
X207089000Y-71021000D01*
X207089000Y-71041000D01*
X208372250Y-71041000D01*
X208543000Y-70870250D01*
X208546305Y-70270000D01*
X208533118Y-70136109D01*
X208494063Y-70007362D01*
X208430642Y-69888709D01*
X208345291Y-69784709D01*
X208241291Y-69699358D01*
X208122638Y-69635937D01*
X208122189Y-69635801D01*
X208200759Y-69557231D01*
X208368527Y-69306148D01*
X208484088Y-69027160D01*
X208543000Y-68730987D01*
X208543000Y-68429013D01*
X208484088Y-68132840D01*
X208368527Y-67853852D01*
X208200759Y-67602769D01*
X207987231Y-67389241D01*
X207868638Y-67310000D01*
X207987231Y-67230759D01*
X208200759Y-67017231D01*
X208368527Y-66766148D01*
X208484088Y-66487160D01*
X208543000Y-66190987D01*
X208543000Y-65889013D01*
X208484088Y-65592840D01*
X208368527Y-65313852D01*
X208200759Y-65062769D01*
X207987231Y-64849241D01*
X207868638Y-64770000D01*
X207987231Y-64690759D01*
X208200759Y-64477231D01*
X208368527Y-64226148D01*
X208484088Y-63947160D01*
X208543000Y-63650987D01*
X208543000Y-63349013D01*
X208484088Y-63052840D01*
X208368527Y-62773852D01*
X208200759Y-62522769D01*
X207987231Y-62309241D01*
X207736148Y-62141473D01*
X207457160Y-62025912D01*
X207160987Y-61967000D01*
X206859013Y-61967000D01*
X206562840Y-62025912D01*
X206283852Y-62141473D01*
X206054645Y-62294624D01*
X207736692Y-59865000D01*
X211967001Y-59865000D01*
X211967001Y-60287768D01*
X211967000Y-99657768D01*
X211967000Y-99657769D01*
X211967001Y-100842000D01*
X159508000Y-100842000D01*
X159508000Y-89860153D01*
X159556400Y-89880201D01*
X159603549Y-89905403D01*
X159654709Y-89920922D01*
X159704101Y-89941381D01*
X159756535Y-89951811D01*
X159807695Y-89967330D01*
X159860899Y-89972570D01*
X159913334Y-89983000D01*
X162746408Y-89983000D01*
X170101583Y-97338176D01*
X170135499Y-97379503D01*
X170300407Y-97514839D01*
X170488550Y-97615404D01*
X170692696Y-97677331D01*
X170851798Y-97693001D01*
X170851800Y-97693001D01*
X170905001Y-97698241D01*
X170958201Y-97693001D01*
X194801799Y-97693001D01*
X194854999Y-97698241D01*
X194908199Y-97693001D01*
X194908202Y-97693001D01*
X195067304Y-97677331D01*
X195271450Y-97615404D01*
X195459593Y-97514839D01*
X195624501Y-97379503D01*
X195658422Y-97338170D01*
X196838887Y-96157706D01*
X196892710Y-96223290D01*
X196996710Y-96308641D01*
X197115363Y-96372062D01*
X197244109Y-96411117D01*
X197378000Y-96424304D01*
X199878000Y-96424304D01*
X200011891Y-96411117D01*
X200140637Y-96372062D01*
X200259290Y-96308641D01*
X200363290Y-96223290D01*
X200448641Y-96119290D01*
X200512062Y-96000637D01*
X200551117Y-95871891D01*
X200564304Y-95738000D01*
X200564304Y-95719239D01*
X202787000Y-95719239D01*
X202787000Y-96050761D01*
X202851677Y-96375913D01*
X202978545Y-96682199D01*
X203162729Y-96957850D01*
X203397150Y-97192271D01*
X203672801Y-97376455D01*
X203979087Y-97503323D01*
X204304239Y-97568000D01*
X204635761Y-97568000D01*
X204960913Y-97503323D01*
X205267199Y-97376455D01*
X205542850Y-97192271D01*
X205740000Y-96995121D01*
X205937150Y-97192271D01*
X206212801Y-97376455D01*
X206519087Y-97503323D01*
X206844239Y-97568000D01*
X207175761Y-97568000D01*
X207500913Y-97503323D01*
X207807199Y-97376455D01*
X208082850Y-97192271D01*
X208317271Y-96957850D01*
X208501455Y-96682199D01*
X208628323Y-96375913D01*
X208693000Y-96050761D01*
X208693000Y-95719239D01*
X208628323Y-95394087D01*
X208501455Y-95087801D01*
X208317271Y-94812150D01*
X208082850Y-94577729D01*
X207807199Y-94393545D01*
X207500913Y-94266677D01*
X207175761Y-94202000D01*
X206844239Y-94202000D01*
X206519087Y-94266677D01*
X206212801Y-94393545D01*
X205937150Y-94577729D01*
X205740000Y-94774879D01*
X205542850Y-94577729D01*
X205267199Y-94393545D01*
X204960913Y-94266677D01*
X204635761Y-94202000D01*
X204304239Y-94202000D01*
X203979087Y-94266677D01*
X203672801Y-94393545D01*
X203397150Y-94577729D01*
X203162729Y-94812150D01*
X202978545Y-95087801D01*
X202851677Y-95394087D01*
X202787000Y-95719239D01*
X200564304Y-95719239D01*
X200564304Y-93238000D01*
X200551117Y-93104109D01*
X200512062Y-92975363D01*
X200448641Y-92856710D01*
X200363290Y-92752710D01*
X200259290Y-92667359D01*
X200140637Y-92603938D01*
X200011891Y-92564883D01*
X199878000Y-92551696D01*
X198040899Y-92551696D01*
X200753180Y-89839416D01*
X200794502Y-89805504D01*
X200828414Y-89764182D01*
X200828417Y-89764179D01*
X200929838Y-89640596D01*
X201025726Y-89461203D01*
X201030403Y-89452453D01*
X201041839Y-89414753D01*
X204638417Y-85818177D01*
X204638422Y-85818171D01*
X204676221Y-85780372D01*
X204705923Y-85735920D01*
X204739838Y-85694594D01*
X204765038Y-85647448D01*
X204794742Y-85602993D01*
X204815203Y-85553597D01*
X204840402Y-85506452D01*
X204855919Y-85455298D01*
X204876381Y-85405899D01*
X204886812Y-85353456D01*
X204902329Y-85302305D01*
X204907569Y-85249108D01*
X204918000Y-85196666D01*
X204918000Y-85143201D01*
X204923240Y-85090000D01*
X204918000Y-85036800D01*
X204918000Y-84983334D01*
X204907568Y-84930891D01*
X204902329Y-84877696D01*
X204886813Y-84826546D01*
X204876381Y-84774101D01*
X204855919Y-84724702D01*
X204840402Y-84673548D01*
X204815203Y-84626403D01*
X204794742Y-84577007D01*
X204765038Y-84532552D01*
X204739838Y-84485406D01*
X204705924Y-84444081D01*
X204676221Y-84399628D01*
X204638418Y-84361825D01*
X204604502Y-84320498D01*
X204563175Y-84286582D01*
X204525372Y-84248779D01*
X204480919Y-84219076D01*
X204439594Y-84185162D01*
X204392448Y-84159962D01*
X204347993Y-84130258D01*
X204298597Y-84109797D01*
X204251452Y-84084598D01*
X204200298Y-84069081D01*
X204150899Y-84048619D01*
X204098454Y-84038187D01*
X204047304Y-84022671D01*
X203994109Y-84017432D01*
X203941666Y-84007000D01*
X203888200Y-84007000D01*
X203835000Y-84001760D01*
X203781799Y-84007000D01*
X203728334Y-84007000D01*
X203675892Y-84017431D01*
X203622695Y-84022671D01*
X203571544Y-84038188D01*
X203519101Y-84048619D01*
X203469702Y-84069081D01*
X203418548Y-84084598D01*
X203371403Y-84109797D01*
X203322007Y-84130258D01*
X203277552Y-84159962D01*
X203230406Y-84185162D01*
X203189080Y-84219077D01*
X203144628Y-84248779D01*
X203106829Y-84286578D01*
X203106823Y-84286583D01*
X199296830Y-88096578D01*
X199255498Y-88130498D01*
X199120162Y-88295406D01*
X199019597Y-88483549D01*
X199008162Y-88521247D01*
X195486826Y-92042584D01*
X195445499Y-92076500D01*
X195310163Y-92241408D01*
X195209598Y-92429551D01*
X195156699Y-92603938D01*
X195147671Y-92633698D01*
X195126760Y-92846002D01*
X195132001Y-92899212D01*
X195132001Y-93367943D01*
X194935328Y-93292395D01*
X193739723Y-94488000D01*
X193753865Y-94502142D01*
X193642142Y-94613865D01*
X193628000Y-94599723D01*
X193613858Y-94613865D01*
X193502135Y-94502142D01*
X193516277Y-94488000D01*
X192320672Y-93292395D01*
X192011468Y-93411170D01*
X191832451Y-93747231D01*
X191722435Y-94111758D01*
X191685648Y-94490745D01*
X191723506Y-94869626D01*
X191834552Y-95233842D01*
X191991248Y-95527001D01*
X188506677Y-95527001D01*
X188656717Y-95484900D01*
X188800837Y-95208379D01*
X188888242Y-94909056D01*
X188915572Y-94598432D01*
X188881777Y-94288446D01*
X188788156Y-93991009D01*
X188656717Y-93745100D01*
X188383334Y-93668389D01*
X187436723Y-94615000D01*
X187450865Y-94629142D01*
X187339142Y-94740865D01*
X187325000Y-94726723D01*
X187310858Y-94740865D01*
X187199135Y-94629142D01*
X187213277Y-94615000D01*
X186266666Y-93668389D01*
X185993283Y-93745100D01*
X185849163Y-94021621D01*
X185761758Y-94320944D01*
X185734428Y-94631568D01*
X185768223Y-94941554D01*
X185861844Y-95238991D01*
X185993283Y-95484900D01*
X186143323Y-95527001D01*
X171353594Y-95527001D01*
X167745681Y-91919088D01*
X185742000Y-91919088D01*
X185742000Y-92230912D01*
X185802834Y-92536744D01*
X185922164Y-92824831D01*
X186095404Y-93084103D01*
X186315897Y-93304596D01*
X186428085Y-93379558D01*
X186378389Y-93556666D01*
X187325000Y-94503277D01*
X188271611Y-93556666D01*
X188221915Y-93379558D01*
X188334103Y-93304596D01*
X188458027Y-93180672D01*
X192432395Y-93180672D01*
X193628000Y-94376277D01*
X194823605Y-93180672D01*
X194704830Y-92871468D01*
X194368769Y-92692451D01*
X194004242Y-92582435D01*
X193625255Y-92545648D01*
X193246374Y-92583506D01*
X192882158Y-92694552D01*
X192551170Y-92871468D01*
X192432395Y-93180672D01*
X188458027Y-93180672D01*
X188554596Y-93084103D01*
X188727836Y-92824831D01*
X188847166Y-92536744D01*
X188908000Y-92230912D01*
X188908000Y-91919088D01*
X188847166Y-91613256D01*
X188727836Y-91325169D01*
X188554596Y-91065897D01*
X188334103Y-90845404D01*
X188074831Y-90672164D01*
X187786744Y-90552834D01*
X187480912Y-90492000D01*
X187169088Y-90492000D01*
X186863256Y-90552834D01*
X186575169Y-90672164D01*
X186315897Y-90845404D01*
X186095404Y-91065897D01*
X185922164Y-91325169D01*
X185802834Y-91613256D01*
X185742000Y-91919088D01*
X167745681Y-91919088D01*
X163998423Y-88171831D01*
X163964502Y-88130498D01*
X163799594Y-87995162D01*
X163611451Y-87894597D01*
X163407305Y-87832670D01*
X163248203Y-87817000D01*
X163248200Y-87817000D01*
X163195000Y-87811760D01*
X163141800Y-87817000D01*
X159913334Y-87817000D01*
X159860899Y-87827430D01*
X159807695Y-87832670D01*
X159756535Y-87848189D01*
X159704101Y-87858619D01*
X159654709Y-87879078D01*
X159603549Y-87894597D01*
X159556400Y-87919799D01*
X159508000Y-87939847D01*
X159508000Y-87630000D01*
X176711760Y-87630000D01*
X176717001Y-87683210D01*
X176717000Y-89428334D01*
X176717000Y-89641666D01*
X176727430Y-89694102D01*
X176732670Y-89747304D01*
X176748189Y-89798462D01*
X176758619Y-89850899D01*
X176779079Y-89900293D01*
X176794597Y-89951450D01*
X176819797Y-89998596D01*
X176840258Y-90047993D01*
X176869962Y-90092448D01*
X176895162Y-90139594D01*
X176929076Y-90180919D01*
X176958779Y-90225372D01*
X176996582Y-90263175D01*
X177030498Y-90304502D01*
X177071825Y-90338418D01*
X177109628Y-90376221D01*
X177154081Y-90405924D01*
X177195406Y-90439838D01*
X177242553Y-90465039D01*
X177287007Y-90494742D01*
X177336400Y-90515201D01*
X177383549Y-90540403D01*
X177434709Y-90555922D01*
X177484101Y-90576381D01*
X177536535Y-90586811D01*
X177587695Y-90602330D01*
X177640899Y-90607570D01*
X177693334Y-90618000D01*
X177746797Y-90618000D01*
X177800000Y-90623240D01*
X177853203Y-90618000D01*
X177906666Y-90618000D01*
X177959101Y-90607570D01*
X178012304Y-90602330D01*
X178063462Y-90586811D01*
X178115899Y-90576381D01*
X178165293Y-90555921D01*
X178216450Y-90540403D01*
X178263596Y-90515203D01*
X178312993Y-90494742D01*
X178357448Y-90465038D01*
X178404594Y-90439838D01*
X178445919Y-90405924D01*
X178490372Y-90376221D01*
X178528175Y-90338418D01*
X178569502Y-90304502D01*
X178603418Y-90263175D01*
X178641221Y-90225372D01*
X178670924Y-90180919D01*
X178704838Y-90139594D01*
X178730039Y-90092447D01*
X178759742Y-90047993D01*
X178780201Y-89998600D01*
X178805403Y-89951451D01*
X178820922Y-89900291D01*
X178841381Y-89850899D01*
X178851811Y-89798465D01*
X178867330Y-89747305D01*
X178872570Y-89694101D01*
X178883000Y-89641666D01*
X178883000Y-89408000D01*
X188903760Y-89408000D01*
X188909000Y-89461202D01*
X188909000Y-89514666D01*
X188919430Y-89567101D01*
X188924670Y-89620305D01*
X188940189Y-89671465D01*
X188950619Y-89723899D01*
X188971078Y-89773291D01*
X188986597Y-89824451D01*
X189011799Y-89871600D01*
X189032258Y-89920993D01*
X189061961Y-89965447D01*
X189087162Y-90012594D01*
X189121076Y-90053919D01*
X189150779Y-90098372D01*
X189188582Y-90136175D01*
X189222498Y-90177502D01*
X189263825Y-90211418D01*
X189301628Y-90249221D01*
X189346081Y-90278924D01*
X189387406Y-90312838D01*
X189434553Y-90338039D01*
X189479007Y-90367742D01*
X189528400Y-90388201D01*
X189575549Y-90413403D01*
X189626709Y-90428922D01*
X189676101Y-90449381D01*
X189728535Y-90459811D01*
X189779695Y-90475330D01*
X189832899Y-90480570D01*
X189885334Y-90491000D01*
X195018797Y-90491000D01*
X195072000Y-90496240D01*
X195125203Y-90491000D01*
X195284305Y-90475330D01*
X195488451Y-90413403D01*
X195676594Y-90312838D01*
X195841502Y-90177502D01*
X195976838Y-90012594D01*
X196077403Y-89824451D01*
X196139330Y-89620305D01*
X196160240Y-89408000D01*
X196155000Y-89354797D01*
X196155000Y-86681592D01*
X206543416Y-76293177D01*
X206581221Y-76255372D01*
X206610922Y-76210922D01*
X206644838Y-76169595D01*
X206670041Y-76122444D01*
X206699742Y-76077993D01*
X206720201Y-76028601D01*
X206745402Y-75981453D01*
X206760920Y-75930295D01*
X206781381Y-75880899D01*
X206791812Y-75828457D01*
X206807329Y-75777305D01*
X206812568Y-75724110D01*
X206823000Y-75671666D01*
X206823000Y-75618194D01*
X206828239Y-75565001D01*
X206823000Y-75511808D01*
X206823000Y-75458334D01*
X206812568Y-75405889D01*
X206807329Y-75352696D01*
X206791813Y-75301547D01*
X206781381Y-75249101D01*
X206760918Y-75199700D01*
X206745402Y-75148549D01*
X206720204Y-75101408D01*
X206699742Y-75052007D01*
X206670035Y-75007548D01*
X206644838Y-74960407D01*
X206610928Y-74919088D01*
X206581221Y-74874628D01*
X206543410Y-74836817D01*
X206509501Y-74795499D01*
X206468183Y-74761590D01*
X206430372Y-74723779D01*
X206385912Y-74694072D01*
X206344593Y-74660162D01*
X206297452Y-74634965D01*
X206252993Y-74605258D01*
X206203592Y-74584796D01*
X206156451Y-74559598D01*
X206105300Y-74544082D01*
X206055899Y-74523619D01*
X206003453Y-74513187D01*
X205952304Y-74497671D01*
X205899111Y-74492432D01*
X205846666Y-74482000D01*
X205793192Y-74482000D01*
X205739999Y-74476761D01*
X205686806Y-74482000D01*
X205633334Y-74482000D01*
X205580890Y-74492432D01*
X205527695Y-74497671D01*
X205476543Y-74513188D01*
X205424101Y-74523619D01*
X205374705Y-74544080D01*
X205323547Y-74559598D01*
X205276399Y-74584799D01*
X205227007Y-74605258D01*
X205182556Y-74634959D01*
X205135405Y-74660162D01*
X205094078Y-74694078D01*
X205049628Y-74723779D01*
X205011823Y-74761584D01*
X194343826Y-85429582D01*
X194302499Y-85463498D01*
X194268584Y-85504824D01*
X194167162Y-85628407D01*
X194066598Y-85816549D01*
X194004671Y-86020696D01*
X193983760Y-86233000D01*
X193989001Y-86286210D01*
X193989000Y-88325000D01*
X189885334Y-88325000D01*
X189832899Y-88335430D01*
X189779695Y-88340670D01*
X189728535Y-88356189D01*
X189676101Y-88366619D01*
X189626709Y-88387078D01*
X189575549Y-88402597D01*
X189528400Y-88427799D01*
X189479007Y-88448258D01*
X189434553Y-88477961D01*
X189387406Y-88503162D01*
X189346081Y-88537076D01*
X189301628Y-88566779D01*
X189263825Y-88604582D01*
X189222498Y-88638498D01*
X189188582Y-88679825D01*
X189150779Y-88717628D01*
X189121076Y-88762081D01*
X189087162Y-88803406D01*
X189061961Y-88850553D01*
X189032258Y-88895007D01*
X189011799Y-88944400D01*
X188986597Y-88991549D01*
X188971078Y-89042709D01*
X188950619Y-89092101D01*
X188940189Y-89144535D01*
X188924670Y-89195695D01*
X188919430Y-89248899D01*
X188909000Y-89301334D01*
X188909000Y-89354797D01*
X188903760Y-89408000D01*
X178883000Y-89408000D01*
X178883000Y-88078592D01*
X180075674Y-86885919D01*
X180117002Y-86852002D01*
X180221097Y-86725162D01*
X180252338Y-86687095D01*
X180352902Y-86498953D01*
X180352903Y-86498950D01*
X180414830Y-86294805D01*
X180430500Y-86135703D01*
X180430500Y-86135694D01*
X180435739Y-86082501D01*
X180430500Y-86029308D01*
X180430500Y-79170117D01*
X189290886Y-79170117D01*
X189456370Y-79250067D01*
X189634272Y-79296197D01*
X189817754Y-79306733D01*
X189999767Y-79281270D01*
X190173315Y-79220789D01*
X190268114Y-79170117D01*
X191125886Y-79170117D01*
X191291370Y-79250067D01*
X191469272Y-79296197D01*
X191652754Y-79306733D01*
X191834767Y-79281270D01*
X192008315Y-79220789D01*
X192103114Y-79170117D01*
X192101051Y-78962617D01*
X191614500Y-78476066D01*
X191127949Y-78962617D01*
X191125886Y-79170117D01*
X190268114Y-79170117D01*
X190266051Y-78962617D01*
X189779500Y-78476066D01*
X189292949Y-78962617D01*
X189290886Y-79170117D01*
X180430500Y-79170117D01*
X180430500Y-78252617D01*
X188373386Y-78252617D01*
X188538870Y-78332567D01*
X188716772Y-78378697D01*
X188844045Y-78386005D01*
X188842767Y-78408254D01*
X188868230Y-78590267D01*
X188928711Y-78763815D01*
X188979383Y-78858614D01*
X189186883Y-78856551D01*
X189673434Y-78370000D01*
X189885566Y-78370000D01*
X190372117Y-78856551D01*
X190579617Y-78858614D01*
X190659567Y-78693130D01*
X190697276Y-78547705D01*
X190703230Y-78590267D01*
X190763711Y-78763815D01*
X190814383Y-78858614D01*
X191021883Y-78856551D01*
X191508434Y-78370000D01*
X191720566Y-78370000D01*
X192207117Y-78856551D01*
X192414617Y-78858614D01*
X192494567Y-78693130D01*
X192540697Y-78515228D01*
X192548005Y-78387955D01*
X192570254Y-78389233D01*
X192752267Y-78363770D01*
X192925815Y-78303289D01*
X193020614Y-78252617D01*
X193018551Y-78045117D01*
X192532000Y-77558566D01*
X191720566Y-78370000D01*
X191508434Y-78370000D01*
X190697000Y-77558566D01*
X189885566Y-78370000D01*
X189673434Y-78370000D01*
X188862000Y-77558566D01*
X188375449Y-78045117D01*
X188373386Y-78252617D01*
X180430500Y-78252617D01*
X180430500Y-77641093D01*
X180546221Y-77525372D01*
X180569351Y-77490754D01*
X187925267Y-77490754D01*
X187950730Y-77672767D01*
X188011211Y-77846315D01*
X188061883Y-77941114D01*
X188269383Y-77939051D01*
X188755934Y-77452500D01*
X188968066Y-77452500D01*
X189779500Y-78263934D01*
X190590934Y-77452500D01*
X190803066Y-77452500D01*
X191614500Y-78263934D01*
X192425934Y-77452500D01*
X192638066Y-77452500D01*
X193124617Y-77939051D01*
X193332117Y-77941114D01*
X193412067Y-77775630D01*
X193458197Y-77597728D01*
X193468733Y-77414246D01*
X193443270Y-77232233D01*
X193382789Y-77058685D01*
X193332117Y-76963886D01*
X193124617Y-76965949D01*
X192638066Y-77452500D01*
X192425934Y-77452500D01*
X191614500Y-76641066D01*
X190803066Y-77452500D01*
X190590934Y-77452500D01*
X189779500Y-76641066D01*
X188968066Y-77452500D01*
X188755934Y-77452500D01*
X188269383Y-76965949D01*
X188061883Y-76963886D01*
X187981933Y-77129370D01*
X187935803Y-77307272D01*
X187925267Y-77490754D01*
X180569351Y-77490754D01*
X180575925Y-77480916D01*
X180609838Y-77439594D01*
X180635038Y-77392448D01*
X180664742Y-77347993D01*
X180685203Y-77298597D01*
X180710402Y-77251452D01*
X180725919Y-77200298D01*
X180746381Y-77150899D01*
X180756812Y-77098456D01*
X180772329Y-77047305D01*
X180777568Y-76994110D01*
X180788000Y-76941666D01*
X180788000Y-76888194D01*
X180793239Y-76835001D01*
X180788000Y-76781808D01*
X180788000Y-76728334D01*
X180777568Y-76675889D01*
X180772329Y-76622696D01*
X180756813Y-76571547D01*
X180746381Y-76519101D01*
X180725918Y-76469700D01*
X180710402Y-76418549D01*
X180709904Y-76417617D01*
X188373386Y-76417617D01*
X188538870Y-76497567D01*
X188684295Y-76535276D01*
X188641733Y-76541230D01*
X188468185Y-76601711D01*
X188373386Y-76652383D01*
X188375449Y-76859883D01*
X188862000Y-77346434D01*
X189673434Y-76535000D01*
X189885566Y-76535000D01*
X190697000Y-77346434D01*
X191508434Y-76535000D01*
X191720566Y-76535000D01*
X192532000Y-77346434D01*
X193018551Y-76859883D01*
X193020614Y-76652383D01*
X192855130Y-76572433D01*
X192709705Y-76534724D01*
X192752267Y-76528770D01*
X192925815Y-76468289D01*
X193020614Y-76417617D01*
X193018551Y-76210117D01*
X192532000Y-75723566D01*
X191720566Y-76535000D01*
X191508434Y-76535000D01*
X190697000Y-75723566D01*
X189885566Y-76535000D01*
X189673434Y-76535000D01*
X188862000Y-75723566D01*
X188375449Y-76210117D01*
X188373386Y-76417617D01*
X180709904Y-76417617D01*
X180685204Y-76371408D01*
X180664742Y-76322007D01*
X180635035Y-76277548D01*
X180609838Y-76230407D01*
X180575928Y-76189088D01*
X180546221Y-76144628D01*
X180508410Y-76106817D01*
X180474501Y-76065499D01*
X180433183Y-76031590D01*
X180395372Y-75993779D01*
X180350912Y-75964072D01*
X180309593Y-75930162D01*
X180262452Y-75904965D01*
X180217993Y-75875258D01*
X180168592Y-75854796D01*
X180121451Y-75829598D01*
X180070300Y-75814082D01*
X180020899Y-75793619D01*
X179968453Y-75783187D01*
X179917304Y-75767671D01*
X179864111Y-75762432D01*
X179811666Y-75752000D01*
X179758192Y-75752000D01*
X179704999Y-75746761D01*
X179651806Y-75752000D01*
X179598334Y-75752000D01*
X179545890Y-75762432D01*
X179492695Y-75767671D01*
X179441544Y-75783188D01*
X179389101Y-75793619D01*
X179339702Y-75814081D01*
X179288548Y-75829598D01*
X179241403Y-75854797D01*
X179192007Y-75875258D01*
X179147552Y-75904962D01*
X179100406Y-75930162D01*
X179059084Y-75964075D01*
X179014628Y-75993779D01*
X178863779Y-76144628D01*
X178863777Y-76144631D01*
X178619326Y-76389082D01*
X178577999Y-76422998D01*
X178486082Y-76535000D01*
X178442662Y-76587907D01*
X178367602Y-76728334D01*
X178342098Y-76776049D01*
X178284493Y-76965949D01*
X178280171Y-76980196D01*
X178259260Y-77192500D01*
X178264501Y-77245710D01*
X178264500Y-85633907D01*
X177071826Y-86826582D01*
X177030499Y-86860498D01*
X176996584Y-86901824D01*
X176895162Y-87025407D01*
X176794598Y-87213549D01*
X176732671Y-87417696D01*
X176711760Y-87630000D01*
X159508000Y-87630000D01*
X159508000Y-75655754D01*
X187925267Y-75655754D01*
X187950730Y-75837767D01*
X188011211Y-76011315D01*
X188061883Y-76106114D01*
X188269383Y-76104051D01*
X188755934Y-75617500D01*
X188968066Y-75617500D01*
X189779500Y-76428934D01*
X190590934Y-75617500D01*
X190803066Y-75617500D01*
X191614500Y-76428934D01*
X192425934Y-75617500D01*
X192638066Y-75617500D01*
X193124617Y-76104051D01*
X193332117Y-76106114D01*
X193412067Y-75940630D01*
X193458197Y-75762728D01*
X193468733Y-75579246D01*
X193443270Y-75397233D01*
X193382789Y-75223685D01*
X193332117Y-75128886D01*
X193124617Y-75130949D01*
X192638066Y-75617500D01*
X192425934Y-75617500D01*
X191614500Y-74806066D01*
X190803066Y-75617500D01*
X190590934Y-75617500D01*
X189779500Y-74806066D01*
X188968066Y-75617500D01*
X188755934Y-75617500D01*
X188269383Y-75130949D01*
X188061883Y-75128886D01*
X187981933Y-75294370D01*
X187935803Y-75472272D01*
X187925267Y-75655754D01*
X159508000Y-75655754D01*
X159508000Y-68414239D01*
X160877000Y-68414239D01*
X160877000Y-68745761D01*
X160941677Y-69070913D01*
X161068545Y-69377199D01*
X161252729Y-69652850D01*
X161449879Y-69850000D01*
X161252729Y-70047150D01*
X161068545Y-70322801D01*
X160941677Y-70629087D01*
X160877000Y-70954239D01*
X160877000Y-71285761D01*
X160941677Y-71610913D01*
X161068545Y-71917199D01*
X161252729Y-72192850D01*
X161487150Y-72427271D01*
X161762801Y-72611455D01*
X162069087Y-72738323D01*
X162394239Y-72803000D01*
X162725761Y-72803000D01*
X163050913Y-72738323D01*
X163357199Y-72611455D01*
X163632850Y-72427271D01*
X163857121Y-72203000D01*
X164651408Y-72203000D01*
X166201581Y-73753174D01*
X166235498Y-73794502D01*
X166400406Y-73929838D01*
X166588549Y-74030403D01*
X166792695Y-74092330D01*
X166951797Y-74108000D01*
X166951799Y-74108000D01*
X167005000Y-74113240D01*
X167058200Y-74108000D01*
X189075774Y-74108000D01*
X189181166Y-74213392D01*
X188979383Y-74211386D01*
X188899433Y-74376870D01*
X188853303Y-74554772D01*
X188845995Y-74682045D01*
X188823746Y-74680767D01*
X188641733Y-74706230D01*
X188468185Y-74766711D01*
X188373386Y-74817383D01*
X188375449Y-75024883D01*
X188862000Y-75511434D01*
X189673434Y-74700000D01*
X189656464Y-74683030D01*
X189762530Y-74576964D01*
X189779500Y-74593934D01*
X189796471Y-74576964D01*
X189902537Y-74683030D01*
X189885566Y-74700000D01*
X190697000Y-75511434D01*
X191508434Y-74700000D01*
X191491464Y-74683030D01*
X191597530Y-74576964D01*
X191614500Y-74593934D01*
X191631471Y-74576964D01*
X191737537Y-74683030D01*
X191720566Y-74700000D01*
X192532000Y-75511434D01*
X193018551Y-75024883D01*
X193020614Y-74817383D01*
X192855130Y-74737433D01*
X192677228Y-74691303D01*
X192549955Y-74683995D01*
X192551233Y-74661746D01*
X192525770Y-74479733D01*
X192465289Y-74306185D01*
X192414617Y-74211386D01*
X192212834Y-74213392D01*
X192318226Y-74108000D01*
X194496408Y-74108000D01*
X196501581Y-76113174D01*
X196535498Y-76154502D01*
X196700406Y-76289838D01*
X196888549Y-76390403D01*
X197092695Y-76452330D01*
X197251797Y-76468000D01*
X197251799Y-76468000D01*
X197304999Y-76473240D01*
X197358200Y-76468000D01*
X202094625Y-76468000D01*
X202122101Y-76479381D01*
X202331334Y-76521000D01*
X202544666Y-76521000D01*
X202753899Y-76479381D01*
X202950993Y-76397742D01*
X203128372Y-76279221D01*
X203279221Y-76128372D01*
X203397742Y-75950993D01*
X203479381Y-75753899D01*
X203521000Y-75544666D01*
X203521000Y-75331334D01*
X203479381Y-75122101D01*
X203397742Y-74925007D01*
X203279221Y-74747628D01*
X203188416Y-74656823D01*
X203154502Y-74615498D01*
X202989594Y-74480162D01*
X202801451Y-74379597D01*
X202597305Y-74317670D01*
X202438203Y-74302000D01*
X197753593Y-74302000D01*
X196109592Y-72658000D01*
X201421800Y-72658000D01*
X201475000Y-72663240D01*
X201528200Y-72658000D01*
X201528203Y-72658000D01*
X201687305Y-72642330D01*
X201891451Y-72580403D01*
X202079594Y-72479838D01*
X202244502Y-72344502D01*
X202278423Y-72303169D01*
X202611592Y-71970000D01*
X205473695Y-71970000D01*
X205486882Y-72103891D01*
X205525937Y-72232638D01*
X205589358Y-72351291D01*
X205674709Y-72455291D01*
X205778709Y-72540642D01*
X205897362Y-72604063D01*
X206026109Y-72643118D01*
X206160000Y-72656305D01*
X206760250Y-72653000D01*
X206931000Y-72482250D01*
X206931000Y-71199000D01*
X207089000Y-71199000D01*
X207089000Y-72482250D01*
X207259750Y-72653000D01*
X207860000Y-72656305D01*
X207993891Y-72643118D01*
X208122638Y-72604063D01*
X208241291Y-72540642D01*
X208345291Y-72455291D01*
X208430642Y-72351291D01*
X208494063Y-72232638D01*
X208533118Y-72103891D01*
X208546305Y-71970000D01*
X208543000Y-71369750D01*
X208372250Y-71199000D01*
X207089000Y-71199000D01*
X206931000Y-71199000D01*
X205647750Y-71199000D01*
X205477000Y-71369750D01*
X205473695Y-71970000D01*
X202611592Y-71970000D01*
X204003416Y-70578177D01*
X204041221Y-70540372D01*
X204070922Y-70495922D01*
X204104838Y-70454595D01*
X204130041Y-70407444D01*
X204159742Y-70362993D01*
X204180201Y-70313601D01*
X204205402Y-70266453D01*
X204220920Y-70215295D01*
X204241381Y-70165899D01*
X204251812Y-70113457D01*
X204267329Y-70062305D01*
X204272568Y-70009110D01*
X204283000Y-69956666D01*
X204283000Y-69903194D01*
X204288239Y-69850001D01*
X204283000Y-69796808D01*
X204283000Y-69743334D01*
X204272568Y-69690889D01*
X204267329Y-69637696D01*
X204251813Y-69586547D01*
X204241381Y-69534101D01*
X204220918Y-69484700D01*
X204205402Y-69433549D01*
X204180204Y-69386408D01*
X204159742Y-69337007D01*
X204130035Y-69292548D01*
X204104838Y-69245407D01*
X204070928Y-69204088D01*
X204041221Y-69159628D01*
X204003410Y-69121817D01*
X203969501Y-69080499D01*
X203928183Y-69046590D01*
X203890372Y-69008779D01*
X203845912Y-68979072D01*
X203804593Y-68945162D01*
X203757452Y-68919965D01*
X203712993Y-68890258D01*
X203663592Y-68869796D01*
X203616451Y-68844598D01*
X203565300Y-68829082D01*
X203515899Y-68808619D01*
X203463453Y-68798187D01*
X203412304Y-68782671D01*
X203359111Y-68777432D01*
X203306666Y-68767000D01*
X203253192Y-68767000D01*
X203199999Y-68761761D01*
X203146806Y-68767000D01*
X203093334Y-68767000D01*
X203040890Y-68777432D01*
X202987695Y-68782671D01*
X202936543Y-68798188D01*
X202884101Y-68808619D01*
X202834705Y-68829080D01*
X202783547Y-68844598D01*
X202736399Y-68869799D01*
X202687007Y-68890258D01*
X202642556Y-68919959D01*
X202595405Y-68945162D01*
X202554078Y-68979078D01*
X202509628Y-69008779D01*
X202471823Y-69046584D01*
X201026408Y-70492000D01*
X167908594Y-70492000D01*
X165268423Y-67851831D01*
X165234502Y-67810498D01*
X165069594Y-67675162D01*
X164881451Y-67574597D01*
X164677305Y-67512670D01*
X164518203Y-67497000D01*
X164518200Y-67497000D01*
X164465000Y-67491760D01*
X164411800Y-67497000D01*
X163857121Y-67497000D01*
X163632850Y-67272729D01*
X163560575Y-67224436D01*
X163577766Y-67169489D01*
X162560000Y-66151723D01*
X161542234Y-67169489D01*
X161559425Y-67224436D01*
X161487150Y-67272729D01*
X161252729Y-67507150D01*
X161068545Y-67782801D01*
X160941677Y-68089087D01*
X160877000Y-68414239D01*
X159508000Y-68414239D01*
X159508000Y-66052618D01*
X160868904Y-66052618D01*
X160903860Y-66382292D01*
X161002459Y-66698812D01*
X161146894Y-66969032D01*
X161430511Y-67057766D01*
X162448277Y-66040000D01*
X162671723Y-66040000D01*
X163689489Y-67057766D01*
X163973106Y-66969032D01*
X164127198Y-66675497D01*
X164221064Y-66357541D01*
X164251096Y-66027382D01*
X164216140Y-65697708D01*
X164117541Y-65381188D01*
X163973106Y-65110968D01*
X163689489Y-65022234D01*
X162671723Y-66040000D01*
X162448277Y-66040000D01*
X161430511Y-65022234D01*
X161146894Y-65110968D01*
X160992802Y-65404503D01*
X160898936Y-65722459D01*
X160868904Y-66052618D01*
X159508000Y-66052618D01*
X159508000Y-63334239D01*
X160877000Y-63334239D01*
X160877000Y-63665761D01*
X160941677Y-63990913D01*
X161068545Y-64297199D01*
X161252729Y-64572850D01*
X161487150Y-64807271D01*
X161559425Y-64855564D01*
X161542234Y-64910511D01*
X162560000Y-65928277D01*
X163577766Y-64910511D01*
X163560575Y-64855564D01*
X163632850Y-64807271D01*
X163857121Y-64583000D01*
X164651408Y-64583000D01*
X167471582Y-67403174D01*
X167505498Y-67444502D01*
X167569467Y-67497000D01*
X167670405Y-67579838D01*
X167770970Y-67633591D01*
X167858549Y-67680403D01*
X168062695Y-67742330D01*
X168221797Y-67758000D01*
X168221799Y-67758000D01*
X168274999Y-67763240D01*
X168328200Y-67758000D01*
X176255666Y-67758000D01*
X176308101Y-67747570D01*
X176361305Y-67742330D01*
X176412465Y-67726811D01*
X176464899Y-67716381D01*
X176514291Y-67695922D01*
X176565451Y-67680403D01*
X176612600Y-67655201D01*
X176661993Y-67634742D01*
X176706447Y-67605039D01*
X176753594Y-67579838D01*
X176794919Y-67545924D01*
X176839372Y-67516221D01*
X176877175Y-67478418D01*
X176918502Y-67444502D01*
X176952418Y-67403175D01*
X176990221Y-67365372D01*
X177019924Y-67320919D01*
X177053838Y-67279594D01*
X177079039Y-67232447D01*
X177108742Y-67187993D01*
X177129201Y-67138600D01*
X177154403Y-67091451D01*
X177169922Y-67040291D01*
X177190381Y-66990899D01*
X177200811Y-66938465D01*
X177216330Y-66887305D01*
X177221570Y-66834101D01*
X177232000Y-66781666D01*
X177232000Y-66728203D01*
X177237240Y-66675000D01*
X177232000Y-66621797D01*
X177232000Y-66568334D01*
X177221570Y-66515899D01*
X177216330Y-66462695D01*
X177200811Y-66411535D01*
X177190381Y-66359101D01*
X177169922Y-66309709D01*
X177154403Y-66258549D01*
X177129201Y-66211400D01*
X177108742Y-66162007D01*
X177079039Y-66117553D01*
X177053838Y-66070406D01*
X177019924Y-66029081D01*
X176990221Y-65984628D01*
X176952416Y-65946823D01*
X176918502Y-65905498D01*
X176877175Y-65871582D01*
X176839372Y-65833779D01*
X176794919Y-65804076D01*
X176753594Y-65770162D01*
X176706447Y-65744961D01*
X176661993Y-65715258D01*
X176612600Y-65694799D01*
X176565451Y-65669597D01*
X176514291Y-65654078D01*
X176464899Y-65633619D01*
X176412465Y-65623189D01*
X176361305Y-65607670D01*
X176308101Y-65602430D01*
X176255666Y-65592000D01*
X168723593Y-65592000D01*
X165903423Y-62771831D01*
X165869502Y-62730498D01*
X165704594Y-62595162D01*
X165516451Y-62494597D01*
X165312305Y-62432670D01*
X165153203Y-62417000D01*
X165153200Y-62417000D01*
X165100000Y-62411760D01*
X165046800Y-62417000D01*
X163857121Y-62417000D01*
X163632850Y-62192729D01*
X163357199Y-62008545D01*
X163050913Y-61881677D01*
X162725761Y-61817000D01*
X162394239Y-61817000D01*
X162069087Y-61881677D01*
X161762801Y-62008545D01*
X161487150Y-62192729D01*
X161252729Y-62427150D01*
X161068545Y-62702801D01*
X160941677Y-63009087D01*
X160877000Y-63334239D01*
X159508000Y-63334239D01*
X159508000Y-59865000D01*
X176432211Y-59865000D01*
X181460960Y-68036717D01*
G04 #@! TA.AperFunction,Conductor*
D21*
G36*
X181460960Y-68036717D02*
G01*
X181481717Y-68064031D01*
X181507403Y-68086771D01*
X181537033Y-68104062D01*
X181569466Y-68115241D01*
X181610000Y-68120000D01*
X201930000Y-68120000D01*
X201964141Y-68116637D01*
X201996970Y-68106679D01*
X202027225Y-68090507D01*
X202053744Y-68068744D01*
X202073884Y-68044612D01*
X205545126Y-63030595D01*
X205535912Y-63052840D01*
X205477000Y-63349013D01*
X205477000Y-63650987D01*
X205535912Y-63947160D01*
X205651473Y-64226148D01*
X205819241Y-64477231D01*
X206032769Y-64690759D01*
X206151362Y-64770000D01*
X206032769Y-64849241D01*
X205819241Y-65062769D01*
X205651473Y-65313852D01*
X205535912Y-65592840D01*
X205477000Y-65889013D01*
X205477000Y-66190987D01*
X205535912Y-66487160D01*
X205651473Y-66766148D01*
X205819241Y-67017231D01*
X206032769Y-67230759D01*
X206151362Y-67310000D01*
X206032769Y-67389241D01*
X205819241Y-67602769D01*
X205651473Y-67853852D01*
X205535912Y-68132840D01*
X205477000Y-68429013D01*
X205477000Y-68730987D01*
X205535912Y-69027160D01*
X205651473Y-69306148D01*
X205819241Y-69557231D01*
X205897811Y-69635801D01*
X205897362Y-69635937D01*
X205778709Y-69699358D01*
X205674709Y-69784709D01*
X205589358Y-69888709D01*
X205525937Y-70007362D01*
X205486882Y-70136109D01*
X205473695Y-70270000D01*
X205477000Y-70870250D01*
X205647750Y-71041000D01*
X206931000Y-71041000D01*
X206931000Y-71021000D01*
X207089000Y-71021000D01*
X207089000Y-71041000D01*
X208372250Y-71041000D01*
X208543000Y-70870250D01*
X208546305Y-70270000D01*
X208533118Y-70136109D01*
X208494063Y-70007362D01*
X208430642Y-69888709D01*
X208345291Y-69784709D01*
X208241291Y-69699358D01*
X208122638Y-69635937D01*
X208122189Y-69635801D01*
X208200759Y-69557231D01*
X208368527Y-69306148D01*
X208484088Y-69027160D01*
X208543000Y-68730987D01*
X208543000Y-68429013D01*
X208484088Y-68132840D01*
X208368527Y-67853852D01*
X208200759Y-67602769D01*
X207987231Y-67389241D01*
X207868638Y-67310000D01*
X207987231Y-67230759D01*
X208200759Y-67017231D01*
X208368527Y-66766148D01*
X208484088Y-66487160D01*
X208543000Y-66190987D01*
X208543000Y-65889013D01*
X208484088Y-65592840D01*
X208368527Y-65313852D01*
X208200759Y-65062769D01*
X207987231Y-64849241D01*
X207868638Y-64770000D01*
X207987231Y-64690759D01*
X208200759Y-64477231D01*
X208368527Y-64226148D01*
X208484088Y-63947160D01*
X208543000Y-63650987D01*
X208543000Y-63349013D01*
X208484088Y-63052840D01*
X208368527Y-62773852D01*
X208200759Y-62522769D01*
X207987231Y-62309241D01*
X207736148Y-62141473D01*
X207457160Y-62025912D01*
X207160987Y-61967000D01*
X206859013Y-61967000D01*
X206562840Y-62025912D01*
X206283852Y-62141473D01*
X206054645Y-62294624D01*
X207736692Y-59865000D01*
X211967001Y-59865000D01*
X211967001Y-60287768D01*
X211967000Y-99657768D01*
X211967000Y-99657769D01*
X211967001Y-100842000D01*
X159508000Y-100842000D01*
X159508000Y-89860153D01*
X159556400Y-89880201D01*
X159603549Y-89905403D01*
X159654709Y-89920922D01*
X159704101Y-89941381D01*
X159756535Y-89951811D01*
X159807695Y-89967330D01*
X159860899Y-89972570D01*
X159913334Y-89983000D01*
X162746408Y-89983000D01*
X170101583Y-97338176D01*
X170135499Y-97379503D01*
X170300407Y-97514839D01*
X170488550Y-97615404D01*
X170692696Y-97677331D01*
X170851798Y-97693001D01*
X170851800Y-97693001D01*
X170905001Y-97698241D01*
X170958201Y-97693001D01*
X194801799Y-97693001D01*
X194854999Y-97698241D01*
X194908199Y-97693001D01*
X194908202Y-97693001D01*
X195067304Y-97677331D01*
X195271450Y-97615404D01*
X195459593Y-97514839D01*
X195624501Y-97379503D01*
X195658422Y-97338170D01*
X196838887Y-96157706D01*
X196892710Y-96223290D01*
X196996710Y-96308641D01*
X197115363Y-96372062D01*
X197244109Y-96411117D01*
X197378000Y-96424304D01*
X199878000Y-96424304D01*
X200011891Y-96411117D01*
X200140637Y-96372062D01*
X200259290Y-96308641D01*
X200363290Y-96223290D01*
X200448641Y-96119290D01*
X200512062Y-96000637D01*
X200551117Y-95871891D01*
X200564304Y-95738000D01*
X200564304Y-95719239D01*
X202787000Y-95719239D01*
X202787000Y-96050761D01*
X202851677Y-96375913D01*
X202978545Y-96682199D01*
X203162729Y-96957850D01*
X203397150Y-97192271D01*
X203672801Y-97376455D01*
X203979087Y-97503323D01*
X204304239Y-97568000D01*
X204635761Y-97568000D01*
X204960913Y-97503323D01*
X205267199Y-97376455D01*
X205542850Y-97192271D01*
X205740000Y-96995121D01*
X205937150Y-97192271D01*
X206212801Y-97376455D01*
X206519087Y-97503323D01*
X206844239Y-97568000D01*
X207175761Y-97568000D01*
X207500913Y-97503323D01*
X207807199Y-97376455D01*
X208082850Y-97192271D01*
X208317271Y-96957850D01*
X208501455Y-96682199D01*
X208628323Y-96375913D01*
X208693000Y-96050761D01*
X208693000Y-95719239D01*
X208628323Y-95394087D01*
X208501455Y-95087801D01*
X208317271Y-94812150D01*
X208082850Y-94577729D01*
X207807199Y-94393545D01*
X207500913Y-94266677D01*
X207175761Y-94202000D01*
X206844239Y-94202000D01*
X206519087Y-94266677D01*
X206212801Y-94393545D01*
X205937150Y-94577729D01*
X205740000Y-94774879D01*
X205542850Y-94577729D01*
X205267199Y-94393545D01*
X204960913Y-94266677D01*
X204635761Y-94202000D01*
X204304239Y-94202000D01*
X203979087Y-94266677D01*
X203672801Y-94393545D01*
X203397150Y-94577729D01*
X203162729Y-94812150D01*
X202978545Y-95087801D01*
X202851677Y-95394087D01*
X202787000Y-95719239D01*
X200564304Y-95719239D01*
X200564304Y-93238000D01*
X200551117Y-93104109D01*
X200512062Y-92975363D01*
X200448641Y-92856710D01*
X200363290Y-92752710D01*
X200259290Y-92667359D01*
X200140637Y-92603938D01*
X200011891Y-92564883D01*
X199878000Y-92551696D01*
X198040899Y-92551696D01*
X200753180Y-89839416D01*
X200794502Y-89805504D01*
X200828414Y-89764182D01*
X200828417Y-89764179D01*
X200929838Y-89640596D01*
X201025726Y-89461203D01*
X201030403Y-89452453D01*
X201041839Y-89414753D01*
X204638417Y-85818177D01*
X204638422Y-85818171D01*
X204676221Y-85780372D01*
X204705923Y-85735920D01*
X204739838Y-85694594D01*
X204765038Y-85647448D01*
X204794742Y-85602993D01*
X204815203Y-85553597D01*
X204840402Y-85506452D01*
X204855919Y-85455298D01*
X204876381Y-85405899D01*
X204886812Y-85353456D01*
X204902329Y-85302305D01*
X204907569Y-85249108D01*
X204918000Y-85196666D01*
X204918000Y-85143201D01*
X204923240Y-85090000D01*
X204918000Y-85036800D01*
X204918000Y-84983334D01*
X204907568Y-84930891D01*
X204902329Y-84877696D01*
X204886813Y-84826546D01*
X204876381Y-84774101D01*
X204855919Y-84724702D01*
X204840402Y-84673548D01*
X204815203Y-84626403D01*
X204794742Y-84577007D01*
X204765038Y-84532552D01*
X204739838Y-84485406D01*
X204705924Y-84444081D01*
X204676221Y-84399628D01*
X204638418Y-84361825D01*
X204604502Y-84320498D01*
X204563175Y-84286582D01*
X204525372Y-84248779D01*
X204480919Y-84219076D01*
X204439594Y-84185162D01*
X204392448Y-84159962D01*
X204347993Y-84130258D01*
X204298597Y-84109797D01*
X204251452Y-84084598D01*
X204200298Y-84069081D01*
X204150899Y-84048619D01*
X204098454Y-84038187D01*
X204047304Y-84022671D01*
X203994109Y-84017432D01*
X203941666Y-84007000D01*
X203888200Y-84007000D01*
X203835000Y-84001760D01*
X203781799Y-84007000D01*
X203728334Y-84007000D01*
X203675892Y-84017431D01*
X203622695Y-84022671D01*
X203571544Y-84038188D01*
X203519101Y-84048619D01*
X203469702Y-84069081D01*
X203418548Y-84084598D01*
X203371403Y-84109797D01*
X203322007Y-84130258D01*
X203277552Y-84159962D01*
X203230406Y-84185162D01*
X203189080Y-84219077D01*
X203144628Y-84248779D01*
X203106829Y-84286578D01*
X203106823Y-84286583D01*
X199296830Y-88096578D01*
X199255498Y-88130498D01*
X199120162Y-88295406D01*
X199019597Y-88483549D01*
X199008162Y-88521247D01*
X195486826Y-92042584D01*
X195445499Y-92076500D01*
X195310163Y-92241408D01*
X195209598Y-92429551D01*
X195156699Y-92603938D01*
X195147671Y-92633698D01*
X195126760Y-92846002D01*
X195132001Y-92899212D01*
X195132001Y-93367943D01*
X194935328Y-93292395D01*
X193739723Y-94488000D01*
X193753865Y-94502142D01*
X193642142Y-94613865D01*
X193628000Y-94599723D01*
X193613858Y-94613865D01*
X193502135Y-94502142D01*
X193516277Y-94488000D01*
X192320672Y-93292395D01*
X192011468Y-93411170D01*
X191832451Y-93747231D01*
X191722435Y-94111758D01*
X191685648Y-94490745D01*
X191723506Y-94869626D01*
X191834552Y-95233842D01*
X191991248Y-95527001D01*
X188506677Y-95527001D01*
X188656717Y-95484900D01*
X188800837Y-95208379D01*
X188888242Y-94909056D01*
X188915572Y-94598432D01*
X188881777Y-94288446D01*
X188788156Y-93991009D01*
X188656717Y-93745100D01*
X188383334Y-93668389D01*
X187436723Y-94615000D01*
X187450865Y-94629142D01*
X187339142Y-94740865D01*
X187325000Y-94726723D01*
X187310858Y-94740865D01*
X187199135Y-94629142D01*
X187213277Y-94615000D01*
X186266666Y-93668389D01*
X185993283Y-93745100D01*
X185849163Y-94021621D01*
X185761758Y-94320944D01*
X185734428Y-94631568D01*
X185768223Y-94941554D01*
X185861844Y-95238991D01*
X185993283Y-95484900D01*
X186143323Y-95527001D01*
X171353594Y-95527001D01*
X167745681Y-91919088D01*
X185742000Y-91919088D01*
X185742000Y-92230912D01*
X185802834Y-92536744D01*
X185922164Y-92824831D01*
X186095404Y-93084103D01*
X186315897Y-93304596D01*
X186428085Y-93379558D01*
X186378389Y-93556666D01*
X187325000Y-94503277D01*
X188271611Y-93556666D01*
X188221915Y-93379558D01*
X188334103Y-93304596D01*
X188458027Y-93180672D01*
X192432395Y-93180672D01*
X193628000Y-94376277D01*
X194823605Y-93180672D01*
X194704830Y-92871468D01*
X194368769Y-92692451D01*
X194004242Y-92582435D01*
X193625255Y-92545648D01*
X193246374Y-92583506D01*
X192882158Y-92694552D01*
X192551170Y-92871468D01*
X192432395Y-93180672D01*
X188458027Y-93180672D01*
X188554596Y-93084103D01*
X188727836Y-92824831D01*
X188847166Y-92536744D01*
X188908000Y-92230912D01*
X188908000Y-91919088D01*
X188847166Y-91613256D01*
X188727836Y-91325169D01*
X188554596Y-91065897D01*
X188334103Y-90845404D01*
X188074831Y-90672164D01*
X187786744Y-90552834D01*
X187480912Y-90492000D01*
X187169088Y-90492000D01*
X186863256Y-90552834D01*
X186575169Y-90672164D01*
X186315897Y-90845404D01*
X186095404Y-91065897D01*
X185922164Y-91325169D01*
X185802834Y-91613256D01*
X185742000Y-91919088D01*
X167745681Y-91919088D01*
X163998423Y-88171831D01*
X163964502Y-88130498D01*
X163799594Y-87995162D01*
X163611451Y-87894597D01*
X163407305Y-87832670D01*
X163248203Y-87817000D01*
X163248200Y-87817000D01*
X163195000Y-87811760D01*
X163141800Y-87817000D01*
X159913334Y-87817000D01*
X159860899Y-87827430D01*
X159807695Y-87832670D01*
X159756535Y-87848189D01*
X159704101Y-87858619D01*
X159654709Y-87879078D01*
X159603549Y-87894597D01*
X159556400Y-87919799D01*
X159508000Y-87939847D01*
X159508000Y-87630000D01*
X176711760Y-87630000D01*
X176717001Y-87683210D01*
X176717000Y-89428334D01*
X176717000Y-89641666D01*
X176727430Y-89694102D01*
X176732670Y-89747304D01*
X176748189Y-89798462D01*
X176758619Y-89850899D01*
X176779079Y-89900293D01*
X176794597Y-89951450D01*
X176819797Y-89998596D01*
X176840258Y-90047993D01*
X176869962Y-90092448D01*
X176895162Y-90139594D01*
X176929076Y-90180919D01*
X176958779Y-90225372D01*
X176996582Y-90263175D01*
X177030498Y-90304502D01*
X177071825Y-90338418D01*
X177109628Y-90376221D01*
X177154081Y-90405924D01*
X177195406Y-90439838D01*
X177242553Y-90465039D01*
X177287007Y-90494742D01*
X177336400Y-90515201D01*
X177383549Y-90540403D01*
X177434709Y-90555922D01*
X177484101Y-90576381D01*
X177536535Y-90586811D01*
X177587695Y-90602330D01*
X177640899Y-90607570D01*
X177693334Y-90618000D01*
X177746797Y-90618000D01*
X177800000Y-90623240D01*
X177853203Y-90618000D01*
X177906666Y-90618000D01*
X177959101Y-90607570D01*
X178012304Y-90602330D01*
X178063462Y-90586811D01*
X178115899Y-90576381D01*
X178165293Y-90555921D01*
X178216450Y-90540403D01*
X178263596Y-90515203D01*
X178312993Y-90494742D01*
X178357448Y-90465038D01*
X178404594Y-90439838D01*
X178445919Y-90405924D01*
X178490372Y-90376221D01*
X178528175Y-90338418D01*
X178569502Y-90304502D01*
X178603418Y-90263175D01*
X178641221Y-90225372D01*
X178670924Y-90180919D01*
X178704838Y-90139594D01*
X178730039Y-90092447D01*
X178759742Y-90047993D01*
X178780201Y-89998600D01*
X178805403Y-89951451D01*
X178820922Y-89900291D01*
X178841381Y-89850899D01*
X178851811Y-89798465D01*
X178867330Y-89747305D01*
X178872570Y-89694101D01*
X178883000Y-89641666D01*
X178883000Y-89408000D01*
X188903760Y-89408000D01*
X188909000Y-89461202D01*
X188909000Y-89514666D01*
X188919430Y-89567101D01*
X188924670Y-89620305D01*
X188940189Y-89671465D01*
X188950619Y-89723899D01*
X188971078Y-89773291D01*
X188986597Y-89824451D01*
X189011799Y-89871600D01*
X189032258Y-89920993D01*
X189061961Y-89965447D01*
X189087162Y-90012594D01*
X189121076Y-90053919D01*
X189150779Y-90098372D01*
X189188582Y-90136175D01*
X189222498Y-90177502D01*
X189263825Y-90211418D01*
X189301628Y-90249221D01*
X189346081Y-90278924D01*
X189387406Y-90312838D01*
X189434553Y-90338039D01*
X189479007Y-90367742D01*
X189528400Y-90388201D01*
X189575549Y-90413403D01*
X189626709Y-90428922D01*
X189676101Y-90449381D01*
X189728535Y-90459811D01*
X189779695Y-90475330D01*
X189832899Y-90480570D01*
X189885334Y-90491000D01*
X195018797Y-90491000D01*
X195072000Y-90496240D01*
X195125203Y-90491000D01*
X195284305Y-90475330D01*
X195488451Y-90413403D01*
X195676594Y-90312838D01*
X195841502Y-90177502D01*
X195976838Y-90012594D01*
X196077403Y-89824451D01*
X196139330Y-89620305D01*
X196160240Y-89408000D01*
X196155000Y-89354797D01*
X196155000Y-86681592D01*
X206543416Y-76293177D01*
X206581221Y-76255372D01*
X206610922Y-76210922D01*
X206644838Y-76169595D01*
X206670041Y-76122444D01*
X206699742Y-76077993D01*
X206720201Y-76028601D01*
X206745402Y-75981453D01*
X206760920Y-75930295D01*
X206781381Y-75880899D01*
X206791812Y-75828457D01*
X206807329Y-75777305D01*
X206812568Y-75724110D01*
X206823000Y-75671666D01*
X206823000Y-75618194D01*
X206828239Y-75565001D01*
X206823000Y-75511808D01*
X206823000Y-75458334D01*
X206812568Y-75405889D01*
X206807329Y-75352696D01*
X206791813Y-75301547D01*
X206781381Y-75249101D01*
X206760918Y-75199700D01*
X206745402Y-75148549D01*
X206720204Y-75101408D01*
X206699742Y-75052007D01*
X206670035Y-75007548D01*
X206644838Y-74960407D01*
X206610928Y-74919088D01*
X206581221Y-74874628D01*
X206543410Y-74836817D01*
X206509501Y-74795499D01*
X206468183Y-74761590D01*
X206430372Y-74723779D01*
X206385912Y-74694072D01*
X206344593Y-74660162D01*
X206297452Y-74634965D01*
X206252993Y-74605258D01*
X206203592Y-74584796D01*
X206156451Y-74559598D01*
X206105300Y-74544082D01*
X206055899Y-74523619D01*
X206003453Y-74513187D01*
X205952304Y-74497671D01*
X205899111Y-74492432D01*
X205846666Y-74482000D01*
X205793192Y-74482000D01*
X205739999Y-74476761D01*
X205686806Y-74482000D01*
X205633334Y-74482000D01*
X205580890Y-74492432D01*
X205527695Y-74497671D01*
X205476543Y-74513188D01*
X205424101Y-74523619D01*
X205374705Y-74544080D01*
X205323547Y-74559598D01*
X205276399Y-74584799D01*
X205227007Y-74605258D01*
X205182556Y-74634959D01*
X205135405Y-74660162D01*
X205094078Y-74694078D01*
X205049628Y-74723779D01*
X205011823Y-74761584D01*
X194343826Y-85429582D01*
X194302499Y-85463498D01*
X194268584Y-85504824D01*
X194167162Y-85628407D01*
X194066598Y-85816549D01*
X194004671Y-86020696D01*
X193983760Y-86233000D01*
X193989001Y-86286210D01*
X193989000Y-88325000D01*
X189885334Y-88325000D01*
X189832899Y-88335430D01*
X189779695Y-88340670D01*
X189728535Y-88356189D01*
X189676101Y-88366619D01*
X189626709Y-88387078D01*
X189575549Y-88402597D01*
X189528400Y-88427799D01*
X189479007Y-88448258D01*
X189434553Y-88477961D01*
X189387406Y-88503162D01*
X189346081Y-88537076D01*
X189301628Y-88566779D01*
X189263825Y-88604582D01*
X189222498Y-88638498D01*
X189188582Y-88679825D01*
X189150779Y-88717628D01*
X189121076Y-88762081D01*
X189087162Y-88803406D01*
X189061961Y-88850553D01*
X189032258Y-88895007D01*
X189011799Y-88944400D01*
X188986597Y-88991549D01*
X188971078Y-89042709D01*
X188950619Y-89092101D01*
X188940189Y-89144535D01*
X188924670Y-89195695D01*
X188919430Y-89248899D01*
X188909000Y-89301334D01*
X188909000Y-89354797D01*
X188903760Y-89408000D01*
X178883000Y-89408000D01*
X178883000Y-88078592D01*
X180075674Y-86885919D01*
X180117002Y-86852002D01*
X180221097Y-86725162D01*
X180252338Y-86687095D01*
X180352902Y-86498953D01*
X180352903Y-86498950D01*
X180414830Y-86294805D01*
X180430500Y-86135703D01*
X180430500Y-86135694D01*
X180435739Y-86082501D01*
X180430500Y-86029308D01*
X180430500Y-79170117D01*
X189290886Y-79170117D01*
X189456370Y-79250067D01*
X189634272Y-79296197D01*
X189817754Y-79306733D01*
X189999767Y-79281270D01*
X190173315Y-79220789D01*
X190268114Y-79170117D01*
X191125886Y-79170117D01*
X191291370Y-79250067D01*
X191469272Y-79296197D01*
X191652754Y-79306733D01*
X191834767Y-79281270D01*
X192008315Y-79220789D01*
X192103114Y-79170117D01*
X192101051Y-78962617D01*
X191614500Y-78476066D01*
X191127949Y-78962617D01*
X191125886Y-79170117D01*
X190268114Y-79170117D01*
X190266051Y-78962617D01*
X189779500Y-78476066D01*
X189292949Y-78962617D01*
X189290886Y-79170117D01*
X180430500Y-79170117D01*
X180430500Y-78252617D01*
X188373386Y-78252617D01*
X188538870Y-78332567D01*
X188716772Y-78378697D01*
X188844045Y-78386005D01*
X188842767Y-78408254D01*
X188868230Y-78590267D01*
X188928711Y-78763815D01*
X188979383Y-78858614D01*
X189186883Y-78856551D01*
X189673434Y-78370000D01*
X189885566Y-78370000D01*
X190372117Y-78856551D01*
X190579617Y-78858614D01*
X190659567Y-78693130D01*
X190697276Y-78547705D01*
X190703230Y-78590267D01*
X190763711Y-78763815D01*
X190814383Y-78858614D01*
X191021883Y-78856551D01*
X191508434Y-78370000D01*
X191720566Y-78370000D01*
X192207117Y-78856551D01*
X192414617Y-78858614D01*
X192494567Y-78693130D01*
X192540697Y-78515228D01*
X192548005Y-78387955D01*
X192570254Y-78389233D01*
X192752267Y-78363770D01*
X192925815Y-78303289D01*
X193020614Y-78252617D01*
X193018551Y-78045117D01*
X192532000Y-77558566D01*
X191720566Y-78370000D01*
X191508434Y-78370000D01*
X190697000Y-77558566D01*
X189885566Y-78370000D01*
X189673434Y-78370000D01*
X188862000Y-77558566D01*
X188375449Y-78045117D01*
X188373386Y-78252617D01*
X180430500Y-78252617D01*
X180430500Y-77641093D01*
X180546221Y-77525372D01*
X180569351Y-77490754D01*
X187925267Y-77490754D01*
X187950730Y-77672767D01*
X188011211Y-77846315D01*
X188061883Y-77941114D01*
X188269383Y-77939051D01*
X188755934Y-77452500D01*
X188968066Y-77452500D01*
X189779500Y-78263934D01*
X190590934Y-77452500D01*
X190803066Y-77452500D01*
X191614500Y-78263934D01*
X192425934Y-77452500D01*
X192638066Y-77452500D01*
X193124617Y-77939051D01*
X193332117Y-77941114D01*
X193412067Y-77775630D01*
X193458197Y-77597728D01*
X193468733Y-77414246D01*
X193443270Y-77232233D01*
X193382789Y-77058685D01*
X193332117Y-76963886D01*
X193124617Y-76965949D01*
X192638066Y-77452500D01*
X192425934Y-77452500D01*
X191614500Y-76641066D01*
X190803066Y-77452500D01*
X190590934Y-77452500D01*
X189779500Y-76641066D01*
X188968066Y-77452500D01*
X188755934Y-77452500D01*
X188269383Y-76965949D01*
X188061883Y-76963886D01*
X187981933Y-77129370D01*
X187935803Y-77307272D01*
X187925267Y-77490754D01*
X180569351Y-77490754D01*
X180575925Y-77480916D01*
X180609838Y-77439594D01*
X180635038Y-77392448D01*
X180664742Y-77347993D01*
X180685203Y-77298597D01*
X180710402Y-77251452D01*
X180725919Y-77200298D01*
X180746381Y-77150899D01*
X180756812Y-77098456D01*
X180772329Y-77047305D01*
X180777568Y-76994110D01*
X180788000Y-76941666D01*
X180788000Y-76888194D01*
X180793239Y-76835001D01*
X180788000Y-76781808D01*
X180788000Y-76728334D01*
X180777568Y-76675889D01*
X180772329Y-76622696D01*
X180756813Y-76571547D01*
X180746381Y-76519101D01*
X180725918Y-76469700D01*
X180710402Y-76418549D01*
X180709904Y-76417617D01*
X188373386Y-76417617D01*
X188538870Y-76497567D01*
X188684295Y-76535276D01*
X188641733Y-76541230D01*
X188468185Y-76601711D01*
X188373386Y-76652383D01*
X188375449Y-76859883D01*
X188862000Y-77346434D01*
X189673434Y-76535000D01*
X189885566Y-76535000D01*
X190697000Y-77346434D01*
X191508434Y-76535000D01*
X191720566Y-76535000D01*
X192532000Y-77346434D01*
X193018551Y-76859883D01*
X193020614Y-76652383D01*
X192855130Y-76572433D01*
X192709705Y-76534724D01*
X192752267Y-76528770D01*
X192925815Y-76468289D01*
X193020614Y-76417617D01*
X193018551Y-76210117D01*
X192532000Y-75723566D01*
X191720566Y-76535000D01*
X191508434Y-76535000D01*
X190697000Y-75723566D01*
X189885566Y-76535000D01*
X189673434Y-76535000D01*
X188862000Y-75723566D01*
X188375449Y-76210117D01*
X188373386Y-76417617D01*
X180709904Y-76417617D01*
X180685204Y-76371408D01*
X180664742Y-76322007D01*
X180635035Y-76277548D01*
X180609838Y-76230407D01*
X180575928Y-76189088D01*
X180546221Y-76144628D01*
X180508410Y-76106817D01*
X180474501Y-76065499D01*
X180433183Y-76031590D01*
X180395372Y-75993779D01*
X180350912Y-75964072D01*
X180309593Y-75930162D01*
X180262452Y-75904965D01*
X180217993Y-75875258D01*
X180168592Y-75854796D01*
X180121451Y-75829598D01*
X180070300Y-75814082D01*
X180020899Y-75793619D01*
X179968453Y-75783187D01*
X179917304Y-75767671D01*
X179864111Y-75762432D01*
X179811666Y-75752000D01*
X179758192Y-75752000D01*
X179704999Y-75746761D01*
X179651806Y-75752000D01*
X179598334Y-75752000D01*
X179545890Y-75762432D01*
X179492695Y-75767671D01*
X179441544Y-75783188D01*
X179389101Y-75793619D01*
X179339702Y-75814081D01*
X179288548Y-75829598D01*
X179241403Y-75854797D01*
X179192007Y-75875258D01*
X179147552Y-75904962D01*
X179100406Y-75930162D01*
X179059084Y-75964075D01*
X179014628Y-75993779D01*
X178863779Y-76144628D01*
X178863777Y-76144631D01*
X178619326Y-76389082D01*
X178577999Y-76422998D01*
X178486082Y-76535000D01*
X178442662Y-76587907D01*
X178367602Y-76728334D01*
X178342098Y-76776049D01*
X178284493Y-76965949D01*
X178280171Y-76980196D01*
X178259260Y-77192500D01*
X178264501Y-77245710D01*
X178264500Y-85633907D01*
X177071826Y-86826582D01*
X177030499Y-86860498D01*
X176996584Y-86901824D01*
X176895162Y-87025407D01*
X176794598Y-87213549D01*
X176732671Y-87417696D01*
X176711760Y-87630000D01*
X159508000Y-87630000D01*
X159508000Y-75655754D01*
X187925267Y-75655754D01*
X187950730Y-75837767D01*
X188011211Y-76011315D01*
X188061883Y-76106114D01*
X188269383Y-76104051D01*
X188755934Y-75617500D01*
X188968066Y-75617500D01*
X189779500Y-76428934D01*
X190590934Y-75617500D01*
X190803066Y-75617500D01*
X191614500Y-76428934D01*
X192425934Y-75617500D01*
X192638066Y-75617500D01*
X193124617Y-76104051D01*
X193332117Y-76106114D01*
X193412067Y-75940630D01*
X193458197Y-75762728D01*
X193468733Y-75579246D01*
X193443270Y-75397233D01*
X193382789Y-75223685D01*
X193332117Y-75128886D01*
X193124617Y-75130949D01*
X192638066Y-75617500D01*
X192425934Y-75617500D01*
X191614500Y-74806066D01*
X190803066Y-75617500D01*
X190590934Y-75617500D01*
X189779500Y-74806066D01*
X188968066Y-75617500D01*
X188755934Y-75617500D01*
X188269383Y-75130949D01*
X188061883Y-75128886D01*
X187981933Y-75294370D01*
X187935803Y-75472272D01*
X187925267Y-75655754D01*
X159508000Y-75655754D01*
X159508000Y-68414239D01*
X160877000Y-68414239D01*
X160877000Y-68745761D01*
X160941677Y-69070913D01*
X161068545Y-69377199D01*
X161252729Y-69652850D01*
X161449879Y-69850000D01*
X161252729Y-70047150D01*
X161068545Y-70322801D01*
X160941677Y-70629087D01*
X160877000Y-70954239D01*
X160877000Y-71285761D01*
X160941677Y-71610913D01*
X161068545Y-71917199D01*
X161252729Y-72192850D01*
X161487150Y-72427271D01*
X161762801Y-72611455D01*
X162069087Y-72738323D01*
X162394239Y-72803000D01*
X162725761Y-72803000D01*
X163050913Y-72738323D01*
X163357199Y-72611455D01*
X163632850Y-72427271D01*
X163857121Y-72203000D01*
X164651408Y-72203000D01*
X166201581Y-73753174D01*
X166235498Y-73794502D01*
X166400406Y-73929838D01*
X166588549Y-74030403D01*
X166792695Y-74092330D01*
X166951797Y-74108000D01*
X166951799Y-74108000D01*
X167005000Y-74113240D01*
X167058200Y-74108000D01*
X189075774Y-74108000D01*
X189181166Y-74213392D01*
X188979383Y-74211386D01*
X188899433Y-74376870D01*
X188853303Y-74554772D01*
X188845995Y-74682045D01*
X188823746Y-74680767D01*
X188641733Y-74706230D01*
X188468185Y-74766711D01*
X188373386Y-74817383D01*
X188375449Y-75024883D01*
X188862000Y-75511434D01*
X189673434Y-74700000D01*
X189656464Y-74683030D01*
X189762530Y-74576964D01*
X189779500Y-74593934D01*
X189796471Y-74576964D01*
X189902537Y-74683030D01*
X189885566Y-74700000D01*
X190697000Y-75511434D01*
X191508434Y-74700000D01*
X191491464Y-74683030D01*
X191597530Y-74576964D01*
X191614500Y-74593934D01*
X191631471Y-74576964D01*
X191737537Y-74683030D01*
X191720566Y-74700000D01*
X192532000Y-75511434D01*
X193018551Y-75024883D01*
X193020614Y-74817383D01*
X192855130Y-74737433D01*
X192677228Y-74691303D01*
X192549955Y-74683995D01*
X192551233Y-74661746D01*
X192525770Y-74479733D01*
X192465289Y-74306185D01*
X192414617Y-74211386D01*
X192212834Y-74213392D01*
X192318226Y-74108000D01*
X194496408Y-74108000D01*
X196501581Y-76113174D01*
X196535498Y-76154502D01*
X196700406Y-76289838D01*
X196888549Y-76390403D01*
X197092695Y-76452330D01*
X197251797Y-76468000D01*
X197251799Y-76468000D01*
X197304999Y-76473240D01*
X197358200Y-76468000D01*
X202094625Y-76468000D01*
X202122101Y-76479381D01*
X202331334Y-76521000D01*
X202544666Y-76521000D01*
X202753899Y-76479381D01*
X202950993Y-76397742D01*
X203128372Y-76279221D01*
X203279221Y-76128372D01*
X203397742Y-75950993D01*
X203479381Y-75753899D01*
X203521000Y-75544666D01*
X203521000Y-75331334D01*
X203479381Y-75122101D01*
X203397742Y-74925007D01*
X203279221Y-74747628D01*
X203188416Y-74656823D01*
X203154502Y-74615498D01*
X202989594Y-74480162D01*
X202801451Y-74379597D01*
X202597305Y-74317670D01*
X202438203Y-74302000D01*
X197753593Y-74302000D01*
X196109592Y-72658000D01*
X201421800Y-72658000D01*
X201475000Y-72663240D01*
X201528200Y-72658000D01*
X201528203Y-72658000D01*
X201687305Y-72642330D01*
X201891451Y-72580403D01*
X202079594Y-72479838D01*
X202244502Y-72344502D01*
X202278423Y-72303169D01*
X202611592Y-71970000D01*
X205473695Y-71970000D01*
X205486882Y-72103891D01*
X205525937Y-72232638D01*
X205589358Y-72351291D01*
X205674709Y-72455291D01*
X205778709Y-72540642D01*
X205897362Y-72604063D01*
X206026109Y-72643118D01*
X206160000Y-72656305D01*
X206760250Y-72653000D01*
X206931000Y-72482250D01*
X206931000Y-71199000D01*
X207089000Y-71199000D01*
X207089000Y-72482250D01*
X207259750Y-72653000D01*
X207860000Y-72656305D01*
X207993891Y-72643118D01*
X208122638Y-72604063D01*
X208241291Y-72540642D01*
X208345291Y-72455291D01*
X208430642Y-72351291D01*
X208494063Y-72232638D01*
X208533118Y-72103891D01*
X208546305Y-71970000D01*
X208543000Y-71369750D01*
X208372250Y-71199000D01*
X207089000Y-71199000D01*
X206931000Y-71199000D01*
X205647750Y-71199000D01*
X205477000Y-71369750D01*
X205473695Y-71970000D01*
X202611592Y-71970000D01*
X204003416Y-70578177D01*
X204041221Y-70540372D01*
X204070922Y-70495922D01*
X204104838Y-70454595D01*
X204130041Y-70407444D01*
X204159742Y-70362993D01*
X204180201Y-70313601D01*
X204205402Y-70266453D01*
X204220920Y-70215295D01*
X204241381Y-70165899D01*
X204251812Y-70113457D01*
X204267329Y-70062305D01*
X204272568Y-70009110D01*
X204283000Y-69956666D01*
X204283000Y-69903194D01*
X204288239Y-69850001D01*
X204283000Y-69796808D01*
X204283000Y-69743334D01*
X204272568Y-69690889D01*
X204267329Y-69637696D01*
X204251813Y-69586547D01*
X204241381Y-69534101D01*
X204220918Y-69484700D01*
X204205402Y-69433549D01*
X204180204Y-69386408D01*
X204159742Y-69337007D01*
X204130035Y-69292548D01*
X204104838Y-69245407D01*
X204070928Y-69204088D01*
X204041221Y-69159628D01*
X204003410Y-69121817D01*
X203969501Y-69080499D01*
X203928183Y-69046590D01*
X203890372Y-69008779D01*
X203845912Y-68979072D01*
X203804593Y-68945162D01*
X203757452Y-68919965D01*
X203712993Y-68890258D01*
X203663592Y-68869796D01*
X203616451Y-68844598D01*
X203565300Y-68829082D01*
X203515899Y-68808619D01*
X203463453Y-68798187D01*
X203412304Y-68782671D01*
X203359111Y-68777432D01*
X203306666Y-68767000D01*
X203253192Y-68767000D01*
X203199999Y-68761761D01*
X203146806Y-68767000D01*
X203093334Y-68767000D01*
X203040890Y-68777432D01*
X202987695Y-68782671D01*
X202936543Y-68798188D01*
X202884101Y-68808619D01*
X202834705Y-68829080D01*
X202783547Y-68844598D01*
X202736399Y-68869799D01*
X202687007Y-68890258D01*
X202642556Y-68919959D01*
X202595405Y-68945162D01*
X202554078Y-68979078D01*
X202509628Y-69008779D01*
X202471823Y-69046584D01*
X201026408Y-70492000D01*
X167908594Y-70492000D01*
X165268423Y-67851831D01*
X165234502Y-67810498D01*
X165069594Y-67675162D01*
X164881451Y-67574597D01*
X164677305Y-67512670D01*
X164518203Y-67497000D01*
X164518200Y-67497000D01*
X164465000Y-67491760D01*
X164411800Y-67497000D01*
X163857121Y-67497000D01*
X163632850Y-67272729D01*
X163560575Y-67224436D01*
X163577766Y-67169489D01*
X162560000Y-66151723D01*
X161542234Y-67169489D01*
X161559425Y-67224436D01*
X161487150Y-67272729D01*
X161252729Y-67507150D01*
X161068545Y-67782801D01*
X160941677Y-68089087D01*
X160877000Y-68414239D01*
X159508000Y-68414239D01*
X159508000Y-66052618D01*
X160868904Y-66052618D01*
X160903860Y-66382292D01*
X161002459Y-66698812D01*
X161146894Y-66969032D01*
X161430511Y-67057766D01*
X162448277Y-66040000D01*
X162671723Y-66040000D01*
X163689489Y-67057766D01*
X163973106Y-66969032D01*
X164127198Y-66675497D01*
X164221064Y-66357541D01*
X164251096Y-66027382D01*
X164216140Y-65697708D01*
X164117541Y-65381188D01*
X163973106Y-65110968D01*
X163689489Y-65022234D01*
X162671723Y-66040000D01*
X162448277Y-66040000D01*
X161430511Y-65022234D01*
X161146894Y-65110968D01*
X160992802Y-65404503D01*
X160898936Y-65722459D01*
X160868904Y-66052618D01*
X159508000Y-66052618D01*
X159508000Y-63334239D01*
X160877000Y-63334239D01*
X160877000Y-63665761D01*
X160941677Y-63990913D01*
X161068545Y-64297199D01*
X161252729Y-64572850D01*
X161487150Y-64807271D01*
X161559425Y-64855564D01*
X161542234Y-64910511D01*
X162560000Y-65928277D01*
X163577766Y-64910511D01*
X163560575Y-64855564D01*
X163632850Y-64807271D01*
X163857121Y-64583000D01*
X164651408Y-64583000D01*
X167471582Y-67403174D01*
X167505498Y-67444502D01*
X167569467Y-67497000D01*
X167670405Y-67579838D01*
X167770970Y-67633591D01*
X167858549Y-67680403D01*
X168062695Y-67742330D01*
X168221797Y-67758000D01*
X168221799Y-67758000D01*
X168274999Y-67763240D01*
X168328200Y-67758000D01*
X176255666Y-67758000D01*
X176308101Y-67747570D01*
X176361305Y-67742330D01*
X176412465Y-67726811D01*
X176464899Y-67716381D01*
X176514291Y-67695922D01*
X176565451Y-67680403D01*
X176612600Y-67655201D01*
X176661993Y-67634742D01*
X176706447Y-67605039D01*
X176753594Y-67579838D01*
X176794919Y-67545924D01*
X176839372Y-67516221D01*
X176877175Y-67478418D01*
X176918502Y-67444502D01*
X176952418Y-67403175D01*
X176990221Y-67365372D01*
X177019924Y-67320919D01*
X177053838Y-67279594D01*
X177079039Y-67232447D01*
X177108742Y-67187993D01*
X177129201Y-67138600D01*
X177154403Y-67091451D01*
X177169922Y-67040291D01*
X177190381Y-66990899D01*
X177200811Y-66938465D01*
X177216330Y-66887305D01*
X177221570Y-66834101D01*
X177232000Y-66781666D01*
X177232000Y-66728203D01*
X177237240Y-66675000D01*
X177232000Y-66621797D01*
X177232000Y-66568334D01*
X177221570Y-66515899D01*
X177216330Y-66462695D01*
X177200811Y-66411535D01*
X177190381Y-66359101D01*
X177169922Y-66309709D01*
X177154403Y-66258549D01*
X177129201Y-66211400D01*
X177108742Y-66162007D01*
X177079039Y-66117553D01*
X177053838Y-66070406D01*
X177019924Y-66029081D01*
X176990221Y-65984628D01*
X176952416Y-65946823D01*
X176918502Y-65905498D01*
X176877175Y-65871582D01*
X176839372Y-65833779D01*
X176794919Y-65804076D01*
X176753594Y-65770162D01*
X176706447Y-65744961D01*
X176661993Y-65715258D01*
X176612600Y-65694799D01*
X176565451Y-65669597D01*
X176514291Y-65654078D01*
X176464899Y-65633619D01*
X176412465Y-65623189D01*
X176361305Y-65607670D01*
X176308101Y-65602430D01*
X176255666Y-65592000D01*
X168723593Y-65592000D01*
X165903423Y-62771831D01*
X165869502Y-62730498D01*
X165704594Y-62595162D01*
X165516451Y-62494597D01*
X165312305Y-62432670D01*
X165153203Y-62417000D01*
X165153200Y-62417000D01*
X165100000Y-62411760D01*
X165046800Y-62417000D01*
X163857121Y-62417000D01*
X163632850Y-62192729D01*
X163357199Y-62008545D01*
X163050913Y-61881677D01*
X162725761Y-61817000D01*
X162394239Y-61817000D01*
X162069087Y-61881677D01*
X161762801Y-62008545D01*
X161487150Y-62192729D01*
X161252729Y-62427150D01*
X161068545Y-62702801D01*
X160941677Y-63009087D01*
X160877000Y-63334239D01*
X159508000Y-63334239D01*
X159508000Y-59865000D01*
X176432211Y-59865000D01*
X181460960Y-68036717D01*
G37*
G04 #@! TD.AperFunction*
M02*
