G04 #@! TF.GenerationSoftware,KiCad,Pcbnew,(5.1.7)-1*
G04 #@! TF.CreationDate,2021-04-12T14:54:16+02:00*
G04 #@! TF.ProjectId,FitnessTracker.kicad_pcb2,4669746e-6573-4735-9472-61636b65722e,rev?*
G04 #@! TF.SameCoordinates,Original*
G04 #@! TF.FileFunction,Profile,NP*
%FSLAX46Y46*%
G04 Gerber Fmt 4.6, Leading zero omitted, Abs format (unit mm)*
G04 Created by KiCad (PCBNEW (5.1.7)-1) date 2021-04-12 14:54:16*
%MOMM*%
%LPD*%
G01*
G04 APERTURE LIST*
G04 #@! TA.AperFunction,Profile*
%ADD10C,0.050000*%
G04 #@! TD*
G04 #@! TA.AperFunction,Profile*
%ADD11C,0.150000*%
G04 #@! TD*
%ADD12C,0.050000*%
G04 APERTURE END LIST*
D10*
X211851666Y-59055000D02*
G75*
G03*
X211851666Y-59055000I-1666666J0D01*
G01*
X207685000Y-59055000D02*
X212685000Y-59055000D01*
X210185000Y-56555000D02*
X210185000Y-61555000D01*
X162956666Y-59055000D02*
G75*
G03*
X162956666Y-59055000I-1666666J0D01*
G01*
X158790000Y-59055000D02*
X163790000Y-59055000D01*
X161290000Y-56555000D02*
X161290000Y-61555000D01*
D11*
X212725000Y-59055000D02*
X212725000Y-56515000D01*
X158750000Y-59055000D02*
X158750000Y-56515000D01*
X212725000Y-59055000D02*
X212725000Y-60325000D01*
X158750000Y-56515000D02*
X212725000Y-56515000D01*
X158750000Y-60325000D02*
X158750000Y-59055000D01*
D10*
X211851666Y-99060000D02*
G75*
G03*
X211851666Y-99060000I-1666666J0D01*
G01*
X207685000Y-99060000D02*
X212685000Y-99060000D01*
X210185000Y-96560000D02*
X210185000Y-101560000D01*
X162956666Y-99060000D02*
G75*
G03*
X162956666Y-99060000I-1666666J0D01*
G01*
X158790000Y-99060000D02*
X163790000Y-99060000D01*
X161290000Y-96560000D02*
X161290000Y-101560000D01*
D11*
X212725000Y-99695000D02*
X212725000Y-101600000D01*
X212725000Y-101600000D02*
X212090000Y-101600000D01*
X158750000Y-101600000D02*
X212090000Y-101600000D01*
X158750000Y-99695000D02*
X158750000Y-101600000D01*
X212725000Y-99695000D02*
X212725000Y-60325000D01*
X158750000Y-99695000D02*
X158750000Y-60325000D01*
D12*
M02*
