G04 #@! TF.GenerationSoftware,KiCad,Pcbnew,(5.1.7)-1*
G04 #@! TF.CreationDate,2021-04-12T14:54:16+02:00*
G04 #@! TF.ProjectId,FitnessTracker.kicad_pcb2,4669746e-6573-4735-9472-61636b65722e,rev?*
G04 #@! TF.SameCoordinates,Original*
G04 #@! TF.FileFunction,Legend,Top*
G04 #@! TF.FilePolarity,Positive*
%FSLAX46Y46*%
G04 Gerber Fmt 4.6, Leading zero omitted, Abs format (unit mm)*
G04 Created by KiCad (PCBNEW (5.1.7)-1) date 2021-04-12 14:54:16*
%MOMM*%
%LPD*%
G01*
G04 APERTURE LIST*
%ADD10C,0.300000*%
%ADD11C,0.120000*%
%ADD12C,0.150000*%
%ADD13C,0.200000*%
%ADD14C,0.127000*%
%ADD15C,0.050000*%
G04 APERTURE END LIST*
D10*
X188518857Y-95589714D02*
X189433142Y-95589714D01*
X188518857Y-91017714D02*
X189433142Y-91017714D01*
X188976000Y-91474857D02*
X188976000Y-90560571D01*
X202539714Y-70774000D02*
X202425428Y-70716857D01*
X202254000Y-70716857D01*
X202082571Y-70774000D01*
X201968285Y-70888285D01*
X201911142Y-71002571D01*
X201854000Y-71231142D01*
X201854000Y-71402571D01*
X201911142Y-71631142D01*
X201968285Y-71745428D01*
X202082571Y-71859714D01*
X202254000Y-71916857D01*
X202368285Y-71916857D01*
X202539714Y-71859714D01*
X202596857Y-71802571D01*
X202596857Y-71402571D01*
X202368285Y-71402571D01*
X203111142Y-71916857D02*
X203111142Y-70716857D01*
X203796857Y-71916857D01*
X203796857Y-70716857D01*
X204368285Y-71916857D02*
X204368285Y-70716857D01*
X204654000Y-70716857D01*
X204825428Y-70774000D01*
X204939714Y-70888285D01*
X204996857Y-71002571D01*
X205054000Y-71231142D01*
X205054000Y-71402571D01*
X204996857Y-71631142D01*
X204939714Y-71745428D01*
X204825428Y-71859714D01*
X204654000Y-71916857D01*
X204368285Y-71916857D01*
X202539714Y-65636857D02*
X203225428Y-65636857D01*
X202882571Y-66836857D02*
X202882571Y-65636857D01*
X203511142Y-65636857D02*
X204311142Y-66836857D01*
X204311142Y-65636857D02*
X203511142Y-66836857D01*
X203508000Y-69376857D02*
X203108000Y-68805428D01*
X202822285Y-69376857D02*
X202822285Y-68176857D01*
X203279428Y-68176857D01*
X203393714Y-68234000D01*
X203450857Y-68291142D01*
X203508000Y-68405428D01*
X203508000Y-68576857D01*
X203450857Y-68691142D01*
X203393714Y-68748285D01*
X203279428Y-68805428D01*
X202822285Y-68805428D01*
X203908000Y-68176857D02*
X204708000Y-69376857D01*
X204708000Y-68176857D02*
X203908000Y-69376857D01*
X201682571Y-63096857D02*
X202425428Y-63096857D01*
X202025428Y-63554000D01*
X202196857Y-63554000D01*
X202311142Y-63611142D01*
X202368285Y-63668285D01*
X202425428Y-63782571D01*
X202425428Y-64068285D01*
X202368285Y-64182571D01*
X202311142Y-64239714D01*
X202196857Y-64296857D01*
X201854000Y-64296857D01*
X201739714Y-64239714D01*
X201682571Y-64182571D01*
X202939714Y-64182571D02*
X202996857Y-64239714D01*
X202939714Y-64296857D01*
X202882571Y-64239714D01*
X202939714Y-64182571D01*
X202939714Y-64296857D01*
X203396857Y-63096857D02*
X204139714Y-63096857D01*
X203739714Y-63554000D01*
X203911142Y-63554000D01*
X204025428Y-63611142D01*
X204082571Y-63668285D01*
X204139714Y-63782571D01*
X204139714Y-64068285D01*
X204082571Y-64182571D01*
X204025428Y-64239714D01*
X203911142Y-64296857D01*
X203568285Y-64296857D01*
X203454000Y-64239714D01*
X203396857Y-64182571D01*
X204482571Y-63096857D02*
X204882571Y-64296857D01*
X205282571Y-63096857D01*
X200710857Y-94573714D02*
X201625142Y-94573714D01*
X201168000Y-95030857D02*
X201168000Y-94116571D01*
X163471428Y-98974285D02*
X163642857Y-99031428D01*
X163700000Y-99088571D01*
X163757142Y-99202857D01*
X163757142Y-99374285D01*
X163700000Y-99488571D01*
X163642857Y-99545714D01*
X163528571Y-99602857D01*
X163071428Y-99602857D01*
X163071428Y-98402857D01*
X163471428Y-98402857D01*
X163585714Y-98460000D01*
X163642857Y-98517142D01*
X163700000Y-98631428D01*
X163700000Y-98745714D01*
X163642857Y-98860000D01*
X163585714Y-98917142D01*
X163471428Y-98974285D01*
X163071428Y-98974285D01*
X164500000Y-98402857D02*
X164728571Y-98402857D01*
X164842857Y-98460000D01*
X164957142Y-98574285D01*
X165014285Y-98802857D01*
X165014285Y-99202857D01*
X164957142Y-99431428D01*
X164842857Y-99545714D01*
X164728571Y-99602857D01*
X164500000Y-99602857D01*
X164385714Y-99545714D01*
X164271428Y-99431428D01*
X164214285Y-99202857D01*
X164214285Y-98802857D01*
X164271428Y-98574285D01*
X164385714Y-98460000D01*
X164500000Y-98402857D01*
X165757142Y-98402857D02*
X165985714Y-98402857D01*
X166100000Y-98460000D01*
X166214285Y-98574285D01*
X166271428Y-98802857D01*
X166271428Y-99202857D01*
X166214285Y-99431428D01*
X166100000Y-99545714D01*
X165985714Y-99602857D01*
X165757142Y-99602857D01*
X165642857Y-99545714D01*
X165528571Y-99431428D01*
X165471428Y-99202857D01*
X165471428Y-98802857D01*
X165528571Y-98574285D01*
X165642857Y-98460000D01*
X165757142Y-98402857D01*
X166614285Y-98402857D02*
X167300000Y-98402857D01*
X166957142Y-99602857D02*
X166957142Y-98402857D01*
X168786285Y-98974285D02*
X169186285Y-98974285D01*
X169357714Y-99602857D02*
X168786285Y-99602857D01*
X168786285Y-98402857D01*
X169357714Y-98402857D01*
X169872000Y-99602857D02*
X169872000Y-98402857D01*
X170557714Y-99602857D01*
X170557714Y-98402857D01*
D11*
X202358000Y-94488000D02*
G75*
G03*
X202358000Y-94488000I-6230000J0D01*
G01*
X202528000Y-92988001D02*
G75*
G02*
X202528000Y-95988000I-6400000J-1499999D01*
G01*
D12*
X207540000Y-96785000D02*
X203940000Y-96785000D01*
X203940000Y-96785000D02*
X203440000Y-96285000D01*
X203440000Y-96285000D02*
X203440000Y-95485000D01*
X203440000Y-95485000D02*
X203940000Y-94985000D01*
X203940000Y-94985000D02*
X207540000Y-94985000D01*
X207540000Y-94985000D02*
X208040000Y-95485000D01*
X208040000Y-95485000D02*
X208040000Y-96285000D01*
X208040000Y-96285000D02*
X207540000Y-96785000D01*
X188225000Y-91545000D02*
X188225000Y-95145000D01*
X188225000Y-95145000D02*
X187725000Y-95645000D01*
X187725000Y-95645000D02*
X186925000Y-95645000D01*
X186925000Y-95645000D02*
X186425000Y-95145000D01*
X186425000Y-95145000D02*
X186425000Y-91545000D01*
X186425000Y-91545000D02*
X186925000Y-91045000D01*
X186925000Y-91045000D02*
X187725000Y-91045000D01*
X187725000Y-91045000D02*
X188225000Y-91545000D01*
D13*
X186083000Y-95635000D02*
G75*
G03*
X186083000Y-95635000I-100000J0D01*
G01*
D14*
X179750000Y-95105000D02*
X179750000Y-96705000D01*
X179750000Y-89985000D02*
X179750000Y-91475000D01*
X183470000Y-90235000D02*
X183470000Y-89985000D01*
X183470000Y-96705000D02*
X183470000Y-96445000D01*
X183470000Y-89985000D02*
X179750000Y-89985000D01*
X183470000Y-96705000D02*
X179750000Y-96705000D01*
X200697000Y-61545000D02*
X200697000Y-68045000D01*
X182697000Y-61545000D02*
X200697000Y-61545000D01*
X182697000Y-68045000D02*
X182697000Y-61545000D01*
X200697000Y-87045000D02*
X200697000Y-86395000D01*
X198247000Y-87045000D02*
X200697000Y-87045000D01*
X182697000Y-87045000D02*
X185147000Y-87045000D01*
X182697000Y-86395000D02*
X182697000Y-87045000D01*
D13*
X181797000Y-69045000D02*
G75*
G03*
X181797000Y-69045000I-100000J0D01*
G01*
X166200000Y-91645000D02*
G75*
G03*
X166200000Y-91645000I-100000J0D01*
G01*
X163250000Y-96445000D02*
X164000000Y-96445000D01*
X163250000Y-90245000D02*
X163250000Y-96445000D01*
X163900000Y-90245000D02*
X163250000Y-90245000D01*
X166950000Y-96445000D02*
X166200000Y-96445000D01*
X166950000Y-90245000D02*
X166950000Y-96445000D01*
X166200000Y-90245000D02*
X166950000Y-90245000D01*
X170645000Y-91645000D02*
G75*
G03*
X170645000Y-91645000I-100000J0D01*
G01*
X167695000Y-96445000D02*
X168445000Y-96445000D01*
X167695000Y-90245000D02*
X167695000Y-96445000D01*
X168345000Y-90245000D02*
X167695000Y-90245000D01*
X171395000Y-96445000D02*
X170645000Y-96445000D01*
X171395000Y-90245000D02*
X171395000Y-96445000D01*
X170645000Y-90245000D02*
X171395000Y-90245000D01*
D11*
X173715000Y-91363748D02*
X173715000Y-92786252D01*
X175535000Y-91363748D02*
X175535000Y-92786252D01*
X162200000Y-92633748D02*
X162200000Y-94056252D01*
X160380000Y-92633748D02*
X160380000Y-94056252D01*
X178563748Y-65765000D02*
X179986252Y-65765000D01*
X178563748Y-67585000D02*
X179986252Y-67585000D01*
X178563748Y-70125000D02*
X179986252Y-70125000D01*
X178563748Y-68305000D02*
X179986252Y-68305000D01*
X206451252Y-91165000D02*
X205028748Y-91165000D01*
X206451252Y-92985000D02*
X205028748Y-92985000D01*
X182526252Y-99970000D02*
X181103748Y-99970000D01*
X182526252Y-98150000D02*
X181103748Y-98150000D01*
X178563748Y-73935000D02*
X179986252Y-73935000D01*
X178563748Y-72115000D02*
X179986252Y-72115000D01*
X206173752Y-83460000D02*
X204751248Y-83460000D01*
X206173752Y-81640000D02*
X204751248Y-81640000D01*
X211095000Y-63423748D02*
X211095000Y-64846252D01*
X209275000Y-63423748D02*
X209275000Y-64846252D01*
X206173752Y-77830000D02*
X204751248Y-77830000D01*
X206173752Y-79650000D02*
X204751248Y-79650000D01*
X206173752Y-88540000D02*
X204751248Y-88540000D01*
X206173752Y-86720000D02*
X204751248Y-86720000D01*
X207010000Y-72450000D02*
X205680000Y-72450000D01*
X205680000Y-72450000D02*
X205680000Y-71120000D01*
X205680000Y-69850000D02*
X205680000Y-62170000D01*
X208340000Y-62170000D02*
X205680000Y-62170000D01*
X208340000Y-69850000D02*
X208340000Y-62170000D01*
X208340000Y-69850000D02*
X205680000Y-69850000D01*
D12*
X163528476Y-60666380D02*
X163528476Y-61380666D01*
X163480857Y-61523523D01*
X163385619Y-61618761D01*
X163242761Y-61666380D01*
X163147523Y-61666380D01*
X164528476Y-61666380D02*
X163957047Y-61666380D01*
X164242761Y-61666380D02*
X164242761Y-60666380D01*
X164147523Y-60809238D01*
X164052285Y-60904476D01*
X163957047Y-60952095D01*
X165480857Y-61666380D02*
X164909428Y-61666380D01*
X165195142Y-61666380D02*
X165195142Y-60666380D01*
X165099904Y-60809238D01*
X165004666Y-60904476D01*
X164909428Y-60952095D01*
X163885714Y-71524761D02*
X164028571Y-71572380D01*
X164266666Y-71572380D01*
X164361904Y-71524761D01*
X164409523Y-71477142D01*
X164457142Y-71381904D01*
X164457142Y-71286666D01*
X164409523Y-71191428D01*
X164361904Y-71143809D01*
X164266666Y-71096190D01*
X164076190Y-71048571D01*
X163980952Y-71000952D01*
X163933333Y-70953333D01*
X163885714Y-70858095D01*
X163885714Y-70762857D01*
X163933333Y-70667619D01*
X163980952Y-70620000D01*
X164076190Y-70572380D01*
X164314285Y-70572380D01*
X164457142Y-70620000D01*
X164885714Y-71572380D02*
X164885714Y-70572380D01*
X165123809Y-70572380D01*
X165266666Y-70620000D01*
X165361904Y-70715238D01*
X165409523Y-70810476D01*
X165457142Y-71000952D01*
X165457142Y-71143809D01*
X165409523Y-71334285D01*
X165361904Y-71429523D01*
X165266666Y-71524761D01*
X165123809Y-71572380D01*
X164885714Y-71572380D01*
X165838095Y-71286666D02*
X166314285Y-71286666D01*
X165742857Y-71572380D02*
X166076190Y-70572380D01*
X166409523Y-71572380D01*
X163909523Y-68984761D02*
X164052380Y-69032380D01*
X164290476Y-69032380D01*
X164385714Y-68984761D01*
X164433333Y-68937142D01*
X164480952Y-68841904D01*
X164480952Y-68746666D01*
X164433333Y-68651428D01*
X164385714Y-68603809D01*
X164290476Y-68556190D01*
X164100000Y-68508571D01*
X164004761Y-68460952D01*
X163957142Y-68413333D01*
X163909523Y-68318095D01*
X163909523Y-68222857D01*
X163957142Y-68127619D01*
X164004761Y-68080000D01*
X164100000Y-68032380D01*
X164338095Y-68032380D01*
X164480952Y-68080000D01*
X165480952Y-68937142D02*
X165433333Y-68984761D01*
X165290476Y-69032380D01*
X165195238Y-69032380D01*
X165052380Y-68984761D01*
X164957142Y-68889523D01*
X164909523Y-68794285D01*
X164861904Y-68603809D01*
X164861904Y-68460952D01*
X164909523Y-68270476D01*
X164957142Y-68175238D01*
X165052380Y-68080000D01*
X165195238Y-68032380D01*
X165290476Y-68032380D01*
X165433333Y-68080000D01*
X165480952Y-68127619D01*
X166385714Y-69032380D02*
X165909523Y-69032380D01*
X165909523Y-68032380D01*
X164338095Y-65540000D02*
X164242857Y-65492380D01*
X164100000Y-65492380D01*
X163957142Y-65540000D01*
X163861904Y-65635238D01*
X163814285Y-65730476D01*
X163766666Y-65920952D01*
X163766666Y-66063809D01*
X163814285Y-66254285D01*
X163861904Y-66349523D01*
X163957142Y-66444761D01*
X164100000Y-66492380D01*
X164195238Y-66492380D01*
X164338095Y-66444761D01*
X164385714Y-66397142D01*
X164385714Y-66063809D01*
X164195238Y-66063809D01*
X164814285Y-66492380D02*
X164814285Y-65492380D01*
X165385714Y-66492380D01*
X165385714Y-65492380D01*
X165861904Y-66492380D02*
X165861904Y-65492380D01*
X166100000Y-65492380D01*
X166242857Y-65540000D01*
X166338095Y-65635238D01*
X166385714Y-65730476D01*
X166433333Y-65920952D01*
X166433333Y-66063809D01*
X166385714Y-66254285D01*
X166338095Y-66349523D01*
X166242857Y-66444761D01*
X166100000Y-66492380D01*
X165861904Y-66492380D01*
X163766666Y-62952380D02*
X164100000Y-63952380D01*
X164433333Y-62952380D01*
X165338095Y-63857142D02*
X165290476Y-63904761D01*
X165147619Y-63952380D01*
X165052380Y-63952380D01*
X164909523Y-63904761D01*
X164814285Y-63809523D01*
X164766666Y-63714285D01*
X164719047Y-63523809D01*
X164719047Y-63380952D01*
X164766666Y-63190476D01*
X164814285Y-63095238D01*
X164909523Y-63000000D01*
X165052380Y-62952380D01*
X165147619Y-62952380D01*
X165290476Y-63000000D01*
X165338095Y-63047619D01*
X166338095Y-63857142D02*
X166290476Y-63904761D01*
X166147619Y-63952380D01*
X166052380Y-63952380D01*
X165909523Y-63904761D01*
X165814285Y-63809523D01*
X165766666Y-63714285D01*
X165719047Y-63523809D01*
X165719047Y-63380952D01*
X165766666Y-63190476D01*
X165814285Y-63095238D01*
X165909523Y-63000000D01*
X166052380Y-62952380D01*
X166147619Y-62952380D01*
X166290476Y-63000000D01*
X166338095Y-63047619D01*
X190127047Y-100004571D02*
X190269904Y-100052190D01*
X190317523Y-100099809D01*
X190365142Y-100195047D01*
X190365142Y-100337904D01*
X190317523Y-100433142D01*
X190269904Y-100480761D01*
X190174666Y-100528380D01*
X189793714Y-100528380D01*
X189793714Y-99528380D01*
X190127047Y-99528380D01*
X190222285Y-99576000D01*
X190269904Y-99623619D01*
X190317523Y-99718857D01*
X190317523Y-99814095D01*
X190269904Y-99909333D01*
X190222285Y-99956952D01*
X190127047Y-100004571D01*
X189793714Y-100004571D01*
X190698476Y-99528380D02*
X191365142Y-99528380D01*
X190698476Y-100528380D01*
X191365142Y-100528380D01*
X192269904Y-100528380D02*
X191698476Y-100528380D01*
X191984190Y-100528380D02*
X191984190Y-99528380D01*
X191888952Y-99671238D01*
X191793714Y-99766476D01*
X191698476Y-99814095D01*
X205305238Y-97813571D02*
X205448095Y-97861190D01*
X205495714Y-97908809D01*
X205543333Y-98004047D01*
X205543333Y-98146904D01*
X205495714Y-98242142D01*
X205448095Y-98289761D01*
X205352857Y-98337380D01*
X204971904Y-98337380D01*
X204971904Y-97337380D01*
X205305238Y-97337380D01*
X205400476Y-97385000D01*
X205448095Y-97432619D01*
X205495714Y-97527857D01*
X205495714Y-97623095D01*
X205448095Y-97718333D01*
X205400476Y-97765952D01*
X205305238Y-97813571D01*
X204971904Y-97813571D01*
X206495714Y-98337380D02*
X205924285Y-98337380D01*
X206210000Y-98337380D02*
X206210000Y-97337380D01*
X206114761Y-97480238D01*
X206019523Y-97575476D01*
X205924285Y-97623095D01*
D15*
D12*
X176832142Y-92241666D02*
X176879761Y-92289285D01*
X176927380Y-92432142D01*
X176927380Y-92527380D01*
X176879761Y-92670238D01*
X176784523Y-92765476D01*
X176689285Y-92813095D01*
X176498809Y-92860714D01*
X176355952Y-92860714D01*
X176165476Y-92813095D01*
X176070238Y-92765476D01*
X175975000Y-92670238D01*
X175927380Y-92527380D01*
X175927380Y-92432142D01*
X175975000Y-92289285D01*
X176022619Y-92241666D01*
X176927380Y-91289285D02*
X176927380Y-91860714D01*
X176927380Y-91575000D02*
X175927380Y-91575000D01*
X176070238Y-91670238D01*
X176165476Y-91765476D01*
X176213095Y-91860714D01*
X159869142Y-93511666D02*
X159916761Y-93559285D01*
X159964380Y-93702142D01*
X159964380Y-93797380D01*
X159916761Y-93940238D01*
X159821523Y-94035476D01*
X159726285Y-94083095D01*
X159535809Y-94130714D01*
X159392952Y-94130714D01*
X159202476Y-94083095D01*
X159107238Y-94035476D01*
X159012000Y-93940238D01*
X158964380Y-93797380D01*
X158964380Y-93702142D01*
X159012000Y-93559285D01*
X159059619Y-93511666D01*
X159059619Y-93130714D02*
X159012000Y-93083095D01*
X158964380Y-92987857D01*
X158964380Y-92749761D01*
X159012000Y-92654523D01*
X159059619Y-92606904D01*
X159154857Y-92559285D01*
X159250095Y-92559285D01*
X159392952Y-92606904D01*
X159964380Y-93178333D01*
X159964380Y-92559285D01*
X179108333Y-65127142D02*
X179060714Y-65174761D01*
X178917857Y-65222380D01*
X178822619Y-65222380D01*
X178679761Y-65174761D01*
X178584523Y-65079523D01*
X178536904Y-64984285D01*
X178489285Y-64793809D01*
X178489285Y-64650952D01*
X178536904Y-64460476D01*
X178584523Y-64365238D01*
X178679761Y-64270000D01*
X178822619Y-64222380D01*
X178917857Y-64222380D01*
X179060714Y-64270000D01*
X179108333Y-64317619D01*
X179441666Y-64222380D02*
X180060714Y-64222380D01*
X179727380Y-64603333D01*
X179870238Y-64603333D01*
X179965476Y-64650952D01*
X180013095Y-64698571D01*
X180060714Y-64793809D01*
X180060714Y-65031904D01*
X180013095Y-65127142D01*
X179965476Y-65174761D01*
X179870238Y-65222380D01*
X179584523Y-65222380D01*
X179489285Y-65174761D01*
X179441666Y-65127142D01*
X180173333Y-71223142D02*
X180125714Y-71270761D01*
X179982857Y-71318380D01*
X179887619Y-71318380D01*
X179744761Y-71270761D01*
X179649523Y-71175523D01*
X179601904Y-71080285D01*
X179554285Y-70889809D01*
X179554285Y-70746952D01*
X179601904Y-70556476D01*
X179649523Y-70461238D01*
X179744761Y-70366000D01*
X179887619Y-70318380D01*
X179982857Y-70318380D01*
X180125714Y-70366000D01*
X180173333Y-70413619D01*
X181030476Y-70651714D02*
X181030476Y-71318380D01*
X180792380Y-70270761D02*
X180554285Y-70985047D01*
X181173333Y-70985047D01*
X205573333Y-94282142D02*
X205525714Y-94329761D01*
X205382857Y-94377380D01*
X205287619Y-94377380D01*
X205144761Y-94329761D01*
X205049523Y-94234523D01*
X205001904Y-94139285D01*
X204954285Y-93948809D01*
X204954285Y-93805952D01*
X205001904Y-93615476D01*
X205049523Y-93520238D01*
X205144761Y-93425000D01*
X205287619Y-93377380D01*
X205382857Y-93377380D01*
X205525714Y-93425000D01*
X205573333Y-93472619D01*
X206478095Y-93377380D02*
X206001904Y-93377380D01*
X205954285Y-93853571D01*
X206001904Y-93805952D01*
X206097142Y-93758333D01*
X206335238Y-93758333D01*
X206430476Y-93805952D01*
X206478095Y-93853571D01*
X206525714Y-93948809D01*
X206525714Y-94186904D01*
X206478095Y-94282142D01*
X206430476Y-94329761D01*
X206335238Y-94377380D01*
X206097142Y-94377380D01*
X206001904Y-94329761D01*
X205954285Y-94282142D01*
X181648333Y-101267142D02*
X181600714Y-101314761D01*
X181457857Y-101362380D01*
X181362619Y-101362380D01*
X181219761Y-101314761D01*
X181124523Y-101219523D01*
X181076904Y-101124285D01*
X181029285Y-100933809D01*
X181029285Y-100790952D01*
X181076904Y-100600476D01*
X181124523Y-100505238D01*
X181219761Y-100410000D01*
X181362619Y-100362380D01*
X181457857Y-100362380D01*
X181600714Y-100410000D01*
X181648333Y-100457619D01*
X182505476Y-100362380D02*
X182315000Y-100362380D01*
X182219761Y-100410000D01*
X182172142Y-100457619D01*
X182076904Y-100600476D01*
X182029285Y-100790952D01*
X182029285Y-101171904D01*
X182076904Y-101267142D01*
X182124523Y-101314761D01*
X182219761Y-101362380D01*
X182410238Y-101362380D01*
X182505476Y-101314761D01*
X182553095Y-101267142D01*
X182600714Y-101171904D01*
X182600714Y-100933809D01*
X182553095Y-100838571D01*
X182505476Y-100790952D01*
X182410238Y-100743333D01*
X182219761Y-100743333D01*
X182124523Y-100790952D01*
X182076904Y-100838571D01*
X182029285Y-100933809D01*
X177633333Y-71826380D02*
X177300000Y-71350190D01*
X177061904Y-71826380D02*
X177061904Y-70826380D01*
X177442857Y-70826380D01*
X177538095Y-70874000D01*
X177585714Y-70921619D01*
X177633333Y-71016857D01*
X177633333Y-71159714D01*
X177585714Y-71254952D01*
X177538095Y-71302571D01*
X177442857Y-71350190D01*
X177061904Y-71350190D01*
X178585714Y-71826380D02*
X178014285Y-71826380D01*
X178300000Y-71826380D02*
X178300000Y-70826380D01*
X178204761Y-70969238D01*
X178109523Y-71064476D01*
X178014285Y-71112095D01*
X205295833Y-84852380D02*
X204962500Y-84376190D01*
X204724404Y-84852380D02*
X204724404Y-83852380D01*
X205105357Y-83852380D01*
X205200595Y-83900000D01*
X205248214Y-83947619D01*
X205295833Y-84042857D01*
X205295833Y-84185714D01*
X205248214Y-84280952D01*
X205200595Y-84328571D01*
X205105357Y-84376190D01*
X204724404Y-84376190D01*
X205676785Y-83947619D02*
X205724404Y-83900000D01*
X205819642Y-83852380D01*
X206057738Y-83852380D01*
X206152976Y-83900000D01*
X206200595Y-83947619D01*
X206248214Y-84042857D01*
X206248214Y-84138095D01*
X206200595Y-84280952D01*
X205629166Y-84852380D01*
X206248214Y-84852380D01*
X212487380Y-64301666D02*
X212011190Y-64635000D01*
X212487380Y-64873095D02*
X211487380Y-64873095D01*
X211487380Y-64492142D01*
X211535000Y-64396904D01*
X211582619Y-64349285D01*
X211677857Y-64301666D01*
X211820714Y-64301666D01*
X211915952Y-64349285D01*
X211963571Y-64396904D01*
X212011190Y-64492142D01*
X212011190Y-64873095D01*
X211487380Y-63968333D02*
X211487380Y-63349285D01*
X211868333Y-63682619D01*
X211868333Y-63539761D01*
X211915952Y-63444523D01*
X211963571Y-63396904D01*
X212058809Y-63349285D01*
X212296904Y-63349285D01*
X212392142Y-63396904D01*
X212439761Y-63444523D01*
X212487380Y-63539761D01*
X212487380Y-63825476D01*
X212439761Y-63920714D01*
X212392142Y-63968333D01*
X205295833Y-81042380D02*
X204962500Y-80566190D01*
X204724404Y-81042380D02*
X204724404Y-80042380D01*
X205105357Y-80042380D01*
X205200595Y-80090000D01*
X205248214Y-80137619D01*
X205295833Y-80232857D01*
X205295833Y-80375714D01*
X205248214Y-80470952D01*
X205200595Y-80518571D01*
X205105357Y-80566190D01*
X204724404Y-80566190D01*
X206152976Y-80375714D02*
X206152976Y-81042380D01*
X205914880Y-79994761D02*
X205676785Y-80709047D01*
X206295833Y-80709047D01*
X205295833Y-89932380D02*
X204962500Y-89456190D01*
X204724404Y-89932380D02*
X204724404Y-88932380D01*
X205105357Y-88932380D01*
X205200595Y-88980000D01*
X205248214Y-89027619D01*
X205295833Y-89122857D01*
X205295833Y-89265714D01*
X205248214Y-89360952D01*
X205200595Y-89408571D01*
X205105357Y-89456190D01*
X204724404Y-89456190D01*
X206200595Y-88932380D02*
X205724404Y-88932380D01*
X205676785Y-89408571D01*
X205724404Y-89360952D01*
X205819642Y-89313333D01*
X206057738Y-89313333D01*
X206152976Y-89360952D01*
X206200595Y-89408571D01*
X206248214Y-89503809D01*
X206248214Y-89741904D01*
X206200595Y-89837142D01*
X206152976Y-89884761D01*
X206057738Y-89932380D01*
X205819642Y-89932380D01*
X205724404Y-89884761D01*
X205676785Y-89837142D01*
X206676666Y-73342380D02*
X206676666Y-74056666D01*
X206629047Y-74199523D01*
X206533809Y-74294761D01*
X206390952Y-74342380D01*
X206295714Y-74342380D01*
X207676666Y-74342380D02*
X207105238Y-74342380D01*
X207390952Y-74342380D02*
X207390952Y-73342380D01*
X207295714Y-73485238D01*
X207200476Y-73580476D01*
X207105238Y-73628095D01*
M02*
