G04 #@! TF.GenerationSoftware,KiCad,Pcbnew,(5.1.7)-1*
G04 #@! TF.CreationDate,2021-04-12T14:54:16+02:00*
G04 #@! TF.ProjectId,FitnessTracker.kicad_pcb2,4669746e-6573-4735-9472-61636b65722e,rev?*
G04 #@! TF.SameCoordinates,Original*
G04 #@! TF.FileFunction,Copper,L1,Top*
G04 #@! TF.FilePolarity,Positive*
%FSLAX46Y46*%
G04 Gerber Fmt 4.6, Leading zero omitted, Abs format (unit mm)*
G04 Created by KiCad (PCBNEW (5.1.7)-1) date 2021-04-12 14:54:16*
%MOMM*%
%LPD*%
G01*
G04 APERTURE LIST*
G04 #@! TA.AperFunction,ComponentPad*
%ADD10C,2.000000*%
G04 #@! TD*
G04 #@! TA.AperFunction,ComponentPad*
%ADD11C,2.500000*%
G04 #@! TD*
G04 #@! TA.AperFunction,ComponentPad*
%ADD12R,2.500000X2.500000*%
G04 #@! TD*
G04 #@! TA.AperFunction,ComponentPad*
%ADD13C,1.800000*%
G04 #@! TD*
G04 #@! TA.AperFunction,SMDPad,CuDef*
%ADD14R,1.310000X3.240000*%
G04 #@! TD*
G04 #@! TA.AperFunction,SMDPad,CuDef*
%ADD15R,1.310000X0.930000*%
G04 #@! TD*
G04 #@! TA.AperFunction,ComponentPad*
%ADD16C,0.500000*%
G04 #@! TD*
G04 #@! TA.AperFunction,SMDPad,CuDef*
%ADD17R,1.330000X1.330000*%
G04 #@! TD*
G04 #@! TA.AperFunction,SMDPad,CuDef*
%ADD18R,2.000000X0.900000*%
G04 #@! TD*
G04 #@! TA.AperFunction,SMDPad,CuDef*
%ADD19R,0.900000X2.000000*%
G04 #@! TD*
G04 #@! TA.AperFunction,SMDPad,CuDef*
%ADD20R,1.500000X2.300000*%
G04 #@! TD*
G04 #@! TA.AperFunction,ComponentPad*
%ADD21R,1.700000X1.700000*%
G04 #@! TD*
G04 #@! TA.AperFunction,ComponentPad*
%ADD22O,1.700000X1.700000*%
G04 #@! TD*
G04 #@! TA.AperFunction,ViaPad*
%ADD23C,0.800000*%
G04 #@! TD*
G04 #@! TA.AperFunction,Conductor*
%ADD24C,0.800000*%
G04 #@! TD*
G04 #@! TA.AperFunction,Conductor*
%ADD25C,0.550000*%
G04 #@! TD*
G04 #@! TA.AperFunction,Conductor*
%ADD26C,0.250000*%
G04 #@! TD*
G04 #@! TA.AperFunction,Conductor*
%ADD27C,0.700000*%
G04 #@! TD*
G04 #@! TA.AperFunction,Conductor*
%ADD28C,0.300000*%
G04 #@! TD*
G04 #@! TA.AperFunction,Conductor*
%ADD29C,0.350000*%
G04 #@! TD*
G04 #@! TA.AperFunction,Conductor*
%ADD30C,0.100000*%
G04 #@! TD*
G04 APERTURE END LIST*
D10*
X162560000Y-71120000D03*
X162560000Y-68580000D03*
X162560000Y-66040000D03*
X162560000Y-63500000D03*
D11*
X193628000Y-94488000D03*
D12*
X198628000Y-94488000D03*
D10*
X204470000Y-95885000D03*
X207010000Y-95885000D03*
D13*
X187325000Y-94615000D03*
X187325000Y-92075000D03*
D14*
X178265000Y-93345000D03*
D15*
X184955000Y-91055000D03*
X184955000Y-93345000D03*
X184955000Y-95635000D03*
D16*
X191614500Y-78370000D03*
X189779500Y-78370000D03*
X192532000Y-77452500D03*
X190697000Y-77452500D03*
X188862000Y-77452500D03*
X191614500Y-76535000D03*
X189779500Y-76535000D03*
X192532000Y-75617500D03*
X190697000Y-75617500D03*
X188862000Y-75617500D03*
X191614500Y-74700000D03*
X189779500Y-74700000D03*
D17*
X192532000Y-78370000D03*
X190697000Y-78370000D03*
X188862000Y-78370000D03*
X192532000Y-76535000D03*
X190697000Y-76535000D03*
X188862000Y-76535000D03*
X192532000Y-74700000D03*
X190697000Y-74700000D03*
X188862000Y-74700000D03*
D18*
X200197000Y-69035000D03*
X200197000Y-70305000D03*
X200197000Y-71575000D03*
X200197000Y-72845000D03*
X200197000Y-74115000D03*
X200197000Y-75385000D03*
X200197000Y-76655000D03*
X200197000Y-77925000D03*
X200197000Y-79195000D03*
X200197000Y-80465000D03*
X200197000Y-81735000D03*
X200197000Y-83005000D03*
X200197000Y-84275000D03*
X200197000Y-85545000D03*
D19*
X197412000Y-86545000D03*
X196142000Y-86545000D03*
X194872000Y-86545000D03*
X193602000Y-86545000D03*
X192332000Y-86545000D03*
X191062000Y-86545000D03*
X189792000Y-86545000D03*
X188522000Y-86545000D03*
X187252000Y-86545000D03*
X185982000Y-86545000D03*
D18*
X183197000Y-85545000D03*
X183197000Y-84275000D03*
X183197000Y-83005000D03*
X183197000Y-81735000D03*
X183197000Y-80465000D03*
X183197000Y-79195000D03*
X183197000Y-77925000D03*
X183197000Y-76655000D03*
X183197000Y-75385000D03*
X183197000Y-74115000D03*
X183197000Y-72845000D03*
X183197000Y-71575000D03*
X183197000Y-70305000D03*
X183197000Y-69035000D03*
D20*
X165100000Y-89995000D03*
X165100000Y-96695000D03*
X169545000Y-89995000D03*
X169545000Y-96695000D03*
G04 #@! TA.AperFunction,SMDPad,CuDef*
G36*
G01*
X173974999Y-92975000D02*
X175275001Y-92975000D01*
G75*
G02*
X175525000Y-93224999I0J-249999D01*
G01*
X175525000Y-93875001D01*
G75*
G02*
X175275001Y-94125000I-249999J0D01*
G01*
X173974999Y-94125000D01*
G75*
G02*
X173725000Y-93875001I0J249999D01*
G01*
X173725000Y-93224999D01*
G75*
G02*
X173974999Y-92975000I249999J0D01*
G01*
G37*
G04 #@! TD.AperFunction*
G04 #@! TA.AperFunction,SMDPad,CuDef*
G36*
G01*
X173974999Y-90025000D02*
X175275001Y-90025000D01*
G75*
G02*
X175525000Y-90274999I0J-249999D01*
G01*
X175525000Y-90925001D01*
G75*
G02*
X175275001Y-91175000I-249999J0D01*
G01*
X173974999Y-91175000D01*
G75*
G02*
X173725000Y-90925001I0J249999D01*
G01*
X173725000Y-90274999D01*
G75*
G02*
X173974999Y-90025000I249999J0D01*
G01*
G37*
G04 #@! TD.AperFunction*
G04 #@! TA.AperFunction,SMDPad,CuDef*
G36*
G01*
X160639999Y-91295000D02*
X161940001Y-91295000D01*
G75*
G02*
X162190000Y-91544999I0J-249999D01*
G01*
X162190000Y-92195001D01*
G75*
G02*
X161940001Y-92445000I-249999J0D01*
G01*
X160639999Y-92445000D01*
G75*
G02*
X160390000Y-92195001I0J249999D01*
G01*
X160390000Y-91544999D01*
G75*
G02*
X160639999Y-91295000I249999J0D01*
G01*
G37*
G04 #@! TD.AperFunction*
G04 #@! TA.AperFunction,SMDPad,CuDef*
G36*
G01*
X160639999Y-94245000D02*
X161940001Y-94245000D01*
G75*
G02*
X162190000Y-94494999I0J-249999D01*
G01*
X162190000Y-95145001D01*
G75*
G02*
X161940001Y-95395000I-249999J0D01*
G01*
X160639999Y-95395000D01*
G75*
G02*
X160390000Y-95145001I0J249999D01*
G01*
X160390000Y-94494999D01*
G75*
G02*
X160639999Y-94245000I249999J0D01*
G01*
G37*
G04 #@! TD.AperFunction*
G04 #@! TA.AperFunction,SMDPad,CuDef*
G36*
G01*
X177225000Y-67325001D02*
X177225000Y-66024999D01*
G75*
G02*
X177474999Y-65775000I249999J0D01*
G01*
X178125001Y-65775000D01*
G75*
G02*
X178375000Y-66024999I0J-249999D01*
G01*
X178375000Y-67325001D01*
G75*
G02*
X178125001Y-67575000I-249999J0D01*
G01*
X177474999Y-67575000D01*
G75*
G02*
X177225000Y-67325001I0J249999D01*
G01*
G37*
G04 #@! TD.AperFunction*
G04 #@! TA.AperFunction,SMDPad,CuDef*
G36*
G01*
X180175000Y-67325001D02*
X180175000Y-66024999D01*
G75*
G02*
X180424999Y-65775000I249999J0D01*
G01*
X181075001Y-65775000D01*
G75*
G02*
X181325000Y-66024999I0J-249999D01*
G01*
X181325000Y-67325001D01*
G75*
G02*
X181075001Y-67575000I-249999J0D01*
G01*
X180424999Y-67575000D01*
G75*
G02*
X180175000Y-67325001I0J249999D01*
G01*
G37*
G04 #@! TD.AperFunction*
G04 #@! TA.AperFunction,SMDPad,CuDef*
G36*
G01*
X180175000Y-69865001D02*
X180175000Y-68564999D01*
G75*
G02*
X180424999Y-68315000I249999J0D01*
G01*
X181075001Y-68315000D01*
G75*
G02*
X181325000Y-68564999I0J-249999D01*
G01*
X181325000Y-69865001D01*
G75*
G02*
X181075001Y-70115000I-249999J0D01*
G01*
X180424999Y-70115000D01*
G75*
G02*
X180175000Y-69865001I0J249999D01*
G01*
G37*
G04 #@! TD.AperFunction*
G04 #@! TA.AperFunction,SMDPad,CuDef*
G36*
G01*
X177225000Y-69865001D02*
X177225000Y-68564999D01*
G75*
G02*
X177474999Y-68315000I249999J0D01*
G01*
X178125001Y-68315000D01*
G75*
G02*
X178375000Y-68564999I0J-249999D01*
G01*
X178375000Y-69865001D01*
G75*
G02*
X178125001Y-70115000I-249999J0D01*
G01*
X177474999Y-70115000D01*
G75*
G02*
X177225000Y-69865001I0J249999D01*
G01*
G37*
G04 #@! TD.AperFunction*
G04 #@! TA.AperFunction,SMDPad,CuDef*
G36*
G01*
X204840000Y-91424999D02*
X204840000Y-92725001D01*
G75*
G02*
X204590001Y-92975000I-249999J0D01*
G01*
X203939999Y-92975000D01*
G75*
G02*
X203690000Y-92725001I0J249999D01*
G01*
X203690000Y-91424999D01*
G75*
G02*
X203939999Y-91175000I249999J0D01*
G01*
X204590001Y-91175000D01*
G75*
G02*
X204840000Y-91424999I0J-249999D01*
G01*
G37*
G04 #@! TD.AperFunction*
G04 #@! TA.AperFunction,SMDPad,CuDef*
G36*
G01*
X207790000Y-91424999D02*
X207790000Y-92725001D01*
G75*
G02*
X207540001Y-92975000I-249999J0D01*
G01*
X206889999Y-92975000D01*
G75*
G02*
X206640000Y-92725001I0J249999D01*
G01*
X206640000Y-91424999D01*
G75*
G02*
X206889999Y-91175000I249999J0D01*
G01*
X207540001Y-91175000D01*
G75*
G02*
X207790000Y-91424999I0J-249999D01*
G01*
G37*
G04 #@! TD.AperFunction*
G04 #@! TA.AperFunction,SMDPad,CuDef*
G36*
G01*
X183865000Y-98409999D02*
X183865000Y-99710001D01*
G75*
G02*
X183615001Y-99960000I-249999J0D01*
G01*
X182964999Y-99960000D01*
G75*
G02*
X182715000Y-99710001I0J249999D01*
G01*
X182715000Y-98409999D01*
G75*
G02*
X182964999Y-98160000I249999J0D01*
G01*
X183615001Y-98160000D01*
G75*
G02*
X183865000Y-98409999I0J-249999D01*
G01*
G37*
G04 #@! TD.AperFunction*
G04 #@! TA.AperFunction,SMDPad,CuDef*
G36*
G01*
X180915000Y-98409999D02*
X180915000Y-99710001D01*
G75*
G02*
X180665001Y-99960000I-249999J0D01*
G01*
X180014999Y-99960000D01*
G75*
G02*
X179765000Y-99710001I0J249999D01*
G01*
X179765000Y-98409999D01*
G75*
G02*
X180014999Y-98160000I249999J0D01*
G01*
X180665001Y-98160000D01*
G75*
G02*
X180915000Y-98409999I0J-249999D01*
G01*
G37*
G04 #@! TD.AperFunction*
G04 #@! TA.AperFunction,SMDPad,CuDef*
G36*
G01*
X180175000Y-73675001D02*
X180175000Y-72374999D01*
G75*
G02*
X180424999Y-72125000I249999J0D01*
G01*
X181075001Y-72125000D01*
G75*
G02*
X181325000Y-72374999I0J-249999D01*
G01*
X181325000Y-73675001D01*
G75*
G02*
X181075001Y-73925000I-249999J0D01*
G01*
X180424999Y-73925000D01*
G75*
G02*
X180175000Y-73675001I0J249999D01*
G01*
G37*
G04 #@! TD.AperFunction*
G04 #@! TA.AperFunction,SMDPad,CuDef*
G36*
G01*
X177225000Y-73675001D02*
X177225000Y-72374999D01*
G75*
G02*
X177474999Y-72125000I249999J0D01*
G01*
X178125001Y-72125000D01*
G75*
G02*
X178375000Y-72374999I0J-249999D01*
G01*
X178375000Y-73675001D01*
G75*
G02*
X178125001Y-73925000I-249999J0D01*
G01*
X177474999Y-73925000D01*
G75*
G02*
X177225000Y-73675001I0J249999D01*
G01*
G37*
G04 #@! TD.AperFunction*
G04 #@! TA.AperFunction,SMDPad,CuDef*
G36*
G01*
X207512500Y-81899999D02*
X207512500Y-83200001D01*
G75*
G02*
X207262501Y-83450000I-249999J0D01*
G01*
X206612499Y-83450000D01*
G75*
G02*
X206362500Y-83200001I0J249999D01*
G01*
X206362500Y-81899999D01*
G75*
G02*
X206612499Y-81650000I249999J0D01*
G01*
X207262501Y-81650000D01*
G75*
G02*
X207512500Y-81899999I0J-249999D01*
G01*
G37*
G04 #@! TD.AperFunction*
G04 #@! TA.AperFunction,SMDPad,CuDef*
G36*
G01*
X204562500Y-81899999D02*
X204562500Y-83200001D01*
G75*
G02*
X204312501Y-83450000I-249999J0D01*
G01*
X203662499Y-83450000D01*
G75*
G02*
X203412500Y-83200001I0J249999D01*
G01*
X203412500Y-81899999D01*
G75*
G02*
X203662499Y-81650000I249999J0D01*
G01*
X204312501Y-81650000D01*
G75*
G02*
X204562500Y-81899999I0J-249999D01*
G01*
G37*
G04 #@! TD.AperFunction*
G04 #@! TA.AperFunction,SMDPad,CuDef*
G36*
G01*
X209534999Y-62085000D02*
X210835001Y-62085000D01*
G75*
G02*
X211085000Y-62334999I0J-249999D01*
G01*
X211085000Y-62985001D01*
G75*
G02*
X210835001Y-63235000I-249999J0D01*
G01*
X209534999Y-63235000D01*
G75*
G02*
X209285000Y-62985001I0J249999D01*
G01*
X209285000Y-62334999D01*
G75*
G02*
X209534999Y-62085000I249999J0D01*
G01*
G37*
G04 #@! TD.AperFunction*
G04 #@! TA.AperFunction,SMDPad,CuDef*
G36*
G01*
X209534999Y-65035000D02*
X210835001Y-65035000D01*
G75*
G02*
X211085000Y-65284999I0J-249999D01*
G01*
X211085000Y-65935001D01*
G75*
G02*
X210835001Y-66185000I-249999J0D01*
G01*
X209534999Y-66185000D01*
G75*
G02*
X209285000Y-65935001I0J249999D01*
G01*
X209285000Y-65284999D01*
G75*
G02*
X209534999Y-65035000I249999J0D01*
G01*
G37*
G04 #@! TD.AperFunction*
G04 #@! TA.AperFunction,SMDPad,CuDef*
G36*
G01*
X204562500Y-78089999D02*
X204562500Y-79390001D01*
G75*
G02*
X204312501Y-79640000I-249999J0D01*
G01*
X203662499Y-79640000D01*
G75*
G02*
X203412500Y-79390001I0J249999D01*
G01*
X203412500Y-78089999D01*
G75*
G02*
X203662499Y-77840000I249999J0D01*
G01*
X204312501Y-77840000D01*
G75*
G02*
X204562500Y-78089999I0J-249999D01*
G01*
G37*
G04 #@! TD.AperFunction*
G04 #@! TA.AperFunction,SMDPad,CuDef*
G36*
G01*
X207512500Y-78089999D02*
X207512500Y-79390001D01*
G75*
G02*
X207262501Y-79640000I-249999J0D01*
G01*
X206612499Y-79640000D01*
G75*
G02*
X206362500Y-79390001I0J249999D01*
G01*
X206362500Y-78089999D01*
G75*
G02*
X206612499Y-77840000I249999J0D01*
G01*
X207262501Y-77840000D01*
G75*
G02*
X207512500Y-78089999I0J-249999D01*
G01*
G37*
G04 #@! TD.AperFunction*
G04 #@! TA.AperFunction,SMDPad,CuDef*
G36*
G01*
X207512500Y-86979999D02*
X207512500Y-88280001D01*
G75*
G02*
X207262501Y-88530000I-249999J0D01*
G01*
X206612499Y-88530000D01*
G75*
G02*
X206362500Y-88280001I0J249999D01*
G01*
X206362500Y-86979999D01*
G75*
G02*
X206612499Y-86730000I249999J0D01*
G01*
X207262501Y-86730000D01*
G75*
G02*
X207512500Y-86979999I0J-249999D01*
G01*
G37*
G04 #@! TD.AperFunction*
G04 #@! TA.AperFunction,SMDPad,CuDef*
G36*
G01*
X204562500Y-86979999D02*
X204562500Y-88280001D01*
G75*
G02*
X204312501Y-88530000I-249999J0D01*
G01*
X203662499Y-88530000D01*
G75*
G02*
X203412500Y-88280001I0J249999D01*
G01*
X203412500Y-86979999D01*
G75*
G02*
X203662499Y-86730000I249999J0D01*
G01*
X204312501Y-86730000D01*
G75*
G02*
X204562500Y-86979999I0J-249999D01*
G01*
G37*
G04 #@! TD.AperFunction*
D21*
X207010000Y-71120000D03*
D22*
X207010000Y-68580000D03*
X207010000Y-66040000D03*
X207010000Y-63500000D03*
D23*
X179705000Y-76835000D03*
X177800000Y-89535000D03*
X210820000Y-74676000D03*
X160020000Y-85344000D03*
X206248000Y-73660000D03*
X203835000Y-85090000D03*
X160020000Y-88900000D03*
X176149000Y-66675000D03*
X189992000Y-89408000D03*
X205740000Y-75565000D03*
X203200000Y-69850000D03*
X202438000Y-75438000D03*
D24*
X171480000Y-96695000D02*
X174625000Y-93550000D01*
X169545000Y-96695000D02*
X171480000Y-96695000D01*
D25*
X176059990Y-92115010D02*
X176059990Y-91275010D01*
X174625000Y-93550000D02*
X176059990Y-92115010D01*
X176059990Y-91275010D02*
X177800000Y-89535000D01*
D26*
X177800000Y-89535000D02*
X177800000Y-89535000D01*
D27*
X182200000Y-71575000D02*
X183270000Y-71575000D01*
X180750000Y-73025000D02*
X182200000Y-71575000D01*
X180750000Y-74520000D02*
X180750000Y-73025000D01*
X180750000Y-75790000D02*
X180750000Y-74520000D01*
X179705000Y-76835000D02*
X180750000Y-75790000D01*
D26*
X183335000Y-69035000D02*
X183270000Y-69035000D01*
X188935000Y-75617500D02*
X188935000Y-74700000D01*
X188935000Y-74700000D02*
X189852500Y-74700000D01*
X190770000Y-77452500D02*
X190770000Y-74700000D01*
X188935000Y-78370000D02*
X192605000Y-78370000D01*
X192605000Y-78370000D02*
X192605000Y-74700000D01*
X188935000Y-76535000D02*
X192605000Y-76535000D01*
X191687500Y-74700000D02*
X192605000Y-74700000D01*
X189852500Y-74700000D02*
X192605000Y-74700000D01*
X188935000Y-75617500D02*
X188935000Y-78370000D01*
X190770000Y-78370000D02*
X190770000Y-74700000D01*
X183090000Y-69215000D02*
X183270000Y-69035000D01*
X180750000Y-69215000D02*
X183090000Y-69215000D01*
X207010000Y-71120000D02*
X207500680Y-71610680D01*
D24*
X162100000Y-89995000D02*
X165100000Y-89995000D01*
X161290000Y-90805000D02*
X162100000Y-89995000D01*
X161290000Y-90805000D02*
X161290000Y-90170000D01*
X161290000Y-90170000D02*
X160020000Y-88900000D01*
D26*
X160020000Y-88900000D02*
X160020000Y-88900000D01*
D24*
X161290000Y-90805000D02*
X161290000Y-91870000D01*
X202882500Y-84137500D02*
X202882500Y-82867500D01*
X203200000Y-82550000D02*
X203987500Y-82550000D01*
X202882500Y-82867500D02*
X203200000Y-82550000D01*
X201475000Y-85545000D02*
X202882500Y-84137500D01*
X200270000Y-85545000D02*
X201475000Y-85545000D01*
X202882500Y-84137500D02*
X203835000Y-85090000D01*
D28*
X205740000Y-68580000D02*
X207010000Y-68580000D01*
X205105000Y-69215000D02*
X205740000Y-68580000D01*
X205105000Y-72665000D02*
X205105000Y-69215000D01*
X203655000Y-74115000D02*
X205105000Y-72665000D01*
X200270000Y-74115000D02*
X203655000Y-74115000D01*
X202745000Y-72845000D02*
X200270000Y-72845000D01*
D26*
X207010000Y-66040000D02*
X207645000Y-66040000D01*
D28*
X208075000Y-65610000D02*
X210185000Y-65610000D01*
X207645000Y-66040000D02*
X208075000Y-65610000D01*
X202745000Y-72845000D02*
X204525001Y-71064999D01*
X204525001Y-71064999D02*
X204525001Y-66619999D01*
X205105000Y-66040000D02*
X207010000Y-66040000D01*
X204525001Y-66619999D02*
X205105000Y-66040000D01*
D24*
X196215000Y-86545000D02*
X196215000Y-87795000D01*
X200495000Y-92075000D02*
X204265000Y-92075000D01*
X196215000Y-87795000D02*
X200495000Y-92075000D01*
X204265000Y-89945000D02*
X204790000Y-89420000D01*
X204265000Y-92075000D02*
X204265000Y-89945000D01*
D26*
X204470000Y-92280000D02*
X204265000Y-92075000D01*
D24*
X204470000Y-95885000D02*
X204470000Y-92280000D01*
X204790000Y-89420000D02*
X206490000Y-89420000D01*
X206937500Y-88972500D02*
X206937500Y-87630000D01*
X206490000Y-89420000D02*
X206937500Y-88972500D01*
X179705000Y-79375000D02*
X179705000Y-90170000D01*
X182880000Y-93345000D02*
X184955000Y-93345000D01*
X179705000Y-90170000D02*
X182880000Y-93345000D01*
X207010000Y-97155000D02*
X207010000Y-95885000D01*
X206375000Y-97790000D02*
X207010000Y-97155000D01*
X198120000Y-97790000D02*
X206375000Y-97790000D01*
X180340000Y-99060000D02*
X180340000Y-95885000D01*
X180340000Y-95885000D02*
X182880000Y-93345000D01*
X179705000Y-79375000D02*
X177800000Y-77470000D01*
X177800000Y-77470000D02*
X177800000Y-73025000D01*
X177800000Y-66675000D02*
X177800000Y-69850000D01*
X177800000Y-66675000D02*
X176850000Y-66675000D01*
D27*
X182083190Y-70305000D02*
X183270000Y-70305000D01*
D24*
X177800000Y-73025000D02*
X177800000Y-71755000D01*
D27*
X181268190Y-71120000D02*
X182083190Y-70305000D01*
X177800000Y-71120000D02*
X181268190Y-71120000D01*
D24*
X177800000Y-71755000D02*
X177800000Y-71120000D01*
X177800000Y-71120000D02*
X177800000Y-69850000D01*
X206937500Y-82550000D02*
X209550000Y-82550000D01*
X209550000Y-90170000D02*
X209550000Y-82550000D01*
X206937500Y-78740000D02*
X206937500Y-82550000D01*
X207215000Y-92075000D02*
X208915000Y-92075000D01*
X209550000Y-91440000D02*
X209550000Y-90170000D01*
X208915000Y-92075000D02*
X209550000Y-91440000D01*
D26*
X207010000Y-92280000D02*
X207215000Y-92075000D01*
D24*
X207010000Y-95885000D02*
X207010000Y-92280000D01*
D28*
X209345000Y-63500000D02*
X210185000Y-62660000D01*
X207010000Y-63500000D02*
X209345000Y-63500000D01*
D24*
X210820000Y-67945000D02*
X212090000Y-66675000D01*
X212090000Y-66675000D02*
X212090000Y-63500000D01*
X211250000Y-62660000D02*
X210185000Y-62660000D01*
X212090000Y-63500000D02*
X211250000Y-62660000D01*
X210185000Y-67945000D02*
X209550000Y-68580000D01*
X210820000Y-67945000D02*
X210185000Y-67945000D01*
X209550000Y-82550000D02*
X209550000Y-68580000D01*
X198120000Y-97790000D02*
X192405000Y-97790000D01*
X192405000Y-97790000D02*
X190500000Y-95885000D01*
X189865000Y-93345000D02*
X190500000Y-93980000D01*
X190500000Y-95885000D02*
X190500000Y-93980000D01*
D28*
X184955000Y-93345000D02*
X189865000Y-93345000D01*
D24*
X176850000Y-66675000D02*
X176149000Y-66675000D01*
D26*
X176149000Y-66675000D02*
X175895000Y-66675000D01*
X200270000Y-80465000D02*
X200205000Y-80465000D01*
D24*
X198628000Y-94488000D02*
X193548000Y-89408000D01*
X193548000Y-89408000D02*
X189992000Y-89408000D01*
D26*
X189992000Y-89408000D02*
X189992000Y-89408000D01*
D24*
X204550000Y-76755000D02*
X205740000Y-75565000D01*
D26*
X205740000Y-75565000D02*
X205740000Y-75565000D01*
D24*
X201520000Y-80465000D02*
X203200000Y-78785000D01*
X200270000Y-80465000D02*
X201520000Y-80465000D01*
D26*
X203942500Y-78785000D02*
X203987500Y-78740000D01*
D24*
X203200000Y-78785000D02*
X203942500Y-78785000D01*
X203987500Y-77317500D02*
X204550000Y-76755000D01*
X203987500Y-78740000D02*
X203987500Y-77317500D01*
X203200000Y-71120000D02*
X203200000Y-69850000D01*
X202745000Y-71575000D02*
X203200000Y-71120000D01*
X200270000Y-71575000D02*
X202745000Y-71575000D01*
X200270000Y-75385000D02*
X202385000Y-75385000D01*
X186305000Y-91055000D02*
X187325000Y-92075000D01*
X184955000Y-91055000D02*
X186305000Y-91055000D01*
D29*
X211967000Y-99657768D02*
X211967000Y-99657769D01*
X211967001Y-100842000D01*
X181785000Y-100842000D01*
X181785000Y-99960000D01*
X182028695Y-99960000D01*
X182041882Y-100093891D01*
X182080937Y-100222638D01*
X182144358Y-100341291D01*
X182229709Y-100445291D01*
X182333709Y-100530642D01*
X182452362Y-100594063D01*
X182581109Y-100633118D01*
X182715000Y-100646305D01*
X183040250Y-100643000D01*
X183211000Y-100472250D01*
X183211000Y-99139000D01*
X183369000Y-99139000D01*
X183369000Y-100472250D01*
X183539750Y-100643000D01*
X183865000Y-100646305D01*
X183998891Y-100633118D01*
X184127638Y-100594063D01*
X184246291Y-100530642D01*
X184350291Y-100445291D01*
X184435642Y-100341291D01*
X184499063Y-100222638D01*
X184538118Y-100093891D01*
X184551305Y-99960000D01*
X184548000Y-99309750D01*
X184377250Y-99139000D01*
X183369000Y-99139000D01*
X183211000Y-99139000D01*
X182202750Y-99139000D01*
X182032000Y-99309750D01*
X182028695Y-99960000D01*
X181785000Y-99960000D01*
X181785000Y-99695000D01*
X181781637Y-99660859D01*
X181771679Y-99628030D01*
X181755507Y-99597775D01*
X181733744Y-99571256D01*
X181707225Y-99549493D01*
X181676970Y-99533321D01*
X181644141Y-99523363D01*
X181610000Y-99520000D01*
X181601304Y-99520000D01*
X181601304Y-98409999D01*
X181583313Y-98227335D01*
X181562888Y-98160000D01*
X182028695Y-98160000D01*
X182032000Y-98810250D01*
X182202750Y-98981000D01*
X183211000Y-98981000D01*
X183211000Y-97647750D01*
X183369000Y-97647750D01*
X183369000Y-98981000D01*
X184377250Y-98981000D01*
X184548000Y-98810250D01*
X184551305Y-98160000D01*
X184538118Y-98026109D01*
X184499063Y-97897362D01*
X184435642Y-97778709D01*
X184350291Y-97674709D01*
X184246291Y-97589358D01*
X184127638Y-97525937D01*
X183998891Y-97486882D01*
X183865000Y-97473695D01*
X183539750Y-97477000D01*
X183369000Y-97647750D01*
X183211000Y-97647750D01*
X183040250Y-97477000D01*
X182715000Y-97473695D01*
X182581109Y-97486882D01*
X182452362Y-97525937D01*
X182333709Y-97589358D01*
X182229709Y-97674709D01*
X182144358Y-97778709D01*
X182080937Y-97897362D01*
X182041882Y-98026109D01*
X182028695Y-98160000D01*
X181562888Y-98160000D01*
X181530032Y-98051691D01*
X181443508Y-97889817D01*
X181423000Y-97864828D01*
X181423000Y-96333592D01*
X181656592Y-96100000D01*
X183613695Y-96100000D01*
X183626882Y-96233891D01*
X183665937Y-96362638D01*
X183729358Y-96481291D01*
X183814709Y-96585291D01*
X183918709Y-96670642D01*
X184037362Y-96734063D01*
X184166109Y-96773118D01*
X184300000Y-96786305D01*
X184705250Y-96783000D01*
X184876000Y-96612250D01*
X184876000Y-95714000D01*
X185034000Y-95714000D01*
X185034000Y-96612250D01*
X185204750Y-96783000D01*
X185610000Y-96786305D01*
X185743891Y-96773118D01*
X185872638Y-96734063D01*
X185991291Y-96670642D01*
X186095291Y-96585291D01*
X186180642Y-96481291D01*
X186244063Y-96362638D01*
X186283118Y-96233891D01*
X186296305Y-96100000D01*
X186293000Y-95884750D01*
X186122250Y-95714000D01*
X185034000Y-95714000D01*
X184876000Y-95714000D01*
X183787750Y-95714000D01*
X183617000Y-95884750D01*
X183613695Y-96100000D01*
X181656592Y-96100000D01*
X182083258Y-95673334D01*
X186378389Y-95673334D01*
X186455100Y-95946717D01*
X186731621Y-96090837D01*
X187030944Y-96178242D01*
X187341568Y-96205572D01*
X187651554Y-96171777D01*
X187948991Y-96078156D01*
X188194900Y-95946717D01*
X188271611Y-95673334D01*
X187325000Y-94726723D01*
X186378389Y-95673334D01*
X182083258Y-95673334D01*
X183328593Y-94428000D01*
X184007313Y-94428000D01*
X184037363Y-94444062D01*
X184166109Y-94483117D01*
X184235989Y-94490000D01*
X184166109Y-94496882D01*
X184037362Y-94535937D01*
X183918709Y-94599358D01*
X183814709Y-94684709D01*
X183729358Y-94788709D01*
X183665937Y-94907362D01*
X183626882Y-95036109D01*
X183613695Y-95170000D01*
X183617000Y-95385250D01*
X183787750Y-95556000D01*
X184876000Y-95556000D01*
X184876000Y-95536000D01*
X185034000Y-95536000D01*
X185034000Y-95556000D01*
X186122250Y-95556000D01*
X186149512Y-95528738D01*
X186266666Y-95561611D01*
X187213277Y-94615000D01*
X187199135Y-94600858D01*
X187310858Y-94489135D01*
X187325000Y-94503277D01*
X187339142Y-94489135D01*
X187450865Y-94600858D01*
X187436723Y-94615000D01*
X188383334Y-95561611D01*
X188656717Y-95484900D01*
X188800837Y-95208379D01*
X188888242Y-94909056D01*
X188915572Y-94598432D01*
X188881777Y-94288446D01*
X188847013Y-94178000D01*
X189166408Y-94178000D01*
X189417001Y-94428593D01*
X189417000Y-95831797D01*
X189411760Y-95885000D01*
X189417000Y-95938200D01*
X189417000Y-95938202D01*
X189432670Y-96097304D01*
X189494597Y-96301450D01*
X189595162Y-96489594D01*
X189730498Y-96654502D01*
X189771831Y-96688423D01*
X191601581Y-98518174D01*
X191635498Y-98559502D01*
X191800406Y-98694838D01*
X191988549Y-98795403D01*
X192192695Y-98857330D01*
X192351797Y-98873000D01*
X192351799Y-98873000D01*
X192405000Y-98878240D01*
X192458200Y-98873000D01*
X206321800Y-98873000D01*
X206375000Y-98878240D01*
X206428200Y-98873000D01*
X206428203Y-98873000D01*
X206587305Y-98857330D01*
X206791451Y-98795403D01*
X206979594Y-98694838D01*
X207144502Y-98559502D01*
X207178422Y-98518170D01*
X207738174Y-97958419D01*
X207779502Y-97924502D01*
X207914838Y-97759594D01*
X208015403Y-97571451D01*
X208077330Y-97367305D01*
X208093000Y-97208203D01*
X208093000Y-97208201D01*
X208095849Y-97179272D01*
X208317271Y-96957850D01*
X208501455Y-96682199D01*
X208628323Y-96375913D01*
X208693000Y-96050761D01*
X208693000Y-95719239D01*
X208628323Y-95394087D01*
X208501455Y-95087801D01*
X208317271Y-94812150D01*
X208093000Y-94587879D01*
X208093000Y-93476576D01*
X208202067Y-93387067D01*
X208318508Y-93245183D01*
X208365109Y-93158000D01*
X208861800Y-93158000D01*
X208915000Y-93163240D01*
X208968200Y-93158000D01*
X208968203Y-93158000D01*
X209127305Y-93142330D01*
X209331451Y-93080403D01*
X209519594Y-92979838D01*
X209684502Y-92844502D01*
X209718422Y-92803170D01*
X210278174Y-92243419D01*
X210319502Y-92209502D01*
X210454838Y-92044594D01*
X210555403Y-91856451D01*
X210617330Y-91652305D01*
X210633000Y-91493203D01*
X210633000Y-91493201D01*
X210638240Y-91440000D01*
X210633000Y-91386800D01*
X210633000Y-82603202D01*
X210638240Y-82550000D01*
X210633000Y-82496797D01*
X210633000Y-69028592D01*
X210633593Y-69028000D01*
X210766800Y-69028000D01*
X210820000Y-69033240D01*
X210873200Y-69028000D01*
X210873203Y-69028000D01*
X211032305Y-69012330D01*
X211236451Y-68950403D01*
X211424594Y-68849838D01*
X211589502Y-68714502D01*
X211623423Y-68673169D01*
X211967001Y-68329592D01*
X211967000Y-99657768D01*
G04 #@! TA.AperFunction,Conductor*
D30*
G36*
X211967000Y-99657768D02*
G01*
X211967000Y-99657769D01*
X211967001Y-100842000D01*
X181785000Y-100842000D01*
X181785000Y-99960000D01*
X182028695Y-99960000D01*
X182041882Y-100093891D01*
X182080937Y-100222638D01*
X182144358Y-100341291D01*
X182229709Y-100445291D01*
X182333709Y-100530642D01*
X182452362Y-100594063D01*
X182581109Y-100633118D01*
X182715000Y-100646305D01*
X183040250Y-100643000D01*
X183211000Y-100472250D01*
X183211000Y-99139000D01*
X183369000Y-99139000D01*
X183369000Y-100472250D01*
X183539750Y-100643000D01*
X183865000Y-100646305D01*
X183998891Y-100633118D01*
X184127638Y-100594063D01*
X184246291Y-100530642D01*
X184350291Y-100445291D01*
X184435642Y-100341291D01*
X184499063Y-100222638D01*
X184538118Y-100093891D01*
X184551305Y-99960000D01*
X184548000Y-99309750D01*
X184377250Y-99139000D01*
X183369000Y-99139000D01*
X183211000Y-99139000D01*
X182202750Y-99139000D01*
X182032000Y-99309750D01*
X182028695Y-99960000D01*
X181785000Y-99960000D01*
X181785000Y-99695000D01*
X181781637Y-99660859D01*
X181771679Y-99628030D01*
X181755507Y-99597775D01*
X181733744Y-99571256D01*
X181707225Y-99549493D01*
X181676970Y-99533321D01*
X181644141Y-99523363D01*
X181610000Y-99520000D01*
X181601304Y-99520000D01*
X181601304Y-98409999D01*
X181583313Y-98227335D01*
X181562888Y-98160000D01*
X182028695Y-98160000D01*
X182032000Y-98810250D01*
X182202750Y-98981000D01*
X183211000Y-98981000D01*
X183211000Y-97647750D01*
X183369000Y-97647750D01*
X183369000Y-98981000D01*
X184377250Y-98981000D01*
X184548000Y-98810250D01*
X184551305Y-98160000D01*
X184538118Y-98026109D01*
X184499063Y-97897362D01*
X184435642Y-97778709D01*
X184350291Y-97674709D01*
X184246291Y-97589358D01*
X184127638Y-97525937D01*
X183998891Y-97486882D01*
X183865000Y-97473695D01*
X183539750Y-97477000D01*
X183369000Y-97647750D01*
X183211000Y-97647750D01*
X183040250Y-97477000D01*
X182715000Y-97473695D01*
X182581109Y-97486882D01*
X182452362Y-97525937D01*
X182333709Y-97589358D01*
X182229709Y-97674709D01*
X182144358Y-97778709D01*
X182080937Y-97897362D01*
X182041882Y-98026109D01*
X182028695Y-98160000D01*
X181562888Y-98160000D01*
X181530032Y-98051691D01*
X181443508Y-97889817D01*
X181423000Y-97864828D01*
X181423000Y-96333592D01*
X181656592Y-96100000D01*
X183613695Y-96100000D01*
X183626882Y-96233891D01*
X183665937Y-96362638D01*
X183729358Y-96481291D01*
X183814709Y-96585291D01*
X183918709Y-96670642D01*
X184037362Y-96734063D01*
X184166109Y-96773118D01*
X184300000Y-96786305D01*
X184705250Y-96783000D01*
X184876000Y-96612250D01*
X184876000Y-95714000D01*
X185034000Y-95714000D01*
X185034000Y-96612250D01*
X185204750Y-96783000D01*
X185610000Y-96786305D01*
X185743891Y-96773118D01*
X185872638Y-96734063D01*
X185991291Y-96670642D01*
X186095291Y-96585291D01*
X186180642Y-96481291D01*
X186244063Y-96362638D01*
X186283118Y-96233891D01*
X186296305Y-96100000D01*
X186293000Y-95884750D01*
X186122250Y-95714000D01*
X185034000Y-95714000D01*
X184876000Y-95714000D01*
X183787750Y-95714000D01*
X183617000Y-95884750D01*
X183613695Y-96100000D01*
X181656592Y-96100000D01*
X182083258Y-95673334D01*
X186378389Y-95673334D01*
X186455100Y-95946717D01*
X186731621Y-96090837D01*
X187030944Y-96178242D01*
X187341568Y-96205572D01*
X187651554Y-96171777D01*
X187948991Y-96078156D01*
X188194900Y-95946717D01*
X188271611Y-95673334D01*
X187325000Y-94726723D01*
X186378389Y-95673334D01*
X182083258Y-95673334D01*
X183328593Y-94428000D01*
X184007313Y-94428000D01*
X184037363Y-94444062D01*
X184166109Y-94483117D01*
X184235989Y-94490000D01*
X184166109Y-94496882D01*
X184037362Y-94535937D01*
X183918709Y-94599358D01*
X183814709Y-94684709D01*
X183729358Y-94788709D01*
X183665937Y-94907362D01*
X183626882Y-95036109D01*
X183613695Y-95170000D01*
X183617000Y-95385250D01*
X183787750Y-95556000D01*
X184876000Y-95556000D01*
X184876000Y-95536000D01*
X185034000Y-95536000D01*
X185034000Y-95556000D01*
X186122250Y-95556000D01*
X186149512Y-95528738D01*
X186266666Y-95561611D01*
X187213277Y-94615000D01*
X187199135Y-94600858D01*
X187310858Y-94489135D01*
X187325000Y-94503277D01*
X187339142Y-94489135D01*
X187450865Y-94600858D01*
X187436723Y-94615000D01*
X188383334Y-95561611D01*
X188656717Y-95484900D01*
X188800837Y-95208379D01*
X188888242Y-94909056D01*
X188915572Y-94598432D01*
X188881777Y-94288446D01*
X188847013Y-94178000D01*
X189166408Y-94178000D01*
X189417001Y-94428593D01*
X189417000Y-95831797D01*
X189411760Y-95885000D01*
X189417000Y-95938200D01*
X189417000Y-95938202D01*
X189432670Y-96097304D01*
X189494597Y-96301450D01*
X189595162Y-96489594D01*
X189730498Y-96654502D01*
X189771831Y-96688423D01*
X191601581Y-98518174D01*
X191635498Y-98559502D01*
X191800406Y-98694838D01*
X191988549Y-98795403D01*
X192192695Y-98857330D01*
X192351797Y-98873000D01*
X192351799Y-98873000D01*
X192405000Y-98878240D01*
X192458200Y-98873000D01*
X206321800Y-98873000D01*
X206375000Y-98878240D01*
X206428200Y-98873000D01*
X206428203Y-98873000D01*
X206587305Y-98857330D01*
X206791451Y-98795403D01*
X206979594Y-98694838D01*
X207144502Y-98559502D01*
X207178422Y-98518170D01*
X207738174Y-97958419D01*
X207779502Y-97924502D01*
X207914838Y-97759594D01*
X208015403Y-97571451D01*
X208077330Y-97367305D01*
X208093000Y-97208203D01*
X208093000Y-97208201D01*
X208095849Y-97179272D01*
X208317271Y-96957850D01*
X208501455Y-96682199D01*
X208628323Y-96375913D01*
X208693000Y-96050761D01*
X208693000Y-95719239D01*
X208628323Y-95394087D01*
X208501455Y-95087801D01*
X208317271Y-94812150D01*
X208093000Y-94587879D01*
X208093000Y-93476576D01*
X208202067Y-93387067D01*
X208318508Y-93245183D01*
X208365109Y-93158000D01*
X208861800Y-93158000D01*
X208915000Y-93163240D01*
X208968200Y-93158000D01*
X208968203Y-93158000D01*
X209127305Y-93142330D01*
X209331451Y-93080403D01*
X209519594Y-92979838D01*
X209684502Y-92844502D01*
X209718422Y-92803170D01*
X210278174Y-92243419D01*
X210319502Y-92209502D01*
X210454838Y-92044594D01*
X210555403Y-91856451D01*
X210617330Y-91652305D01*
X210633000Y-91493203D01*
X210633000Y-91493201D01*
X210638240Y-91440000D01*
X210633000Y-91386800D01*
X210633000Y-82603202D01*
X210638240Y-82550000D01*
X210633000Y-82496797D01*
X210633000Y-69028592D01*
X210633593Y-69028000D01*
X210766800Y-69028000D01*
X210820000Y-69033240D01*
X210873200Y-69028000D01*
X210873203Y-69028000D01*
X211032305Y-69012330D01*
X211236451Y-68950403D01*
X211424594Y-68849838D01*
X211589502Y-68714502D01*
X211623423Y-68673169D01*
X211967001Y-68329592D01*
X211967000Y-99657768D01*
G37*
G04 #@! TD.AperFunction*
D29*
X179743385Y-65245658D02*
X179689709Y-65289709D01*
X179604358Y-65393709D01*
X179540937Y-65512362D01*
X179501882Y-65641109D01*
X179488695Y-65775000D01*
X179492000Y-66425250D01*
X179662750Y-66596000D01*
X180574365Y-66596000D01*
X180829000Y-67009782D01*
X180829000Y-69136000D01*
X180849000Y-69136000D01*
X180849000Y-69294000D01*
X180829000Y-69294000D01*
X180829000Y-69314000D01*
X180671000Y-69314000D01*
X180671000Y-69294000D01*
X179662750Y-69294000D01*
X179492000Y-69464750D01*
X179488837Y-70087000D01*
X179031381Y-70087000D01*
X179043313Y-70047665D01*
X179061304Y-69865001D01*
X179061304Y-68564999D01*
X179043313Y-68382335D01*
X178990032Y-68206691D01*
X178903508Y-68044817D01*
X178883000Y-68019828D01*
X178883000Y-67870172D01*
X178903508Y-67845183D01*
X178990032Y-67683309D01*
X179022887Y-67575000D01*
X179488695Y-67575000D01*
X179501882Y-67708891D01*
X179540937Y-67837638D01*
X179598323Y-67945000D01*
X179540937Y-68052362D01*
X179501882Y-68181109D01*
X179488695Y-68315000D01*
X179492000Y-68965250D01*
X179662750Y-69136000D01*
X180671000Y-69136000D01*
X180671000Y-66754000D01*
X179662750Y-66754000D01*
X179492000Y-66924750D01*
X179488695Y-67575000D01*
X179022887Y-67575000D01*
X179043313Y-67507665D01*
X179061304Y-67325001D01*
X179061304Y-66024999D01*
X179043313Y-65842335D01*
X178990032Y-65666691D01*
X178903508Y-65504817D01*
X178787067Y-65362933D01*
X178645183Y-65246492D01*
X178483309Y-65159968D01*
X178307665Y-65106687D01*
X178125001Y-65088696D01*
X177474999Y-65088696D01*
X177292335Y-65106687D01*
X177116691Y-65159968D01*
X176954817Y-65246492D01*
X176812933Y-65362933D01*
X176696492Y-65504817D01*
X176649891Y-65592000D01*
X176042334Y-65592000D01*
X175989899Y-65602430D01*
X175936695Y-65607670D01*
X175885535Y-65623189D01*
X175833101Y-65633619D01*
X175783709Y-65654078D01*
X175732549Y-65669597D01*
X175685400Y-65694799D01*
X175636007Y-65715258D01*
X175591553Y-65744961D01*
X175544406Y-65770162D01*
X175503081Y-65804076D01*
X175458628Y-65833779D01*
X175420825Y-65871582D01*
X175379498Y-65905498D01*
X175345582Y-65946825D01*
X175307779Y-65984628D01*
X175278076Y-66029081D01*
X175244162Y-66070406D01*
X175218961Y-66117553D01*
X175189258Y-66162007D01*
X175168799Y-66211400D01*
X175143597Y-66258549D01*
X175128078Y-66309709D01*
X175107619Y-66359101D01*
X175097189Y-66411535D01*
X175081670Y-66462695D01*
X175076430Y-66515899D01*
X175066000Y-66568334D01*
X175066000Y-66621797D01*
X175060760Y-66675000D01*
X175066000Y-66728202D01*
X175066000Y-66781666D01*
X175076430Y-66834101D01*
X175081670Y-66887305D01*
X175097189Y-66938465D01*
X175107619Y-66990899D01*
X175128078Y-67040291D01*
X175143597Y-67091451D01*
X175168799Y-67138600D01*
X175189258Y-67187993D01*
X175218961Y-67232447D01*
X175244162Y-67279594D01*
X175278076Y-67320919D01*
X175307779Y-67365372D01*
X175345582Y-67403175D01*
X175379498Y-67444502D01*
X175420825Y-67478418D01*
X175458628Y-67516221D01*
X175503081Y-67545924D01*
X175544406Y-67579838D01*
X175591553Y-67605039D01*
X175636007Y-67634742D01*
X175685400Y-67655201D01*
X175732549Y-67680403D01*
X175783709Y-67695922D01*
X175833101Y-67716381D01*
X175885535Y-67726811D01*
X175936695Y-67742330D01*
X175989899Y-67747570D01*
X176042334Y-67758000D01*
X176649891Y-67758000D01*
X176696492Y-67845183D01*
X176717000Y-67870173D01*
X176717000Y-68019827D01*
X176696492Y-68044817D01*
X176609968Y-68206691D01*
X176556687Y-68382335D01*
X176538696Y-68564999D01*
X176538696Y-69865001D01*
X176556687Y-70047665D01*
X176609968Y-70223309D01*
X176696492Y-70385183D01*
X176717000Y-70410172D01*
X176717000Y-71829828D01*
X176696492Y-71854817D01*
X176609968Y-72016691D01*
X176556687Y-72192335D01*
X176538696Y-72374999D01*
X176538696Y-73675001D01*
X176556687Y-73857665D01*
X176609968Y-74033309D01*
X176696492Y-74195183D01*
X176717001Y-74220173D01*
X176717000Y-77416799D01*
X176711760Y-77470000D01*
X176717000Y-77523200D01*
X176717000Y-77523202D01*
X176732670Y-77682304D01*
X176794597Y-77886450D01*
X176895162Y-78074594D01*
X177030498Y-78239502D01*
X177071831Y-78273423D01*
X178622000Y-79823593D01*
X178622001Y-88825408D01*
X178490372Y-88693779D01*
X178312993Y-88575258D01*
X178115899Y-88493619D01*
X177906666Y-88452000D01*
X177693334Y-88452000D01*
X177484101Y-88493619D01*
X177287007Y-88575258D01*
X177109628Y-88693779D01*
X176958779Y-88844628D01*
X176840258Y-89022007D01*
X176758619Y-89219101D01*
X176758007Y-89222176D01*
X176172739Y-89807445D01*
X176159063Y-89762362D01*
X176095642Y-89643709D01*
X176010291Y-89539709D01*
X175906291Y-89454358D01*
X175787638Y-89390937D01*
X175658891Y-89351882D01*
X175525000Y-89338695D01*
X174874750Y-89342000D01*
X174704000Y-89512750D01*
X174704000Y-90521000D01*
X174724000Y-90521000D01*
X174724000Y-90679000D01*
X174704000Y-90679000D01*
X174704000Y-91687250D01*
X174874750Y-91858000D01*
X174961742Y-91858442D01*
X174531488Y-92288696D01*
X173974999Y-92288696D01*
X173792335Y-92306687D01*
X173616691Y-92359968D01*
X173454817Y-92446492D01*
X173312933Y-92562933D01*
X173196492Y-92704817D01*
X173109968Y-92866691D01*
X173056687Y-93042335D01*
X173038696Y-93224999D01*
X173038696Y-93604711D01*
X171031408Y-95612000D01*
X170981304Y-95612000D01*
X170981304Y-95545000D01*
X170968117Y-95411109D01*
X170929062Y-95282363D01*
X170865641Y-95163710D01*
X170780290Y-95059710D01*
X170676290Y-94974359D01*
X170557637Y-94910938D01*
X170428891Y-94871883D01*
X170295000Y-94858696D01*
X168795000Y-94858696D01*
X168661109Y-94871883D01*
X168532363Y-94910938D01*
X168413710Y-94974359D01*
X168309710Y-95059710D01*
X168224359Y-95163710D01*
X168160938Y-95282363D01*
X168121883Y-95411109D01*
X168108696Y-95545000D01*
X168108696Y-97845000D01*
X168121883Y-97978891D01*
X168160938Y-98107637D01*
X168224359Y-98226290D01*
X168309710Y-98330290D01*
X168413710Y-98415641D01*
X168532363Y-98479062D01*
X168661109Y-98518117D01*
X168795000Y-98531304D01*
X170295000Y-98531304D01*
X170428891Y-98518117D01*
X170557637Y-98479062D01*
X170676290Y-98415641D01*
X170780290Y-98330290D01*
X170865641Y-98226290D01*
X170929062Y-98107637D01*
X170968117Y-97978891D01*
X170981304Y-97845000D01*
X170981304Y-97778000D01*
X171426800Y-97778000D01*
X171480000Y-97783240D01*
X171533200Y-97778000D01*
X171533203Y-97778000D01*
X171692305Y-97762330D01*
X171896451Y-97700403D01*
X172084594Y-97599838D01*
X172249502Y-97464502D01*
X172283423Y-97423169D01*
X174895290Y-94811304D01*
X175275001Y-94811304D01*
X175457665Y-94793313D01*
X175633309Y-94740032D01*
X175795183Y-94653508D01*
X175937067Y-94537067D01*
X176053508Y-94395183D01*
X176140032Y-94233309D01*
X176193313Y-94057665D01*
X176211304Y-93875001D01*
X176211304Y-93318512D01*
X176704117Y-92825699D01*
X176740676Y-92795696D01*
X176860392Y-92649821D01*
X176923696Y-92531387D01*
X176923696Y-94965000D01*
X176936883Y-95098891D01*
X176975938Y-95227637D01*
X177039359Y-95346290D01*
X177124710Y-95450290D01*
X177228710Y-95535641D01*
X177347363Y-95599062D01*
X177476109Y-95638117D01*
X177610000Y-95651304D01*
X178920000Y-95651304D01*
X179053891Y-95638117D01*
X179182637Y-95599062D01*
X179301290Y-95535641D01*
X179318540Y-95521484D01*
X179272671Y-95672695D01*
X179271006Y-95689597D01*
X179251760Y-95885000D01*
X179257001Y-95938210D01*
X179257000Y-97864827D01*
X179236492Y-97889817D01*
X179149968Y-98051691D01*
X179096687Y-98227335D01*
X179078696Y-98409999D01*
X179078696Y-99520000D01*
X179070000Y-99520000D01*
X179035859Y-99523363D01*
X179003030Y-99533321D01*
X178972775Y-99549493D01*
X178946256Y-99571256D01*
X178924493Y-99597775D01*
X178908321Y-99628030D01*
X178898363Y-99660859D01*
X178895000Y-99695000D01*
X178895000Y-100842000D01*
X159508000Y-100842000D01*
X159508000Y-97845000D01*
X163663695Y-97845000D01*
X163676882Y-97978891D01*
X163715937Y-98107638D01*
X163779358Y-98226291D01*
X163864709Y-98330291D01*
X163968709Y-98415642D01*
X164087362Y-98479063D01*
X164216109Y-98518118D01*
X164350000Y-98531305D01*
X164850250Y-98528000D01*
X165021000Y-98357250D01*
X165021000Y-96774000D01*
X165179000Y-96774000D01*
X165179000Y-98357250D01*
X165349750Y-98528000D01*
X165850000Y-98531305D01*
X165983891Y-98518118D01*
X166112638Y-98479063D01*
X166231291Y-98415642D01*
X166335291Y-98330291D01*
X166420642Y-98226291D01*
X166484063Y-98107638D01*
X166523118Y-97978891D01*
X166536305Y-97845000D01*
X166533000Y-96944750D01*
X166362250Y-96774000D01*
X165179000Y-96774000D01*
X165021000Y-96774000D01*
X163837750Y-96774000D01*
X163667000Y-96944750D01*
X163663695Y-97845000D01*
X159508000Y-97845000D01*
X159508000Y-95395000D01*
X159703695Y-95395000D01*
X159716882Y-95528891D01*
X159755937Y-95657638D01*
X159819358Y-95776291D01*
X159904709Y-95880291D01*
X160008709Y-95965642D01*
X160127362Y-96029063D01*
X160256109Y-96068118D01*
X160390000Y-96081305D01*
X161040250Y-96078000D01*
X161211000Y-95907250D01*
X161211000Y-94899000D01*
X161369000Y-94899000D01*
X161369000Y-95907250D01*
X161539750Y-96078000D01*
X162190000Y-96081305D01*
X162323891Y-96068118D01*
X162452638Y-96029063D01*
X162571291Y-95965642D01*
X162675291Y-95880291D01*
X162760642Y-95776291D01*
X162824063Y-95657638D01*
X162858231Y-95545000D01*
X163663695Y-95545000D01*
X163667000Y-96445250D01*
X163837750Y-96616000D01*
X165021000Y-96616000D01*
X165021000Y-95032750D01*
X165179000Y-95032750D01*
X165179000Y-96616000D01*
X166362250Y-96616000D01*
X166533000Y-96445250D01*
X166536305Y-95545000D01*
X166523118Y-95411109D01*
X166484063Y-95282362D01*
X166420642Y-95163709D01*
X166335291Y-95059709D01*
X166231291Y-94974358D01*
X166112638Y-94910937D01*
X165983891Y-94871882D01*
X165850000Y-94858695D01*
X165349750Y-94862000D01*
X165179000Y-95032750D01*
X165021000Y-95032750D01*
X164850250Y-94862000D01*
X164350000Y-94858695D01*
X164216109Y-94871882D01*
X164087362Y-94910937D01*
X163968709Y-94974358D01*
X163864709Y-95059709D01*
X163779358Y-95163709D01*
X163715937Y-95282362D01*
X163676882Y-95411109D01*
X163663695Y-95545000D01*
X162858231Y-95545000D01*
X162863118Y-95528891D01*
X162876305Y-95395000D01*
X162873000Y-95069750D01*
X162702250Y-94899000D01*
X161369000Y-94899000D01*
X161211000Y-94899000D01*
X159877750Y-94899000D01*
X159707000Y-95069750D01*
X159703695Y-95395000D01*
X159508000Y-95395000D01*
X159508000Y-94245000D01*
X159703695Y-94245000D01*
X159707000Y-94570250D01*
X159877750Y-94741000D01*
X161211000Y-94741000D01*
X161211000Y-93732750D01*
X161369000Y-93732750D01*
X161369000Y-94741000D01*
X162702250Y-94741000D01*
X162873000Y-94570250D01*
X162876305Y-94245000D01*
X162863118Y-94111109D01*
X162824063Y-93982362D01*
X162760642Y-93863709D01*
X162675291Y-93759709D01*
X162571291Y-93674358D01*
X162452638Y-93610937D01*
X162323891Y-93571882D01*
X162190000Y-93558695D01*
X161539750Y-93562000D01*
X161369000Y-93732750D01*
X161211000Y-93732750D01*
X161040250Y-93562000D01*
X160390000Y-93558695D01*
X160256109Y-93571882D01*
X160127362Y-93610937D01*
X160008709Y-93674358D01*
X159904709Y-93759709D01*
X159819358Y-93863709D01*
X159755937Y-93982362D01*
X159716882Y-94111109D01*
X159703695Y-94245000D01*
X159508000Y-94245000D01*
X159508000Y-89919592D01*
X160207000Y-90618593D01*
X160207000Y-90719891D01*
X160119817Y-90766492D01*
X159977933Y-90882933D01*
X159861492Y-91024817D01*
X159774968Y-91186691D01*
X159721687Y-91362335D01*
X159703696Y-91544999D01*
X159703696Y-92195001D01*
X159721687Y-92377665D01*
X159774968Y-92553309D01*
X159861492Y-92715183D01*
X159977933Y-92857067D01*
X160119817Y-92973508D01*
X160281691Y-93060032D01*
X160457335Y-93113313D01*
X160639999Y-93131304D01*
X161940001Y-93131304D01*
X162122665Y-93113313D01*
X162298309Y-93060032D01*
X162460183Y-92973508D01*
X162602067Y-92857067D01*
X162718508Y-92715183D01*
X162805032Y-92553309D01*
X162858313Y-92377665D01*
X162876304Y-92195001D01*
X162876304Y-91544999D01*
X162858313Y-91362335D01*
X162805032Y-91186691D01*
X162746935Y-91078000D01*
X163663696Y-91078000D01*
X163663696Y-91145000D01*
X163676883Y-91278891D01*
X163715938Y-91407637D01*
X163779359Y-91526290D01*
X163864710Y-91630290D01*
X163968710Y-91715641D01*
X164087363Y-91779062D01*
X164216109Y-91818117D01*
X164350000Y-91831304D01*
X165850000Y-91831304D01*
X165983891Y-91818117D01*
X166112637Y-91779062D01*
X166231290Y-91715641D01*
X166335290Y-91630290D01*
X166420641Y-91526290D01*
X166484062Y-91407637D01*
X166523117Y-91278891D01*
X166536304Y-91145000D01*
X168108695Y-91145000D01*
X168121882Y-91278891D01*
X168160937Y-91407638D01*
X168224358Y-91526291D01*
X168309709Y-91630291D01*
X168413709Y-91715642D01*
X168532362Y-91779063D01*
X168661109Y-91818118D01*
X168795000Y-91831305D01*
X169295250Y-91828000D01*
X169466000Y-91657250D01*
X169466000Y-90074000D01*
X169624000Y-90074000D01*
X169624000Y-91657250D01*
X169794750Y-91828000D01*
X170295000Y-91831305D01*
X170428891Y-91818118D01*
X170557638Y-91779063D01*
X170676291Y-91715642D01*
X170780291Y-91630291D01*
X170865642Y-91526291D01*
X170929063Y-91407638D01*
X170968118Y-91278891D01*
X170978350Y-91175000D01*
X173038695Y-91175000D01*
X173051882Y-91308891D01*
X173090937Y-91437638D01*
X173154358Y-91556291D01*
X173239709Y-91660291D01*
X173343709Y-91745642D01*
X173462362Y-91809063D01*
X173591109Y-91848118D01*
X173725000Y-91861305D01*
X174375250Y-91858000D01*
X174546000Y-91687250D01*
X174546000Y-90679000D01*
X173212750Y-90679000D01*
X173042000Y-90849750D01*
X173038695Y-91175000D01*
X170978350Y-91175000D01*
X170981305Y-91145000D01*
X170978000Y-90244750D01*
X170807250Y-90074000D01*
X169624000Y-90074000D01*
X169466000Y-90074000D01*
X168282750Y-90074000D01*
X168112000Y-90244750D01*
X168108695Y-91145000D01*
X166536304Y-91145000D01*
X166536304Y-90025000D01*
X173038695Y-90025000D01*
X173042000Y-90350250D01*
X173212750Y-90521000D01*
X174546000Y-90521000D01*
X174546000Y-89512750D01*
X174375250Y-89342000D01*
X173725000Y-89338695D01*
X173591109Y-89351882D01*
X173462362Y-89390937D01*
X173343709Y-89454358D01*
X173239709Y-89539709D01*
X173154358Y-89643709D01*
X173090937Y-89762362D01*
X173051882Y-89891109D01*
X173038695Y-90025000D01*
X166536304Y-90025000D01*
X166536304Y-88845000D01*
X168108695Y-88845000D01*
X168112000Y-89745250D01*
X168282750Y-89916000D01*
X169466000Y-89916000D01*
X169466000Y-88332750D01*
X169624000Y-88332750D01*
X169624000Y-89916000D01*
X170807250Y-89916000D01*
X170978000Y-89745250D01*
X170981305Y-88845000D01*
X170968118Y-88711109D01*
X170929063Y-88582362D01*
X170865642Y-88463709D01*
X170780291Y-88359709D01*
X170676291Y-88274358D01*
X170557638Y-88210937D01*
X170428891Y-88171882D01*
X170295000Y-88158695D01*
X169794750Y-88162000D01*
X169624000Y-88332750D01*
X169466000Y-88332750D01*
X169295250Y-88162000D01*
X168795000Y-88158695D01*
X168661109Y-88171882D01*
X168532362Y-88210937D01*
X168413709Y-88274358D01*
X168309709Y-88359709D01*
X168224358Y-88463709D01*
X168160937Y-88582362D01*
X168121882Y-88711109D01*
X168108695Y-88845000D01*
X166536304Y-88845000D01*
X166523117Y-88711109D01*
X166484062Y-88582363D01*
X166420641Y-88463710D01*
X166335290Y-88359710D01*
X166231290Y-88274359D01*
X166112637Y-88210938D01*
X165983891Y-88171883D01*
X165850000Y-88158696D01*
X164350000Y-88158696D01*
X164216109Y-88171883D01*
X164087363Y-88210938D01*
X163968710Y-88274359D01*
X163864710Y-88359710D01*
X163779359Y-88463710D01*
X163715938Y-88582363D01*
X163676883Y-88711109D01*
X163663696Y-88845000D01*
X163663696Y-88912000D01*
X162153200Y-88912000D01*
X162100000Y-88906760D01*
X162046799Y-88912000D01*
X162046797Y-88912000D01*
X161887695Y-88927670D01*
X161683549Y-88989597D01*
X161655945Y-89004352D01*
X160861223Y-88209631D01*
X160861221Y-88209628D01*
X160710372Y-88058779D01*
X160665913Y-88029072D01*
X160624593Y-87995162D01*
X160577452Y-87969965D01*
X160532993Y-87940258D01*
X160483592Y-87919796D01*
X160436451Y-87894598D01*
X160385300Y-87879082D01*
X160335899Y-87858619D01*
X160283453Y-87848187D01*
X160232304Y-87832671D01*
X160179109Y-87827432D01*
X160126666Y-87817000D01*
X160073200Y-87817000D01*
X160020000Y-87811760D01*
X159966800Y-87817000D01*
X159913334Y-87817000D01*
X159860891Y-87827432D01*
X159807696Y-87832671D01*
X159756547Y-87848187D01*
X159704101Y-87858619D01*
X159654700Y-87879082D01*
X159603549Y-87894598D01*
X159556408Y-87919796D01*
X159508000Y-87939847D01*
X159508000Y-68414239D01*
X160877000Y-68414239D01*
X160877000Y-68745761D01*
X160941677Y-69070913D01*
X161068545Y-69377199D01*
X161252729Y-69652850D01*
X161449879Y-69850000D01*
X161252729Y-70047150D01*
X161068545Y-70322801D01*
X160941677Y-70629087D01*
X160877000Y-70954239D01*
X160877000Y-71285761D01*
X160941677Y-71610913D01*
X161068545Y-71917199D01*
X161252729Y-72192850D01*
X161487150Y-72427271D01*
X161762801Y-72611455D01*
X162069087Y-72738323D01*
X162394239Y-72803000D01*
X162725761Y-72803000D01*
X163050913Y-72738323D01*
X163357199Y-72611455D01*
X163632850Y-72427271D01*
X163867271Y-72192850D01*
X164051455Y-71917199D01*
X164178323Y-71610913D01*
X164243000Y-71285761D01*
X164243000Y-70954239D01*
X164178323Y-70629087D01*
X164051455Y-70322801D01*
X163867271Y-70047150D01*
X163670121Y-69850000D01*
X163867271Y-69652850D01*
X164051455Y-69377199D01*
X164178323Y-69070913D01*
X164243000Y-68745761D01*
X164243000Y-68414239D01*
X164178323Y-68089087D01*
X164051455Y-67782801D01*
X163867271Y-67507150D01*
X163632850Y-67272729D01*
X163560575Y-67224436D01*
X163577766Y-67169489D01*
X162560000Y-66151723D01*
X161542234Y-67169489D01*
X161559425Y-67224436D01*
X161487150Y-67272729D01*
X161252729Y-67507150D01*
X161068545Y-67782801D01*
X160941677Y-68089087D01*
X160877000Y-68414239D01*
X159508000Y-68414239D01*
X159508000Y-66052618D01*
X160868904Y-66052618D01*
X160903860Y-66382292D01*
X161002459Y-66698812D01*
X161146894Y-66969032D01*
X161430511Y-67057766D01*
X162448277Y-66040000D01*
X162671723Y-66040000D01*
X163689489Y-67057766D01*
X163973106Y-66969032D01*
X164127198Y-66675497D01*
X164221064Y-66357541D01*
X164251096Y-66027382D01*
X164216140Y-65697708D01*
X164117541Y-65381188D01*
X163973106Y-65110968D01*
X163689489Y-65022234D01*
X162671723Y-66040000D01*
X162448277Y-66040000D01*
X161430511Y-65022234D01*
X161146894Y-65110968D01*
X160992802Y-65404503D01*
X160898936Y-65722459D01*
X160868904Y-66052618D01*
X159508000Y-66052618D01*
X159508000Y-63334239D01*
X160877000Y-63334239D01*
X160877000Y-63665761D01*
X160941677Y-63990913D01*
X161068545Y-64297199D01*
X161252729Y-64572850D01*
X161487150Y-64807271D01*
X161559425Y-64855564D01*
X161542234Y-64910511D01*
X162560000Y-65928277D01*
X163577766Y-64910511D01*
X163560575Y-64855564D01*
X163632850Y-64807271D01*
X163867271Y-64572850D01*
X164051455Y-64297199D01*
X164178323Y-63990913D01*
X164243000Y-63665761D01*
X164243000Y-63334239D01*
X164178323Y-63009087D01*
X164051455Y-62702801D01*
X163867271Y-62427150D01*
X163632850Y-62192729D01*
X163357199Y-62008545D01*
X163050913Y-61881677D01*
X162725761Y-61817000D01*
X162394239Y-61817000D01*
X162069087Y-61881677D01*
X161762801Y-62008545D01*
X161487150Y-62192729D01*
X161252729Y-62427150D01*
X161068545Y-62702801D01*
X160941677Y-63009087D01*
X160877000Y-63334239D01*
X159508000Y-63334239D01*
X159508000Y-59865000D01*
X176432211Y-59865000D01*
X179743385Y-65245658D01*
G04 #@! TA.AperFunction,Conductor*
D30*
G36*
X179743385Y-65245658D02*
G01*
X179689709Y-65289709D01*
X179604358Y-65393709D01*
X179540937Y-65512362D01*
X179501882Y-65641109D01*
X179488695Y-65775000D01*
X179492000Y-66425250D01*
X179662750Y-66596000D01*
X180574365Y-66596000D01*
X180829000Y-67009782D01*
X180829000Y-69136000D01*
X180849000Y-69136000D01*
X180849000Y-69294000D01*
X180829000Y-69294000D01*
X180829000Y-69314000D01*
X180671000Y-69314000D01*
X180671000Y-69294000D01*
X179662750Y-69294000D01*
X179492000Y-69464750D01*
X179488837Y-70087000D01*
X179031381Y-70087000D01*
X179043313Y-70047665D01*
X179061304Y-69865001D01*
X179061304Y-68564999D01*
X179043313Y-68382335D01*
X178990032Y-68206691D01*
X178903508Y-68044817D01*
X178883000Y-68019828D01*
X178883000Y-67870172D01*
X178903508Y-67845183D01*
X178990032Y-67683309D01*
X179022887Y-67575000D01*
X179488695Y-67575000D01*
X179501882Y-67708891D01*
X179540937Y-67837638D01*
X179598323Y-67945000D01*
X179540937Y-68052362D01*
X179501882Y-68181109D01*
X179488695Y-68315000D01*
X179492000Y-68965250D01*
X179662750Y-69136000D01*
X180671000Y-69136000D01*
X180671000Y-66754000D01*
X179662750Y-66754000D01*
X179492000Y-66924750D01*
X179488695Y-67575000D01*
X179022887Y-67575000D01*
X179043313Y-67507665D01*
X179061304Y-67325001D01*
X179061304Y-66024999D01*
X179043313Y-65842335D01*
X178990032Y-65666691D01*
X178903508Y-65504817D01*
X178787067Y-65362933D01*
X178645183Y-65246492D01*
X178483309Y-65159968D01*
X178307665Y-65106687D01*
X178125001Y-65088696D01*
X177474999Y-65088696D01*
X177292335Y-65106687D01*
X177116691Y-65159968D01*
X176954817Y-65246492D01*
X176812933Y-65362933D01*
X176696492Y-65504817D01*
X176649891Y-65592000D01*
X176042334Y-65592000D01*
X175989899Y-65602430D01*
X175936695Y-65607670D01*
X175885535Y-65623189D01*
X175833101Y-65633619D01*
X175783709Y-65654078D01*
X175732549Y-65669597D01*
X175685400Y-65694799D01*
X175636007Y-65715258D01*
X175591553Y-65744961D01*
X175544406Y-65770162D01*
X175503081Y-65804076D01*
X175458628Y-65833779D01*
X175420825Y-65871582D01*
X175379498Y-65905498D01*
X175345582Y-65946825D01*
X175307779Y-65984628D01*
X175278076Y-66029081D01*
X175244162Y-66070406D01*
X175218961Y-66117553D01*
X175189258Y-66162007D01*
X175168799Y-66211400D01*
X175143597Y-66258549D01*
X175128078Y-66309709D01*
X175107619Y-66359101D01*
X175097189Y-66411535D01*
X175081670Y-66462695D01*
X175076430Y-66515899D01*
X175066000Y-66568334D01*
X175066000Y-66621797D01*
X175060760Y-66675000D01*
X175066000Y-66728202D01*
X175066000Y-66781666D01*
X175076430Y-66834101D01*
X175081670Y-66887305D01*
X175097189Y-66938465D01*
X175107619Y-66990899D01*
X175128078Y-67040291D01*
X175143597Y-67091451D01*
X175168799Y-67138600D01*
X175189258Y-67187993D01*
X175218961Y-67232447D01*
X175244162Y-67279594D01*
X175278076Y-67320919D01*
X175307779Y-67365372D01*
X175345582Y-67403175D01*
X175379498Y-67444502D01*
X175420825Y-67478418D01*
X175458628Y-67516221D01*
X175503081Y-67545924D01*
X175544406Y-67579838D01*
X175591553Y-67605039D01*
X175636007Y-67634742D01*
X175685400Y-67655201D01*
X175732549Y-67680403D01*
X175783709Y-67695922D01*
X175833101Y-67716381D01*
X175885535Y-67726811D01*
X175936695Y-67742330D01*
X175989899Y-67747570D01*
X176042334Y-67758000D01*
X176649891Y-67758000D01*
X176696492Y-67845183D01*
X176717000Y-67870173D01*
X176717000Y-68019827D01*
X176696492Y-68044817D01*
X176609968Y-68206691D01*
X176556687Y-68382335D01*
X176538696Y-68564999D01*
X176538696Y-69865001D01*
X176556687Y-70047665D01*
X176609968Y-70223309D01*
X176696492Y-70385183D01*
X176717000Y-70410172D01*
X176717000Y-71829828D01*
X176696492Y-71854817D01*
X176609968Y-72016691D01*
X176556687Y-72192335D01*
X176538696Y-72374999D01*
X176538696Y-73675001D01*
X176556687Y-73857665D01*
X176609968Y-74033309D01*
X176696492Y-74195183D01*
X176717001Y-74220173D01*
X176717000Y-77416799D01*
X176711760Y-77470000D01*
X176717000Y-77523200D01*
X176717000Y-77523202D01*
X176732670Y-77682304D01*
X176794597Y-77886450D01*
X176895162Y-78074594D01*
X177030498Y-78239502D01*
X177071831Y-78273423D01*
X178622000Y-79823593D01*
X178622001Y-88825408D01*
X178490372Y-88693779D01*
X178312993Y-88575258D01*
X178115899Y-88493619D01*
X177906666Y-88452000D01*
X177693334Y-88452000D01*
X177484101Y-88493619D01*
X177287007Y-88575258D01*
X177109628Y-88693779D01*
X176958779Y-88844628D01*
X176840258Y-89022007D01*
X176758619Y-89219101D01*
X176758007Y-89222176D01*
X176172739Y-89807445D01*
X176159063Y-89762362D01*
X176095642Y-89643709D01*
X176010291Y-89539709D01*
X175906291Y-89454358D01*
X175787638Y-89390937D01*
X175658891Y-89351882D01*
X175525000Y-89338695D01*
X174874750Y-89342000D01*
X174704000Y-89512750D01*
X174704000Y-90521000D01*
X174724000Y-90521000D01*
X174724000Y-90679000D01*
X174704000Y-90679000D01*
X174704000Y-91687250D01*
X174874750Y-91858000D01*
X174961742Y-91858442D01*
X174531488Y-92288696D01*
X173974999Y-92288696D01*
X173792335Y-92306687D01*
X173616691Y-92359968D01*
X173454817Y-92446492D01*
X173312933Y-92562933D01*
X173196492Y-92704817D01*
X173109968Y-92866691D01*
X173056687Y-93042335D01*
X173038696Y-93224999D01*
X173038696Y-93604711D01*
X171031408Y-95612000D01*
X170981304Y-95612000D01*
X170981304Y-95545000D01*
X170968117Y-95411109D01*
X170929062Y-95282363D01*
X170865641Y-95163710D01*
X170780290Y-95059710D01*
X170676290Y-94974359D01*
X170557637Y-94910938D01*
X170428891Y-94871883D01*
X170295000Y-94858696D01*
X168795000Y-94858696D01*
X168661109Y-94871883D01*
X168532363Y-94910938D01*
X168413710Y-94974359D01*
X168309710Y-95059710D01*
X168224359Y-95163710D01*
X168160938Y-95282363D01*
X168121883Y-95411109D01*
X168108696Y-95545000D01*
X168108696Y-97845000D01*
X168121883Y-97978891D01*
X168160938Y-98107637D01*
X168224359Y-98226290D01*
X168309710Y-98330290D01*
X168413710Y-98415641D01*
X168532363Y-98479062D01*
X168661109Y-98518117D01*
X168795000Y-98531304D01*
X170295000Y-98531304D01*
X170428891Y-98518117D01*
X170557637Y-98479062D01*
X170676290Y-98415641D01*
X170780290Y-98330290D01*
X170865641Y-98226290D01*
X170929062Y-98107637D01*
X170968117Y-97978891D01*
X170981304Y-97845000D01*
X170981304Y-97778000D01*
X171426800Y-97778000D01*
X171480000Y-97783240D01*
X171533200Y-97778000D01*
X171533203Y-97778000D01*
X171692305Y-97762330D01*
X171896451Y-97700403D01*
X172084594Y-97599838D01*
X172249502Y-97464502D01*
X172283423Y-97423169D01*
X174895290Y-94811304D01*
X175275001Y-94811304D01*
X175457665Y-94793313D01*
X175633309Y-94740032D01*
X175795183Y-94653508D01*
X175937067Y-94537067D01*
X176053508Y-94395183D01*
X176140032Y-94233309D01*
X176193313Y-94057665D01*
X176211304Y-93875001D01*
X176211304Y-93318512D01*
X176704117Y-92825699D01*
X176740676Y-92795696D01*
X176860392Y-92649821D01*
X176923696Y-92531387D01*
X176923696Y-94965000D01*
X176936883Y-95098891D01*
X176975938Y-95227637D01*
X177039359Y-95346290D01*
X177124710Y-95450290D01*
X177228710Y-95535641D01*
X177347363Y-95599062D01*
X177476109Y-95638117D01*
X177610000Y-95651304D01*
X178920000Y-95651304D01*
X179053891Y-95638117D01*
X179182637Y-95599062D01*
X179301290Y-95535641D01*
X179318540Y-95521484D01*
X179272671Y-95672695D01*
X179271006Y-95689597D01*
X179251760Y-95885000D01*
X179257001Y-95938210D01*
X179257000Y-97864827D01*
X179236492Y-97889817D01*
X179149968Y-98051691D01*
X179096687Y-98227335D01*
X179078696Y-98409999D01*
X179078696Y-99520000D01*
X179070000Y-99520000D01*
X179035859Y-99523363D01*
X179003030Y-99533321D01*
X178972775Y-99549493D01*
X178946256Y-99571256D01*
X178924493Y-99597775D01*
X178908321Y-99628030D01*
X178898363Y-99660859D01*
X178895000Y-99695000D01*
X178895000Y-100842000D01*
X159508000Y-100842000D01*
X159508000Y-97845000D01*
X163663695Y-97845000D01*
X163676882Y-97978891D01*
X163715937Y-98107638D01*
X163779358Y-98226291D01*
X163864709Y-98330291D01*
X163968709Y-98415642D01*
X164087362Y-98479063D01*
X164216109Y-98518118D01*
X164350000Y-98531305D01*
X164850250Y-98528000D01*
X165021000Y-98357250D01*
X165021000Y-96774000D01*
X165179000Y-96774000D01*
X165179000Y-98357250D01*
X165349750Y-98528000D01*
X165850000Y-98531305D01*
X165983891Y-98518118D01*
X166112638Y-98479063D01*
X166231291Y-98415642D01*
X166335291Y-98330291D01*
X166420642Y-98226291D01*
X166484063Y-98107638D01*
X166523118Y-97978891D01*
X166536305Y-97845000D01*
X166533000Y-96944750D01*
X166362250Y-96774000D01*
X165179000Y-96774000D01*
X165021000Y-96774000D01*
X163837750Y-96774000D01*
X163667000Y-96944750D01*
X163663695Y-97845000D01*
X159508000Y-97845000D01*
X159508000Y-95395000D01*
X159703695Y-95395000D01*
X159716882Y-95528891D01*
X159755937Y-95657638D01*
X159819358Y-95776291D01*
X159904709Y-95880291D01*
X160008709Y-95965642D01*
X160127362Y-96029063D01*
X160256109Y-96068118D01*
X160390000Y-96081305D01*
X161040250Y-96078000D01*
X161211000Y-95907250D01*
X161211000Y-94899000D01*
X161369000Y-94899000D01*
X161369000Y-95907250D01*
X161539750Y-96078000D01*
X162190000Y-96081305D01*
X162323891Y-96068118D01*
X162452638Y-96029063D01*
X162571291Y-95965642D01*
X162675291Y-95880291D01*
X162760642Y-95776291D01*
X162824063Y-95657638D01*
X162858231Y-95545000D01*
X163663695Y-95545000D01*
X163667000Y-96445250D01*
X163837750Y-96616000D01*
X165021000Y-96616000D01*
X165021000Y-95032750D01*
X165179000Y-95032750D01*
X165179000Y-96616000D01*
X166362250Y-96616000D01*
X166533000Y-96445250D01*
X166536305Y-95545000D01*
X166523118Y-95411109D01*
X166484063Y-95282362D01*
X166420642Y-95163709D01*
X166335291Y-95059709D01*
X166231291Y-94974358D01*
X166112638Y-94910937D01*
X165983891Y-94871882D01*
X165850000Y-94858695D01*
X165349750Y-94862000D01*
X165179000Y-95032750D01*
X165021000Y-95032750D01*
X164850250Y-94862000D01*
X164350000Y-94858695D01*
X164216109Y-94871882D01*
X164087362Y-94910937D01*
X163968709Y-94974358D01*
X163864709Y-95059709D01*
X163779358Y-95163709D01*
X163715937Y-95282362D01*
X163676882Y-95411109D01*
X163663695Y-95545000D01*
X162858231Y-95545000D01*
X162863118Y-95528891D01*
X162876305Y-95395000D01*
X162873000Y-95069750D01*
X162702250Y-94899000D01*
X161369000Y-94899000D01*
X161211000Y-94899000D01*
X159877750Y-94899000D01*
X159707000Y-95069750D01*
X159703695Y-95395000D01*
X159508000Y-95395000D01*
X159508000Y-94245000D01*
X159703695Y-94245000D01*
X159707000Y-94570250D01*
X159877750Y-94741000D01*
X161211000Y-94741000D01*
X161211000Y-93732750D01*
X161369000Y-93732750D01*
X161369000Y-94741000D01*
X162702250Y-94741000D01*
X162873000Y-94570250D01*
X162876305Y-94245000D01*
X162863118Y-94111109D01*
X162824063Y-93982362D01*
X162760642Y-93863709D01*
X162675291Y-93759709D01*
X162571291Y-93674358D01*
X162452638Y-93610937D01*
X162323891Y-93571882D01*
X162190000Y-93558695D01*
X161539750Y-93562000D01*
X161369000Y-93732750D01*
X161211000Y-93732750D01*
X161040250Y-93562000D01*
X160390000Y-93558695D01*
X160256109Y-93571882D01*
X160127362Y-93610937D01*
X160008709Y-93674358D01*
X159904709Y-93759709D01*
X159819358Y-93863709D01*
X159755937Y-93982362D01*
X159716882Y-94111109D01*
X159703695Y-94245000D01*
X159508000Y-94245000D01*
X159508000Y-89919592D01*
X160207000Y-90618593D01*
X160207000Y-90719891D01*
X160119817Y-90766492D01*
X159977933Y-90882933D01*
X159861492Y-91024817D01*
X159774968Y-91186691D01*
X159721687Y-91362335D01*
X159703696Y-91544999D01*
X159703696Y-92195001D01*
X159721687Y-92377665D01*
X159774968Y-92553309D01*
X159861492Y-92715183D01*
X159977933Y-92857067D01*
X160119817Y-92973508D01*
X160281691Y-93060032D01*
X160457335Y-93113313D01*
X160639999Y-93131304D01*
X161940001Y-93131304D01*
X162122665Y-93113313D01*
X162298309Y-93060032D01*
X162460183Y-92973508D01*
X162602067Y-92857067D01*
X162718508Y-92715183D01*
X162805032Y-92553309D01*
X162858313Y-92377665D01*
X162876304Y-92195001D01*
X162876304Y-91544999D01*
X162858313Y-91362335D01*
X162805032Y-91186691D01*
X162746935Y-91078000D01*
X163663696Y-91078000D01*
X163663696Y-91145000D01*
X163676883Y-91278891D01*
X163715938Y-91407637D01*
X163779359Y-91526290D01*
X163864710Y-91630290D01*
X163968710Y-91715641D01*
X164087363Y-91779062D01*
X164216109Y-91818117D01*
X164350000Y-91831304D01*
X165850000Y-91831304D01*
X165983891Y-91818117D01*
X166112637Y-91779062D01*
X166231290Y-91715641D01*
X166335290Y-91630290D01*
X166420641Y-91526290D01*
X166484062Y-91407637D01*
X166523117Y-91278891D01*
X166536304Y-91145000D01*
X168108695Y-91145000D01*
X168121882Y-91278891D01*
X168160937Y-91407638D01*
X168224358Y-91526291D01*
X168309709Y-91630291D01*
X168413709Y-91715642D01*
X168532362Y-91779063D01*
X168661109Y-91818118D01*
X168795000Y-91831305D01*
X169295250Y-91828000D01*
X169466000Y-91657250D01*
X169466000Y-90074000D01*
X169624000Y-90074000D01*
X169624000Y-91657250D01*
X169794750Y-91828000D01*
X170295000Y-91831305D01*
X170428891Y-91818118D01*
X170557638Y-91779063D01*
X170676291Y-91715642D01*
X170780291Y-91630291D01*
X170865642Y-91526291D01*
X170929063Y-91407638D01*
X170968118Y-91278891D01*
X170978350Y-91175000D01*
X173038695Y-91175000D01*
X173051882Y-91308891D01*
X173090937Y-91437638D01*
X173154358Y-91556291D01*
X173239709Y-91660291D01*
X173343709Y-91745642D01*
X173462362Y-91809063D01*
X173591109Y-91848118D01*
X173725000Y-91861305D01*
X174375250Y-91858000D01*
X174546000Y-91687250D01*
X174546000Y-90679000D01*
X173212750Y-90679000D01*
X173042000Y-90849750D01*
X173038695Y-91175000D01*
X170978350Y-91175000D01*
X170981305Y-91145000D01*
X170978000Y-90244750D01*
X170807250Y-90074000D01*
X169624000Y-90074000D01*
X169466000Y-90074000D01*
X168282750Y-90074000D01*
X168112000Y-90244750D01*
X168108695Y-91145000D01*
X166536304Y-91145000D01*
X166536304Y-90025000D01*
X173038695Y-90025000D01*
X173042000Y-90350250D01*
X173212750Y-90521000D01*
X174546000Y-90521000D01*
X174546000Y-89512750D01*
X174375250Y-89342000D01*
X173725000Y-89338695D01*
X173591109Y-89351882D01*
X173462362Y-89390937D01*
X173343709Y-89454358D01*
X173239709Y-89539709D01*
X173154358Y-89643709D01*
X173090937Y-89762362D01*
X173051882Y-89891109D01*
X173038695Y-90025000D01*
X166536304Y-90025000D01*
X166536304Y-88845000D01*
X168108695Y-88845000D01*
X168112000Y-89745250D01*
X168282750Y-89916000D01*
X169466000Y-89916000D01*
X169466000Y-88332750D01*
X169624000Y-88332750D01*
X169624000Y-89916000D01*
X170807250Y-89916000D01*
X170978000Y-89745250D01*
X170981305Y-88845000D01*
X170968118Y-88711109D01*
X170929063Y-88582362D01*
X170865642Y-88463709D01*
X170780291Y-88359709D01*
X170676291Y-88274358D01*
X170557638Y-88210937D01*
X170428891Y-88171882D01*
X170295000Y-88158695D01*
X169794750Y-88162000D01*
X169624000Y-88332750D01*
X169466000Y-88332750D01*
X169295250Y-88162000D01*
X168795000Y-88158695D01*
X168661109Y-88171882D01*
X168532362Y-88210937D01*
X168413709Y-88274358D01*
X168309709Y-88359709D01*
X168224358Y-88463709D01*
X168160937Y-88582362D01*
X168121882Y-88711109D01*
X168108695Y-88845000D01*
X166536304Y-88845000D01*
X166523117Y-88711109D01*
X166484062Y-88582363D01*
X166420641Y-88463710D01*
X166335290Y-88359710D01*
X166231290Y-88274359D01*
X166112637Y-88210938D01*
X165983891Y-88171883D01*
X165850000Y-88158696D01*
X164350000Y-88158696D01*
X164216109Y-88171883D01*
X164087363Y-88210938D01*
X163968710Y-88274359D01*
X163864710Y-88359710D01*
X163779359Y-88463710D01*
X163715938Y-88582363D01*
X163676883Y-88711109D01*
X163663696Y-88845000D01*
X163663696Y-88912000D01*
X162153200Y-88912000D01*
X162100000Y-88906760D01*
X162046799Y-88912000D01*
X162046797Y-88912000D01*
X161887695Y-88927670D01*
X161683549Y-88989597D01*
X161655945Y-89004352D01*
X160861223Y-88209631D01*
X160861221Y-88209628D01*
X160710372Y-88058779D01*
X160665913Y-88029072D01*
X160624593Y-87995162D01*
X160577452Y-87969965D01*
X160532993Y-87940258D01*
X160483592Y-87919796D01*
X160436451Y-87894598D01*
X160385300Y-87879082D01*
X160335899Y-87858619D01*
X160283453Y-87848187D01*
X160232304Y-87832671D01*
X160179109Y-87827432D01*
X160126666Y-87817000D01*
X160073200Y-87817000D01*
X160020000Y-87811760D01*
X159966800Y-87817000D01*
X159913334Y-87817000D01*
X159860891Y-87827432D01*
X159807696Y-87832671D01*
X159756547Y-87848187D01*
X159704101Y-87858619D01*
X159654700Y-87879082D01*
X159603549Y-87894598D01*
X159556408Y-87919796D01*
X159508000Y-87939847D01*
X159508000Y-68414239D01*
X160877000Y-68414239D01*
X160877000Y-68745761D01*
X160941677Y-69070913D01*
X161068545Y-69377199D01*
X161252729Y-69652850D01*
X161449879Y-69850000D01*
X161252729Y-70047150D01*
X161068545Y-70322801D01*
X160941677Y-70629087D01*
X160877000Y-70954239D01*
X160877000Y-71285761D01*
X160941677Y-71610913D01*
X161068545Y-71917199D01*
X161252729Y-72192850D01*
X161487150Y-72427271D01*
X161762801Y-72611455D01*
X162069087Y-72738323D01*
X162394239Y-72803000D01*
X162725761Y-72803000D01*
X163050913Y-72738323D01*
X163357199Y-72611455D01*
X163632850Y-72427271D01*
X163867271Y-72192850D01*
X164051455Y-71917199D01*
X164178323Y-71610913D01*
X164243000Y-71285761D01*
X164243000Y-70954239D01*
X164178323Y-70629087D01*
X164051455Y-70322801D01*
X163867271Y-70047150D01*
X163670121Y-69850000D01*
X163867271Y-69652850D01*
X164051455Y-69377199D01*
X164178323Y-69070913D01*
X164243000Y-68745761D01*
X164243000Y-68414239D01*
X164178323Y-68089087D01*
X164051455Y-67782801D01*
X163867271Y-67507150D01*
X163632850Y-67272729D01*
X163560575Y-67224436D01*
X163577766Y-67169489D01*
X162560000Y-66151723D01*
X161542234Y-67169489D01*
X161559425Y-67224436D01*
X161487150Y-67272729D01*
X161252729Y-67507150D01*
X161068545Y-67782801D01*
X160941677Y-68089087D01*
X160877000Y-68414239D01*
X159508000Y-68414239D01*
X159508000Y-66052618D01*
X160868904Y-66052618D01*
X160903860Y-66382292D01*
X161002459Y-66698812D01*
X161146894Y-66969032D01*
X161430511Y-67057766D01*
X162448277Y-66040000D01*
X162671723Y-66040000D01*
X163689489Y-67057766D01*
X163973106Y-66969032D01*
X164127198Y-66675497D01*
X164221064Y-66357541D01*
X164251096Y-66027382D01*
X164216140Y-65697708D01*
X164117541Y-65381188D01*
X163973106Y-65110968D01*
X163689489Y-65022234D01*
X162671723Y-66040000D01*
X162448277Y-66040000D01*
X161430511Y-65022234D01*
X161146894Y-65110968D01*
X160992802Y-65404503D01*
X160898936Y-65722459D01*
X160868904Y-66052618D01*
X159508000Y-66052618D01*
X159508000Y-63334239D01*
X160877000Y-63334239D01*
X160877000Y-63665761D01*
X160941677Y-63990913D01*
X161068545Y-64297199D01*
X161252729Y-64572850D01*
X161487150Y-64807271D01*
X161559425Y-64855564D01*
X161542234Y-64910511D01*
X162560000Y-65928277D01*
X163577766Y-64910511D01*
X163560575Y-64855564D01*
X163632850Y-64807271D01*
X163867271Y-64572850D01*
X164051455Y-64297199D01*
X164178323Y-63990913D01*
X164243000Y-63665761D01*
X164243000Y-63334239D01*
X164178323Y-63009087D01*
X164051455Y-62702801D01*
X163867271Y-62427150D01*
X163632850Y-62192729D01*
X163357199Y-62008545D01*
X163050913Y-61881677D01*
X162725761Y-61817000D01*
X162394239Y-61817000D01*
X162069087Y-61881677D01*
X161762801Y-62008545D01*
X161487150Y-62192729D01*
X161252729Y-62427150D01*
X161068545Y-62702801D01*
X160941677Y-63009087D01*
X160877000Y-63334239D01*
X159508000Y-63334239D01*
X159508000Y-59865000D01*
X176432211Y-59865000D01*
X179743385Y-65245658D01*
G37*
G04 #@! TD.AperFunction*
D29*
X205535912Y-63052840D02*
X205477000Y-63349013D01*
X205477000Y-63650987D01*
X205535912Y-63947160D01*
X205651473Y-64226148D01*
X205819241Y-64477231D01*
X206032769Y-64690759D01*
X206151362Y-64770000D01*
X206032769Y-64849241D01*
X205819241Y-65062769D01*
X205722869Y-65207000D01*
X205145915Y-65207000D01*
X205104999Y-65202970D01*
X205064084Y-65207000D01*
X205064082Y-65207000D01*
X204941704Y-65219053D01*
X204784682Y-65266685D01*
X204639971Y-65344035D01*
X204513130Y-65448130D01*
X204487046Y-65479914D01*
X203964917Y-66002044D01*
X203933132Y-66028129D01*
X203873416Y-66100894D01*
X203829037Y-66154970D01*
X203751686Y-66299682D01*
X203704055Y-66456703D01*
X203687971Y-66619999D01*
X203692002Y-66660924D01*
X203692001Y-68881563D01*
X203663600Y-68869799D01*
X203616451Y-68844597D01*
X203565291Y-68829078D01*
X203515899Y-68808619D01*
X203463465Y-68798189D01*
X203412305Y-68782670D01*
X203359101Y-68777430D01*
X203306666Y-68767000D01*
X203253203Y-68767000D01*
X203200000Y-68761760D01*
X203146797Y-68767000D01*
X203093334Y-68767000D01*
X203040899Y-68777430D01*
X202987696Y-68782670D01*
X202936538Y-68798189D01*
X202884101Y-68808619D01*
X202834707Y-68829079D01*
X202783550Y-68844597D01*
X202736405Y-68869797D01*
X202687007Y-68890258D01*
X202642549Y-68919964D01*
X202595407Y-68945162D01*
X202554086Y-68979073D01*
X202509628Y-69008779D01*
X202471821Y-69046586D01*
X202430499Y-69080498D01*
X202396587Y-69121820D01*
X202358779Y-69159628D01*
X202329072Y-69204088D01*
X202295163Y-69245406D01*
X202269966Y-69292545D01*
X202240258Y-69337007D01*
X202219795Y-69386409D01*
X202194598Y-69433549D01*
X202179080Y-69484703D01*
X202158619Y-69534101D01*
X202148189Y-69586537D01*
X202132670Y-69637695D01*
X202127430Y-69690899D01*
X202117000Y-69743334D01*
X202117000Y-70492000D01*
X201883304Y-70492000D01*
X201883304Y-69855000D01*
X201870117Y-69721109D01*
X201854614Y-69670002D01*
X201870118Y-69618891D01*
X201883305Y-69485000D01*
X201880000Y-69284750D01*
X201709250Y-69114000D01*
X200276000Y-69114000D01*
X200276000Y-69134000D01*
X200118000Y-69134000D01*
X200118000Y-69114000D01*
X198684750Y-69114000D01*
X198514000Y-69284750D01*
X198510695Y-69485000D01*
X198523882Y-69618891D01*
X198539386Y-69670002D01*
X198523883Y-69721109D01*
X198510696Y-69855000D01*
X198510696Y-70755000D01*
X198523883Y-70888891D01*
X198539387Y-70940000D01*
X198523883Y-70991109D01*
X198510696Y-71125000D01*
X198510696Y-72025000D01*
X198523883Y-72158891D01*
X198539387Y-72210000D01*
X198523883Y-72261109D01*
X198510696Y-72395000D01*
X198510696Y-73295000D01*
X198523883Y-73428891D01*
X198539387Y-73480000D01*
X198523883Y-73531109D01*
X198510696Y-73665000D01*
X198510696Y-74565000D01*
X198523883Y-74698891D01*
X198539387Y-74750000D01*
X198523883Y-74801109D01*
X198510696Y-74935000D01*
X198510696Y-75835000D01*
X198523883Y-75968891D01*
X198539387Y-76020000D01*
X198523883Y-76071109D01*
X198510696Y-76205000D01*
X198510696Y-77105000D01*
X198523883Y-77238891D01*
X198539387Y-77290000D01*
X198523883Y-77341109D01*
X198510696Y-77475000D01*
X198510696Y-78375000D01*
X198523883Y-78508891D01*
X198539387Y-78560000D01*
X198523883Y-78611109D01*
X198510696Y-78745000D01*
X198510696Y-79645000D01*
X198523883Y-79778891D01*
X198539387Y-79830000D01*
X198523883Y-79881109D01*
X198510696Y-80015000D01*
X198510696Y-80915000D01*
X198523883Y-81048891D01*
X198539387Y-81100000D01*
X198523883Y-81151109D01*
X198510696Y-81285000D01*
X198510696Y-82185000D01*
X198523883Y-82318891D01*
X198539387Y-82370000D01*
X198523883Y-82421109D01*
X198510696Y-82555000D01*
X198510696Y-83455000D01*
X198523883Y-83588891D01*
X198539387Y-83640000D01*
X198523883Y-83691109D01*
X198510696Y-83825000D01*
X198510696Y-84725000D01*
X198523883Y-84858891D01*
X198539387Y-84910000D01*
X198523883Y-84961109D01*
X198510696Y-85095000D01*
X198510696Y-85330604D01*
X198496062Y-85282363D01*
X198432641Y-85163710D01*
X198347290Y-85059710D01*
X198243290Y-84974359D01*
X198124637Y-84910938D01*
X197995891Y-84871883D01*
X197862000Y-84858696D01*
X196962000Y-84858696D01*
X196828109Y-84871883D01*
X196777000Y-84887387D01*
X196725891Y-84871883D01*
X196592000Y-84858696D01*
X195692000Y-84858696D01*
X195558109Y-84871883D01*
X195507000Y-84887387D01*
X195455891Y-84871883D01*
X195322000Y-84858696D01*
X194422000Y-84858696D01*
X194288109Y-84871883D01*
X194237000Y-84887387D01*
X194185891Y-84871883D01*
X194052000Y-84858696D01*
X193152000Y-84858696D01*
X193018109Y-84871883D01*
X192967000Y-84887387D01*
X192915891Y-84871883D01*
X192782000Y-84858696D01*
X191882000Y-84858696D01*
X191748109Y-84871883D01*
X191697000Y-84887387D01*
X191645891Y-84871883D01*
X191512000Y-84858696D01*
X190612000Y-84858696D01*
X190478109Y-84871883D01*
X190427000Y-84887387D01*
X190375891Y-84871883D01*
X190242000Y-84858696D01*
X189342000Y-84858696D01*
X189208109Y-84871883D01*
X189157000Y-84887387D01*
X189105891Y-84871883D01*
X188972000Y-84858696D01*
X188072000Y-84858696D01*
X187938109Y-84871883D01*
X187887000Y-84887387D01*
X187835891Y-84871883D01*
X187702000Y-84858696D01*
X186802000Y-84858696D01*
X186668109Y-84871883D01*
X186617002Y-84887386D01*
X186565891Y-84871882D01*
X186432000Y-84858695D01*
X186231750Y-84862000D01*
X186061000Y-85032750D01*
X186061000Y-86466000D01*
X186081000Y-86466000D01*
X186081000Y-86624000D01*
X186061000Y-86624000D01*
X186061000Y-88057250D01*
X186231750Y-88228000D01*
X186432000Y-88231305D01*
X186565891Y-88218118D01*
X186617002Y-88202614D01*
X186668109Y-88218117D01*
X186802000Y-88231304D01*
X187702000Y-88231304D01*
X187835891Y-88218117D01*
X187887000Y-88202613D01*
X187938109Y-88218117D01*
X188072000Y-88231304D01*
X188972000Y-88231304D01*
X189105891Y-88218117D01*
X189157000Y-88202613D01*
X189208109Y-88218117D01*
X189342000Y-88231304D01*
X190242000Y-88231304D01*
X190375891Y-88218117D01*
X190427000Y-88202613D01*
X190478109Y-88218117D01*
X190612000Y-88231304D01*
X191512000Y-88231304D01*
X191645891Y-88218117D01*
X191697000Y-88202613D01*
X191748109Y-88218117D01*
X191882000Y-88231304D01*
X192782000Y-88231304D01*
X192915891Y-88218117D01*
X192967000Y-88202613D01*
X193018109Y-88218117D01*
X193152000Y-88231304D01*
X194052000Y-88231304D01*
X194185891Y-88218117D01*
X194237000Y-88202613D01*
X194288109Y-88218117D01*
X194422000Y-88231304D01*
X195220210Y-88231304D01*
X195310162Y-88399593D01*
X195322476Y-88414598D01*
X195445499Y-88564502D01*
X195486826Y-88598418D01*
X199440103Y-92551696D01*
X198223289Y-92551696D01*
X194351423Y-88679831D01*
X194317502Y-88638498D01*
X194152594Y-88503162D01*
X193964451Y-88402597D01*
X193760305Y-88340670D01*
X193601203Y-88325000D01*
X193601200Y-88325000D01*
X193548000Y-88319760D01*
X193494800Y-88325000D01*
X189885334Y-88325000D01*
X189832899Y-88335430D01*
X189779695Y-88340670D01*
X189728535Y-88356189D01*
X189676101Y-88366619D01*
X189626709Y-88387078D01*
X189575549Y-88402597D01*
X189528400Y-88427799D01*
X189479007Y-88448258D01*
X189434553Y-88477961D01*
X189387406Y-88503162D01*
X189346081Y-88537076D01*
X189301628Y-88566779D01*
X189263825Y-88604582D01*
X189222498Y-88638498D01*
X189188582Y-88679825D01*
X189150779Y-88717628D01*
X189121076Y-88762081D01*
X189087162Y-88803406D01*
X189061961Y-88850553D01*
X189032258Y-88895007D01*
X189011799Y-88944400D01*
X188986597Y-88991549D01*
X188971078Y-89042709D01*
X188950619Y-89092101D01*
X188940189Y-89144535D01*
X188924670Y-89195695D01*
X188919430Y-89248899D01*
X188909000Y-89301334D01*
X188909000Y-89354797D01*
X188903760Y-89408000D01*
X188909000Y-89461203D01*
X188909000Y-89514666D01*
X188919430Y-89567101D01*
X188924670Y-89620305D01*
X188940189Y-89671465D01*
X188950619Y-89723899D01*
X188971078Y-89773291D01*
X188986597Y-89824451D01*
X189011799Y-89871600D01*
X189032258Y-89920993D01*
X189061961Y-89965447D01*
X189087162Y-90012594D01*
X189121076Y-90053919D01*
X189150779Y-90098372D01*
X189188582Y-90136175D01*
X189222498Y-90177502D01*
X189263825Y-90211418D01*
X189301628Y-90249221D01*
X189346081Y-90278924D01*
X189387406Y-90312838D01*
X189434553Y-90338039D01*
X189479007Y-90367742D01*
X189528400Y-90388201D01*
X189575549Y-90413403D01*
X189626709Y-90428922D01*
X189676101Y-90449381D01*
X189728535Y-90459811D01*
X189779695Y-90475330D01*
X189832899Y-90480570D01*
X189885334Y-90491000D01*
X193099408Y-90491000D01*
X196691696Y-94083289D01*
X196691696Y-95738000D01*
X196704883Y-95871891D01*
X196743938Y-96000637D01*
X196807359Y-96119290D01*
X196892710Y-96223290D01*
X196996710Y-96308641D01*
X197115363Y-96372062D01*
X197244109Y-96411117D01*
X197378000Y-96424304D01*
X199878000Y-96424304D01*
X200011891Y-96411117D01*
X200140637Y-96372062D01*
X200259290Y-96308641D01*
X200363290Y-96223290D01*
X200448641Y-96119290D01*
X200512062Y-96000637D01*
X200551117Y-95871891D01*
X200564304Y-95738000D01*
X200564304Y-93238000D01*
X200556425Y-93158000D01*
X203114891Y-93158000D01*
X203161492Y-93245183D01*
X203277933Y-93387067D01*
X203387001Y-93476576D01*
X203387000Y-94587879D01*
X203162729Y-94812150D01*
X202978545Y-95087801D01*
X202851677Y-95394087D01*
X202787000Y-95719239D01*
X202787000Y-96050761D01*
X202851677Y-96375913D01*
X202978545Y-96682199D01*
X202995116Y-96707000D01*
X192853593Y-96707000D01*
X191941921Y-95795328D01*
X192432395Y-95795328D01*
X192551170Y-96104532D01*
X192887231Y-96283549D01*
X193251758Y-96393565D01*
X193630745Y-96430352D01*
X194009626Y-96392494D01*
X194373842Y-96281448D01*
X194704830Y-96104532D01*
X194823605Y-95795328D01*
X193628000Y-94599723D01*
X192432395Y-95795328D01*
X191941921Y-95795328D01*
X191583000Y-95436408D01*
X191583000Y-94490745D01*
X191685648Y-94490745D01*
X191723506Y-94869626D01*
X191834552Y-95233842D01*
X192011468Y-95564830D01*
X192320672Y-95683605D01*
X193516277Y-94488000D01*
X193739723Y-94488000D01*
X194935328Y-95683605D01*
X195244532Y-95564830D01*
X195423549Y-95228769D01*
X195533565Y-94864242D01*
X195570352Y-94485255D01*
X195532494Y-94106374D01*
X195421448Y-93742158D01*
X195244532Y-93411170D01*
X194935328Y-93292395D01*
X193739723Y-94488000D01*
X193516277Y-94488000D01*
X192320672Y-93292395D01*
X192011468Y-93411170D01*
X191832451Y-93747231D01*
X191722435Y-94111758D01*
X191685648Y-94490745D01*
X191583000Y-94490745D01*
X191583000Y-94033200D01*
X191588240Y-93980000D01*
X191578726Y-93883406D01*
X191567330Y-93767695D01*
X191505403Y-93563549D01*
X191404838Y-93375406D01*
X191269502Y-93210498D01*
X191233159Y-93180672D01*
X192432395Y-93180672D01*
X193628000Y-94376277D01*
X194823605Y-93180672D01*
X194704830Y-92871468D01*
X194368769Y-92692451D01*
X194004242Y-92582435D01*
X193625255Y-92545648D01*
X193246374Y-92583506D01*
X192882158Y-92694552D01*
X192551170Y-92871468D01*
X192432395Y-93180672D01*
X191233159Y-93180672D01*
X191228174Y-93176581D01*
X190593176Y-92541584D01*
X190469593Y-92440162D01*
X190281451Y-92339598D01*
X190077304Y-92277671D01*
X189865000Y-92256760D01*
X189652696Y-92277671D01*
X189448549Y-92339598D01*
X189260407Y-92440162D01*
X189172872Y-92512000D01*
X188852088Y-92512000D01*
X188908000Y-92230912D01*
X188908000Y-91919088D01*
X188847166Y-91613256D01*
X188727836Y-91325169D01*
X188554596Y-91065897D01*
X188334103Y-90845404D01*
X188074831Y-90672164D01*
X187786744Y-90552834D01*
X187480912Y-90492000D01*
X187273592Y-90492000D01*
X187108423Y-90326831D01*
X187074502Y-90285498D01*
X186909594Y-90150162D01*
X186721451Y-90049597D01*
X186517305Y-89987670D01*
X186358203Y-89972000D01*
X186358200Y-89972000D01*
X186305000Y-89966760D01*
X186251800Y-89972000D01*
X185902687Y-89972000D01*
X185872637Y-89955938D01*
X185743891Y-89916883D01*
X185610000Y-89903696D01*
X184300000Y-89903696D01*
X184166109Y-89916883D01*
X184037363Y-89955938D01*
X183918710Y-90019359D01*
X183814710Y-90104710D01*
X183729359Y-90208710D01*
X183665938Y-90327363D01*
X183626883Y-90456109D01*
X183613696Y-90590000D01*
X183613696Y-91520000D01*
X183626883Y-91653891D01*
X183665938Y-91782637D01*
X183729359Y-91901290D01*
X183814710Y-92005290D01*
X183918710Y-92090641D01*
X184037363Y-92154062D01*
X184166109Y-92193117D01*
X184235994Y-92200000D01*
X184166109Y-92206883D01*
X184037363Y-92245938D01*
X184007313Y-92262000D01*
X183328593Y-92262000D01*
X180788000Y-89721408D01*
X180788000Y-87545000D01*
X184845695Y-87545000D01*
X184858882Y-87678891D01*
X184897937Y-87807638D01*
X184961358Y-87926291D01*
X185046709Y-88030291D01*
X185150709Y-88115642D01*
X185269362Y-88179063D01*
X185398109Y-88218118D01*
X185532000Y-88231305D01*
X185732250Y-88228000D01*
X185903000Y-88057250D01*
X185903000Y-86624000D01*
X185019750Y-86624000D01*
X184849000Y-86794750D01*
X184845695Y-87545000D01*
X180788000Y-87545000D01*
X180788000Y-79428200D01*
X180793240Y-79375000D01*
X180786516Y-79306733D01*
X180772330Y-79162695D01*
X180710403Y-78958549D01*
X180609838Y-78770406D01*
X180474502Y-78605498D01*
X180433174Y-78571581D01*
X179779593Y-77918000D01*
X179811666Y-77918000D01*
X180020899Y-77876381D01*
X180217993Y-77794742D01*
X180395372Y-77676221D01*
X180546221Y-77525372D01*
X180664742Y-77347993D01*
X180673123Y-77327759D01*
X181444563Y-76556320D01*
X181483975Y-76523975D01*
X181510696Y-76491416D01*
X181510696Y-77105000D01*
X181523883Y-77238891D01*
X181539387Y-77290000D01*
X181523883Y-77341109D01*
X181510696Y-77475000D01*
X181510696Y-78375000D01*
X181523883Y-78508891D01*
X181539387Y-78560000D01*
X181523883Y-78611109D01*
X181510696Y-78745000D01*
X181510696Y-79645000D01*
X181523883Y-79778891D01*
X181539387Y-79830000D01*
X181523883Y-79881109D01*
X181510696Y-80015000D01*
X181510696Y-80915000D01*
X181523883Y-81048891D01*
X181539387Y-81100000D01*
X181523883Y-81151109D01*
X181510696Y-81285000D01*
X181510696Y-82185000D01*
X181523883Y-82318891D01*
X181539387Y-82370000D01*
X181523883Y-82421109D01*
X181510696Y-82555000D01*
X181510696Y-83455000D01*
X181523883Y-83588891D01*
X181539387Y-83640000D01*
X181523883Y-83691109D01*
X181510696Y-83825000D01*
X181510696Y-84725000D01*
X181523883Y-84858891D01*
X181539387Y-84910000D01*
X181523883Y-84961109D01*
X181510696Y-85095000D01*
X181510696Y-85995000D01*
X181523883Y-86128891D01*
X181562938Y-86257637D01*
X181626359Y-86376290D01*
X181711710Y-86480290D01*
X181815710Y-86565641D01*
X181934363Y-86629062D01*
X182063109Y-86668117D01*
X182197000Y-86681304D01*
X184197000Y-86681304D01*
X184330891Y-86668117D01*
X184459637Y-86629062D01*
X184578290Y-86565641D01*
X184682290Y-86480290D01*
X184767641Y-86376290D01*
X184831062Y-86257637D01*
X184848580Y-86199889D01*
X184849000Y-86295250D01*
X185019750Y-86466000D01*
X185903000Y-86466000D01*
X185903000Y-85032750D01*
X185732250Y-84862000D01*
X185532000Y-84858695D01*
X185398109Y-84871882D01*
X185269362Y-84910937D01*
X185150709Y-84974358D01*
X185046709Y-85059709D01*
X184961358Y-85163709D01*
X184897937Y-85282362D01*
X184883304Y-85330601D01*
X184883304Y-85095000D01*
X184870117Y-84961109D01*
X184854613Y-84910000D01*
X184870117Y-84858891D01*
X184883304Y-84725000D01*
X184883304Y-83825000D01*
X184870117Y-83691109D01*
X184854613Y-83640000D01*
X184870117Y-83588891D01*
X184883304Y-83455000D01*
X184883304Y-82555000D01*
X184870117Y-82421109D01*
X184854613Y-82370000D01*
X184870117Y-82318891D01*
X184883304Y-82185000D01*
X184883304Y-81285000D01*
X184870117Y-81151109D01*
X184854613Y-81100000D01*
X184870117Y-81048891D01*
X184883304Y-80915000D01*
X184883304Y-80015000D01*
X184870117Y-79881109D01*
X184854613Y-79830000D01*
X184870117Y-79778891D01*
X184883304Y-79645000D01*
X184883304Y-79035000D01*
X187510695Y-79035000D01*
X187523882Y-79168891D01*
X187562937Y-79297638D01*
X187626358Y-79416291D01*
X187711709Y-79520291D01*
X187815709Y-79605642D01*
X187934362Y-79669063D01*
X188063109Y-79708118D01*
X188197000Y-79721305D01*
X188612250Y-79718000D01*
X188783000Y-79547250D01*
X188783000Y-78449000D01*
X187684750Y-78449000D01*
X187514000Y-78619750D01*
X187510695Y-79035000D01*
X184883304Y-79035000D01*
X184883304Y-78745000D01*
X184870117Y-78611109D01*
X184854613Y-78560000D01*
X184870117Y-78508891D01*
X184883304Y-78375000D01*
X184883304Y-77475000D01*
X184870117Y-77341109D01*
X184854613Y-77290000D01*
X184870117Y-77238891D01*
X184883304Y-77105000D01*
X184883304Y-76205000D01*
X184870117Y-76071109D01*
X184854613Y-76020000D01*
X184870117Y-75968891D01*
X184883304Y-75835000D01*
X184883304Y-75365000D01*
X187510695Y-75365000D01*
X187523882Y-75498891D01*
X187559862Y-75617500D01*
X187523882Y-75736109D01*
X187510695Y-75870000D01*
X187514000Y-76285250D01*
X187684750Y-76456000D01*
X188452833Y-76456000D01*
X188538870Y-76497567D01*
X188684295Y-76535276D01*
X188641733Y-76541230D01*
X188468185Y-76601711D01*
X188445194Y-76614000D01*
X187684750Y-76614000D01*
X187514000Y-76784750D01*
X187510695Y-77200000D01*
X187523882Y-77333891D01*
X187559862Y-77452500D01*
X187523882Y-77571109D01*
X187510695Y-77705000D01*
X187514000Y-78120250D01*
X187684750Y-78291000D01*
X188452833Y-78291000D01*
X188538870Y-78332567D01*
X188716772Y-78378697D01*
X188844045Y-78386005D01*
X188842767Y-78408254D01*
X188868230Y-78590267D01*
X188928711Y-78763815D01*
X188941000Y-78786806D01*
X188941000Y-79547250D01*
X189111750Y-79718000D01*
X189527000Y-79721305D01*
X189660891Y-79708118D01*
X189779500Y-79672138D01*
X189898109Y-79708118D01*
X190032000Y-79721305D01*
X190447250Y-79718000D01*
X190618000Y-79547250D01*
X190618000Y-78779167D01*
X190659567Y-78693130D01*
X190697276Y-78547705D01*
X190703230Y-78590267D01*
X190763711Y-78763815D01*
X190776000Y-78786806D01*
X190776000Y-79547250D01*
X190946750Y-79718000D01*
X191362000Y-79721305D01*
X191495891Y-79708118D01*
X191614500Y-79672138D01*
X191733109Y-79708118D01*
X191867000Y-79721305D01*
X192282250Y-79718000D01*
X192453000Y-79547250D01*
X192453000Y-78779167D01*
X192494567Y-78693130D01*
X192540697Y-78515228D01*
X192544499Y-78449000D01*
X192611000Y-78449000D01*
X192611000Y-79547250D01*
X192781750Y-79718000D01*
X193197000Y-79721305D01*
X193330891Y-79708118D01*
X193459638Y-79669063D01*
X193578291Y-79605642D01*
X193682291Y-79520291D01*
X193767642Y-79416291D01*
X193831063Y-79297638D01*
X193870118Y-79168891D01*
X193883305Y-79035000D01*
X193880000Y-78619750D01*
X193709250Y-78449000D01*
X192611000Y-78449000D01*
X192544499Y-78449000D01*
X192548005Y-78387955D01*
X192570254Y-78389233D01*
X192752267Y-78363770D01*
X192925815Y-78303289D01*
X192948806Y-78291000D01*
X193709250Y-78291000D01*
X193880000Y-78120250D01*
X193883305Y-77705000D01*
X193870118Y-77571109D01*
X193834138Y-77452500D01*
X193870118Y-77333891D01*
X193883305Y-77200000D01*
X193880000Y-76784750D01*
X193709250Y-76614000D01*
X192941167Y-76614000D01*
X192855130Y-76572433D01*
X192709705Y-76534724D01*
X192752267Y-76528770D01*
X192925815Y-76468289D01*
X192948806Y-76456000D01*
X193709250Y-76456000D01*
X193880000Y-76285250D01*
X193883305Y-75870000D01*
X193870118Y-75736109D01*
X193834138Y-75617500D01*
X193870118Y-75498891D01*
X193883305Y-75365000D01*
X193880000Y-74949750D01*
X193709250Y-74779000D01*
X192941167Y-74779000D01*
X192855130Y-74737433D01*
X192677228Y-74691303D01*
X192549955Y-74683995D01*
X192551233Y-74661746D01*
X192525770Y-74479733D01*
X192465289Y-74306185D01*
X192453000Y-74283194D01*
X192453000Y-73522750D01*
X192611000Y-73522750D01*
X192611000Y-74621000D01*
X193709250Y-74621000D01*
X193880000Y-74450250D01*
X193883305Y-74035000D01*
X193870118Y-73901109D01*
X193831063Y-73772362D01*
X193767642Y-73653709D01*
X193682291Y-73549709D01*
X193578291Y-73464358D01*
X193459638Y-73400937D01*
X193330891Y-73361882D01*
X193197000Y-73348695D01*
X192781750Y-73352000D01*
X192611000Y-73522750D01*
X192453000Y-73522750D01*
X192282250Y-73352000D01*
X191867000Y-73348695D01*
X191733109Y-73361882D01*
X191614500Y-73397862D01*
X191495891Y-73361882D01*
X191362000Y-73348695D01*
X190946750Y-73352000D01*
X190776000Y-73522750D01*
X190776000Y-74290833D01*
X190734433Y-74376870D01*
X190696724Y-74522295D01*
X190690770Y-74479733D01*
X190630289Y-74306185D01*
X190618000Y-74283194D01*
X190618000Y-73522750D01*
X190447250Y-73352000D01*
X190032000Y-73348695D01*
X189898109Y-73361882D01*
X189779500Y-73397862D01*
X189660891Y-73361882D01*
X189527000Y-73348695D01*
X189111750Y-73352000D01*
X188941000Y-73522750D01*
X188941000Y-74290833D01*
X188899433Y-74376870D01*
X188853303Y-74554772D01*
X188845995Y-74682045D01*
X188823746Y-74680767D01*
X188641733Y-74706230D01*
X188468185Y-74766711D01*
X188445194Y-74779000D01*
X187684750Y-74779000D01*
X187514000Y-74949750D01*
X187510695Y-75365000D01*
X184883304Y-75365000D01*
X184883304Y-74935000D01*
X184870117Y-74801109D01*
X184854613Y-74750000D01*
X184870117Y-74698891D01*
X184883304Y-74565000D01*
X184883304Y-74035000D01*
X187510695Y-74035000D01*
X187514000Y-74450250D01*
X187684750Y-74621000D01*
X188783000Y-74621000D01*
X188783000Y-73522750D01*
X188612250Y-73352000D01*
X188197000Y-73348695D01*
X188063109Y-73361882D01*
X187934362Y-73400937D01*
X187815709Y-73464358D01*
X187711709Y-73549709D01*
X187626358Y-73653709D01*
X187562937Y-73772362D01*
X187523882Y-73901109D01*
X187510695Y-74035000D01*
X184883304Y-74035000D01*
X184883304Y-73665000D01*
X184870117Y-73531109D01*
X184854613Y-73480000D01*
X184870117Y-73428891D01*
X184883304Y-73295000D01*
X184883304Y-72395000D01*
X184870117Y-72261109D01*
X184854613Y-72210000D01*
X184870117Y-72158891D01*
X184883304Y-72025000D01*
X184883304Y-71125000D01*
X184870117Y-70991109D01*
X184854613Y-70940000D01*
X184870117Y-70888891D01*
X184883304Y-70755000D01*
X184883304Y-69855000D01*
X184870117Y-69721109D01*
X184854614Y-69670002D01*
X184870118Y-69618891D01*
X184883305Y-69485000D01*
X184880000Y-69284750D01*
X184709250Y-69114000D01*
X183276000Y-69114000D01*
X183276000Y-69134000D01*
X183118000Y-69134000D01*
X183118000Y-69114000D01*
X183098000Y-69114000D01*
X183098000Y-68956000D01*
X183118000Y-68956000D01*
X183118000Y-68936000D01*
X183276000Y-68936000D01*
X183276000Y-68956000D01*
X184709250Y-68956000D01*
X184880000Y-68785250D01*
X184883305Y-68585000D01*
X184870118Y-68451109D01*
X184831063Y-68322362D01*
X184767642Y-68203709D01*
X184698943Y-68120000D01*
X198695057Y-68120000D01*
X198626358Y-68203709D01*
X198562937Y-68322362D01*
X198523882Y-68451109D01*
X198510695Y-68585000D01*
X198514000Y-68785250D01*
X198684750Y-68956000D01*
X200118000Y-68956000D01*
X200118000Y-68936000D01*
X200276000Y-68936000D01*
X200276000Y-68956000D01*
X201709250Y-68956000D01*
X201880000Y-68785250D01*
X201883305Y-68585000D01*
X201870118Y-68451109D01*
X201831063Y-68322362D01*
X201767642Y-68203709D01*
X201698943Y-68120000D01*
X201930000Y-68120000D01*
X201964141Y-68116637D01*
X201996970Y-68106679D01*
X202027225Y-68090507D01*
X202053744Y-68068744D01*
X202073884Y-68044612D01*
X205545126Y-63030595D01*
X205535912Y-63052840D01*
G04 #@! TA.AperFunction,Conductor*
D30*
G36*
X205535912Y-63052840D02*
G01*
X205477000Y-63349013D01*
X205477000Y-63650987D01*
X205535912Y-63947160D01*
X205651473Y-64226148D01*
X205819241Y-64477231D01*
X206032769Y-64690759D01*
X206151362Y-64770000D01*
X206032769Y-64849241D01*
X205819241Y-65062769D01*
X205722869Y-65207000D01*
X205145915Y-65207000D01*
X205104999Y-65202970D01*
X205064084Y-65207000D01*
X205064082Y-65207000D01*
X204941704Y-65219053D01*
X204784682Y-65266685D01*
X204639971Y-65344035D01*
X204513130Y-65448130D01*
X204487046Y-65479914D01*
X203964917Y-66002044D01*
X203933132Y-66028129D01*
X203873416Y-66100894D01*
X203829037Y-66154970D01*
X203751686Y-66299682D01*
X203704055Y-66456703D01*
X203687971Y-66619999D01*
X203692002Y-66660924D01*
X203692001Y-68881563D01*
X203663600Y-68869799D01*
X203616451Y-68844597D01*
X203565291Y-68829078D01*
X203515899Y-68808619D01*
X203463465Y-68798189D01*
X203412305Y-68782670D01*
X203359101Y-68777430D01*
X203306666Y-68767000D01*
X203253203Y-68767000D01*
X203200000Y-68761760D01*
X203146797Y-68767000D01*
X203093334Y-68767000D01*
X203040899Y-68777430D01*
X202987696Y-68782670D01*
X202936538Y-68798189D01*
X202884101Y-68808619D01*
X202834707Y-68829079D01*
X202783550Y-68844597D01*
X202736405Y-68869797D01*
X202687007Y-68890258D01*
X202642549Y-68919964D01*
X202595407Y-68945162D01*
X202554086Y-68979073D01*
X202509628Y-69008779D01*
X202471821Y-69046586D01*
X202430499Y-69080498D01*
X202396587Y-69121820D01*
X202358779Y-69159628D01*
X202329072Y-69204088D01*
X202295163Y-69245406D01*
X202269966Y-69292545D01*
X202240258Y-69337007D01*
X202219795Y-69386409D01*
X202194598Y-69433549D01*
X202179080Y-69484703D01*
X202158619Y-69534101D01*
X202148189Y-69586537D01*
X202132670Y-69637695D01*
X202127430Y-69690899D01*
X202117000Y-69743334D01*
X202117000Y-70492000D01*
X201883304Y-70492000D01*
X201883304Y-69855000D01*
X201870117Y-69721109D01*
X201854614Y-69670002D01*
X201870118Y-69618891D01*
X201883305Y-69485000D01*
X201880000Y-69284750D01*
X201709250Y-69114000D01*
X200276000Y-69114000D01*
X200276000Y-69134000D01*
X200118000Y-69134000D01*
X200118000Y-69114000D01*
X198684750Y-69114000D01*
X198514000Y-69284750D01*
X198510695Y-69485000D01*
X198523882Y-69618891D01*
X198539386Y-69670002D01*
X198523883Y-69721109D01*
X198510696Y-69855000D01*
X198510696Y-70755000D01*
X198523883Y-70888891D01*
X198539387Y-70940000D01*
X198523883Y-70991109D01*
X198510696Y-71125000D01*
X198510696Y-72025000D01*
X198523883Y-72158891D01*
X198539387Y-72210000D01*
X198523883Y-72261109D01*
X198510696Y-72395000D01*
X198510696Y-73295000D01*
X198523883Y-73428891D01*
X198539387Y-73480000D01*
X198523883Y-73531109D01*
X198510696Y-73665000D01*
X198510696Y-74565000D01*
X198523883Y-74698891D01*
X198539387Y-74750000D01*
X198523883Y-74801109D01*
X198510696Y-74935000D01*
X198510696Y-75835000D01*
X198523883Y-75968891D01*
X198539387Y-76020000D01*
X198523883Y-76071109D01*
X198510696Y-76205000D01*
X198510696Y-77105000D01*
X198523883Y-77238891D01*
X198539387Y-77290000D01*
X198523883Y-77341109D01*
X198510696Y-77475000D01*
X198510696Y-78375000D01*
X198523883Y-78508891D01*
X198539387Y-78560000D01*
X198523883Y-78611109D01*
X198510696Y-78745000D01*
X198510696Y-79645000D01*
X198523883Y-79778891D01*
X198539387Y-79830000D01*
X198523883Y-79881109D01*
X198510696Y-80015000D01*
X198510696Y-80915000D01*
X198523883Y-81048891D01*
X198539387Y-81100000D01*
X198523883Y-81151109D01*
X198510696Y-81285000D01*
X198510696Y-82185000D01*
X198523883Y-82318891D01*
X198539387Y-82370000D01*
X198523883Y-82421109D01*
X198510696Y-82555000D01*
X198510696Y-83455000D01*
X198523883Y-83588891D01*
X198539387Y-83640000D01*
X198523883Y-83691109D01*
X198510696Y-83825000D01*
X198510696Y-84725000D01*
X198523883Y-84858891D01*
X198539387Y-84910000D01*
X198523883Y-84961109D01*
X198510696Y-85095000D01*
X198510696Y-85330604D01*
X198496062Y-85282363D01*
X198432641Y-85163710D01*
X198347290Y-85059710D01*
X198243290Y-84974359D01*
X198124637Y-84910938D01*
X197995891Y-84871883D01*
X197862000Y-84858696D01*
X196962000Y-84858696D01*
X196828109Y-84871883D01*
X196777000Y-84887387D01*
X196725891Y-84871883D01*
X196592000Y-84858696D01*
X195692000Y-84858696D01*
X195558109Y-84871883D01*
X195507000Y-84887387D01*
X195455891Y-84871883D01*
X195322000Y-84858696D01*
X194422000Y-84858696D01*
X194288109Y-84871883D01*
X194237000Y-84887387D01*
X194185891Y-84871883D01*
X194052000Y-84858696D01*
X193152000Y-84858696D01*
X193018109Y-84871883D01*
X192967000Y-84887387D01*
X192915891Y-84871883D01*
X192782000Y-84858696D01*
X191882000Y-84858696D01*
X191748109Y-84871883D01*
X191697000Y-84887387D01*
X191645891Y-84871883D01*
X191512000Y-84858696D01*
X190612000Y-84858696D01*
X190478109Y-84871883D01*
X190427000Y-84887387D01*
X190375891Y-84871883D01*
X190242000Y-84858696D01*
X189342000Y-84858696D01*
X189208109Y-84871883D01*
X189157000Y-84887387D01*
X189105891Y-84871883D01*
X188972000Y-84858696D01*
X188072000Y-84858696D01*
X187938109Y-84871883D01*
X187887000Y-84887387D01*
X187835891Y-84871883D01*
X187702000Y-84858696D01*
X186802000Y-84858696D01*
X186668109Y-84871883D01*
X186617002Y-84887386D01*
X186565891Y-84871882D01*
X186432000Y-84858695D01*
X186231750Y-84862000D01*
X186061000Y-85032750D01*
X186061000Y-86466000D01*
X186081000Y-86466000D01*
X186081000Y-86624000D01*
X186061000Y-86624000D01*
X186061000Y-88057250D01*
X186231750Y-88228000D01*
X186432000Y-88231305D01*
X186565891Y-88218118D01*
X186617002Y-88202614D01*
X186668109Y-88218117D01*
X186802000Y-88231304D01*
X187702000Y-88231304D01*
X187835891Y-88218117D01*
X187887000Y-88202613D01*
X187938109Y-88218117D01*
X188072000Y-88231304D01*
X188972000Y-88231304D01*
X189105891Y-88218117D01*
X189157000Y-88202613D01*
X189208109Y-88218117D01*
X189342000Y-88231304D01*
X190242000Y-88231304D01*
X190375891Y-88218117D01*
X190427000Y-88202613D01*
X190478109Y-88218117D01*
X190612000Y-88231304D01*
X191512000Y-88231304D01*
X191645891Y-88218117D01*
X191697000Y-88202613D01*
X191748109Y-88218117D01*
X191882000Y-88231304D01*
X192782000Y-88231304D01*
X192915891Y-88218117D01*
X192967000Y-88202613D01*
X193018109Y-88218117D01*
X193152000Y-88231304D01*
X194052000Y-88231304D01*
X194185891Y-88218117D01*
X194237000Y-88202613D01*
X194288109Y-88218117D01*
X194422000Y-88231304D01*
X195220210Y-88231304D01*
X195310162Y-88399593D01*
X195322476Y-88414598D01*
X195445499Y-88564502D01*
X195486826Y-88598418D01*
X199440103Y-92551696D01*
X198223289Y-92551696D01*
X194351423Y-88679831D01*
X194317502Y-88638498D01*
X194152594Y-88503162D01*
X193964451Y-88402597D01*
X193760305Y-88340670D01*
X193601203Y-88325000D01*
X193601200Y-88325000D01*
X193548000Y-88319760D01*
X193494800Y-88325000D01*
X189885334Y-88325000D01*
X189832899Y-88335430D01*
X189779695Y-88340670D01*
X189728535Y-88356189D01*
X189676101Y-88366619D01*
X189626709Y-88387078D01*
X189575549Y-88402597D01*
X189528400Y-88427799D01*
X189479007Y-88448258D01*
X189434553Y-88477961D01*
X189387406Y-88503162D01*
X189346081Y-88537076D01*
X189301628Y-88566779D01*
X189263825Y-88604582D01*
X189222498Y-88638498D01*
X189188582Y-88679825D01*
X189150779Y-88717628D01*
X189121076Y-88762081D01*
X189087162Y-88803406D01*
X189061961Y-88850553D01*
X189032258Y-88895007D01*
X189011799Y-88944400D01*
X188986597Y-88991549D01*
X188971078Y-89042709D01*
X188950619Y-89092101D01*
X188940189Y-89144535D01*
X188924670Y-89195695D01*
X188919430Y-89248899D01*
X188909000Y-89301334D01*
X188909000Y-89354797D01*
X188903760Y-89408000D01*
X188909000Y-89461203D01*
X188909000Y-89514666D01*
X188919430Y-89567101D01*
X188924670Y-89620305D01*
X188940189Y-89671465D01*
X188950619Y-89723899D01*
X188971078Y-89773291D01*
X188986597Y-89824451D01*
X189011799Y-89871600D01*
X189032258Y-89920993D01*
X189061961Y-89965447D01*
X189087162Y-90012594D01*
X189121076Y-90053919D01*
X189150779Y-90098372D01*
X189188582Y-90136175D01*
X189222498Y-90177502D01*
X189263825Y-90211418D01*
X189301628Y-90249221D01*
X189346081Y-90278924D01*
X189387406Y-90312838D01*
X189434553Y-90338039D01*
X189479007Y-90367742D01*
X189528400Y-90388201D01*
X189575549Y-90413403D01*
X189626709Y-90428922D01*
X189676101Y-90449381D01*
X189728535Y-90459811D01*
X189779695Y-90475330D01*
X189832899Y-90480570D01*
X189885334Y-90491000D01*
X193099408Y-90491000D01*
X196691696Y-94083289D01*
X196691696Y-95738000D01*
X196704883Y-95871891D01*
X196743938Y-96000637D01*
X196807359Y-96119290D01*
X196892710Y-96223290D01*
X196996710Y-96308641D01*
X197115363Y-96372062D01*
X197244109Y-96411117D01*
X197378000Y-96424304D01*
X199878000Y-96424304D01*
X200011891Y-96411117D01*
X200140637Y-96372062D01*
X200259290Y-96308641D01*
X200363290Y-96223290D01*
X200448641Y-96119290D01*
X200512062Y-96000637D01*
X200551117Y-95871891D01*
X200564304Y-95738000D01*
X200564304Y-93238000D01*
X200556425Y-93158000D01*
X203114891Y-93158000D01*
X203161492Y-93245183D01*
X203277933Y-93387067D01*
X203387001Y-93476576D01*
X203387000Y-94587879D01*
X203162729Y-94812150D01*
X202978545Y-95087801D01*
X202851677Y-95394087D01*
X202787000Y-95719239D01*
X202787000Y-96050761D01*
X202851677Y-96375913D01*
X202978545Y-96682199D01*
X202995116Y-96707000D01*
X192853593Y-96707000D01*
X191941921Y-95795328D01*
X192432395Y-95795328D01*
X192551170Y-96104532D01*
X192887231Y-96283549D01*
X193251758Y-96393565D01*
X193630745Y-96430352D01*
X194009626Y-96392494D01*
X194373842Y-96281448D01*
X194704830Y-96104532D01*
X194823605Y-95795328D01*
X193628000Y-94599723D01*
X192432395Y-95795328D01*
X191941921Y-95795328D01*
X191583000Y-95436408D01*
X191583000Y-94490745D01*
X191685648Y-94490745D01*
X191723506Y-94869626D01*
X191834552Y-95233842D01*
X192011468Y-95564830D01*
X192320672Y-95683605D01*
X193516277Y-94488000D01*
X193739723Y-94488000D01*
X194935328Y-95683605D01*
X195244532Y-95564830D01*
X195423549Y-95228769D01*
X195533565Y-94864242D01*
X195570352Y-94485255D01*
X195532494Y-94106374D01*
X195421448Y-93742158D01*
X195244532Y-93411170D01*
X194935328Y-93292395D01*
X193739723Y-94488000D01*
X193516277Y-94488000D01*
X192320672Y-93292395D01*
X192011468Y-93411170D01*
X191832451Y-93747231D01*
X191722435Y-94111758D01*
X191685648Y-94490745D01*
X191583000Y-94490745D01*
X191583000Y-94033200D01*
X191588240Y-93980000D01*
X191578726Y-93883406D01*
X191567330Y-93767695D01*
X191505403Y-93563549D01*
X191404838Y-93375406D01*
X191269502Y-93210498D01*
X191233159Y-93180672D01*
X192432395Y-93180672D01*
X193628000Y-94376277D01*
X194823605Y-93180672D01*
X194704830Y-92871468D01*
X194368769Y-92692451D01*
X194004242Y-92582435D01*
X193625255Y-92545648D01*
X193246374Y-92583506D01*
X192882158Y-92694552D01*
X192551170Y-92871468D01*
X192432395Y-93180672D01*
X191233159Y-93180672D01*
X191228174Y-93176581D01*
X190593176Y-92541584D01*
X190469593Y-92440162D01*
X190281451Y-92339598D01*
X190077304Y-92277671D01*
X189865000Y-92256760D01*
X189652696Y-92277671D01*
X189448549Y-92339598D01*
X189260407Y-92440162D01*
X189172872Y-92512000D01*
X188852088Y-92512000D01*
X188908000Y-92230912D01*
X188908000Y-91919088D01*
X188847166Y-91613256D01*
X188727836Y-91325169D01*
X188554596Y-91065897D01*
X188334103Y-90845404D01*
X188074831Y-90672164D01*
X187786744Y-90552834D01*
X187480912Y-90492000D01*
X187273592Y-90492000D01*
X187108423Y-90326831D01*
X187074502Y-90285498D01*
X186909594Y-90150162D01*
X186721451Y-90049597D01*
X186517305Y-89987670D01*
X186358203Y-89972000D01*
X186358200Y-89972000D01*
X186305000Y-89966760D01*
X186251800Y-89972000D01*
X185902687Y-89972000D01*
X185872637Y-89955938D01*
X185743891Y-89916883D01*
X185610000Y-89903696D01*
X184300000Y-89903696D01*
X184166109Y-89916883D01*
X184037363Y-89955938D01*
X183918710Y-90019359D01*
X183814710Y-90104710D01*
X183729359Y-90208710D01*
X183665938Y-90327363D01*
X183626883Y-90456109D01*
X183613696Y-90590000D01*
X183613696Y-91520000D01*
X183626883Y-91653891D01*
X183665938Y-91782637D01*
X183729359Y-91901290D01*
X183814710Y-92005290D01*
X183918710Y-92090641D01*
X184037363Y-92154062D01*
X184166109Y-92193117D01*
X184235994Y-92200000D01*
X184166109Y-92206883D01*
X184037363Y-92245938D01*
X184007313Y-92262000D01*
X183328593Y-92262000D01*
X180788000Y-89721408D01*
X180788000Y-87545000D01*
X184845695Y-87545000D01*
X184858882Y-87678891D01*
X184897937Y-87807638D01*
X184961358Y-87926291D01*
X185046709Y-88030291D01*
X185150709Y-88115642D01*
X185269362Y-88179063D01*
X185398109Y-88218118D01*
X185532000Y-88231305D01*
X185732250Y-88228000D01*
X185903000Y-88057250D01*
X185903000Y-86624000D01*
X185019750Y-86624000D01*
X184849000Y-86794750D01*
X184845695Y-87545000D01*
X180788000Y-87545000D01*
X180788000Y-79428200D01*
X180793240Y-79375000D01*
X180786516Y-79306733D01*
X180772330Y-79162695D01*
X180710403Y-78958549D01*
X180609838Y-78770406D01*
X180474502Y-78605498D01*
X180433174Y-78571581D01*
X179779593Y-77918000D01*
X179811666Y-77918000D01*
X180020899Y-77876381D01*
X180217993Y-77794742D01*
X180395372Y-77676221D01*
X180546221Y-77525372D01*
X180664742Y-77347993D01*
X180673123Y-77327759D01*
X181444563Y-76556320D01*
X181483975Y-76523975D01*
X181510696Y-76491416D01*
X181510696Y-77105000D01*
X181523883Y-77238891D01*
X181539387Y-77290000D01*
X181523883Y-77341109D01*
X181510696Y-77475000D01*
X181510696Y-78375000D01*
X181523883Y-78508891D01*
X181539387Y-78560000D01*
X181523883Y-78611109D01*
X181510696Y-78745000D01*
X181510696Y-79645000D01*
X181523883Y-79778891D01*
X181539387Y-79830000D01*
X181523883Y-79881109D01*
X181510696Y-80015000D01*
X181510696Y-80915000D01*
X181523883Y-81048891D01*
X181539387Y-81100000D01*
X181523883Y-81151109D01*
X181510696Y-81285000D01*
X181510696Y-82185000D01*
X181523883Y-82318891D01*
X181539387Y-82370000D01*
X181523883Y-82421109D01*
X181510696Y-82555000D01*
X181510696Y-83455000D01*
X181523883Y-83588891D01*
X181539387Y-83640000D01*
X181523883Y-83691109D01*
X181510696Y-83825000D01*
X181510696Y-84725000D01*
X181523883Y-84858891D01*
X181539387Y-84910000D01*
X181523883Y-84961109D01*
X181510696Y-85095000D01*
X181510696Y-85995000D01*
X181523883Y-86128891D01*
X181562938Y-86257637D01*
X181626359Y-86376290D01*
X181711710Y-86480290D01*
X181815710Y-86565641D01*
X181934363Y-86629062D01*
X182063109Y-86668117D01*
X182197000Y-86681304D01*
X184197000Y-86681304D01*
X184330891Y-86668117D01*
X184459637Y-86629062D01*
X184578290Y-86565641D01*
X184682290Y-86480290D01*
X184767641Y-86376290D01*
X184831062Y-86257637D01*
X184848580Y-86199889D01*
X184849000Y-86295250D01*
X185019750Y-86466000D01*
X185903000Y-86466000D01*
X185903000Y-85032750D01*
X185732250Y-84862000D01*
X185532000Y-84858695D01*
X185398109Y-84871882D01*
X185269362Y-84910937D01*
X185150709Y-84974358D01*
X185046709Y-85059709D01*
X184961358Y-85163709D01*
X184897937Y-85282362D01*
X184883304Y-85330601D01*
X184883304Y-85095000D01*
X184870117Y-84961109D01*
X184854613Y-84910000D01*
X184870117Y-84858891D01*
X184883304Y-84725000D01*
X184883304Y-83825000D01*
X184870117Y-83691109D01*
X184854613Y-83640000D01*
X184870117Y-83588891D01*
X184883304Y-83455000D01*
X184883304Y-82555000D01*
X184870117Y-82421109D01*
X184854613Y-82370000D01*
X184870117Y-82318891D01*
X184883304Y-82185000D01*
X184883304Y-81285000D01*
X184870117Y-81151109D01*
X184854613Y-81100000D01*
X184870117Y-81048891D01*
X184883304Y-80915000D01*
X184883304Y-80015000D01*
X184870117Y-79881109D01*
X184854613Y-79830000D01*
X184870117Y-79778891D01*
X184883304Y-79645000D01*
X184883304Y-79035000D01*
X187510695Y-79035000D01*
X187523882Y-79168891D01*
X187562937Y-79297638D01*
X187626358Y-79416291D01*
X187711709Y-79520291D01*
X187815709Y-79605642D01*
X187934362Y-79669063D01*
X188063109Y-79708118D01*
X188197000Y-79721305D01*
X188612250Y-79718000D01*
X188783000Y-79547250D01*
X188783000Y-78449000D01*
X187684750Y-78449000D01*
X187514000Y-78619750D01*
X187510695Y-79035000D01*
X184883304Y-79035000D01*
X184883304Y-78745000D01*
X184870117Y-78611109D01*
X184854613Y-78560000D01*
X184870117Y-78508891D01*
X184883304Y-78375000D01*
X184883304Y-77475000D01*
X184870117Y-77341109D01*
X184854613Y-77290000D01*
X184870117Y-77238891D01*
X184883304Y-77105000D01*
X184883304Y-76205000D01*
X184870117Y-76071109D01*
X184854613Y-76020000D01*
X184870117Y-75968891D01*
X184883304Y-75835000D01*
X184883304Y-75365000D01*
X187510695Y-75365000D01*
X187523882Y-75498891D01*
X187559862Y-75617500D01*
X187523882Y-75736109D01*
X187510695Y-75870000D01*
X187514000Y-76285250D01*
X187684750Y-76456000D01*
X188452833Y-76456000D01*
X188538870Y-76497567D01*
X188684295Y-76535276D01*
X188641733Y-76541230D01*
X188468185Y-76601711D01*
X188445194Y-76614000D01*
X187684750Y-76614000D01*
X187514000Y-76784750D01*
X187510695Y-77200000D01*
X187523882Y-77333891D01*
X187559862Y-77452500D01*
X187523882Y-77571109D01*
X187510695Y-77705000D01*
X187514000Y-78120250D01*
X187684750Y-78291000D01*
X188452833Y-78291000D01*
X188538870Y-78332567D01*
X188716772Y-78378697D01*
X188844045Y-78386005D01*
X188842767Y-78408254D01*
X188868230Y-78590267D01*
X188928711Y-78763815D01*
X188941000Y-78786806D01*
X188941000Y-79547250D01*
X189111750Y-79718000D01*
X189527000Y-79721305D01*
X189660891Y-79708118D01*
X189779500Y-79672138D01*
X189898109Y-79708118D01*
X190032000Y-79721305D01*
X190447250Y-79718000D01*
X190618000Y-79547250D01*
X190618000Y-78779167D01*
X190659567Y-78693130D01*
X190697276Y-78547705D01*
X190703230Y-78590267D01*
X190763711Y-78763815D01*
X190776000Y-78786806D01*
X190776000Y-79547250D01*
X190946750Y-79718000D01*
X191362000Y-79721305D01*
X191495891Y-79708118D01*
X191614500Y-79672138D01*
X191733109Y-79708118D01*
X191867000Y-79721305D01*
X192282250Y-79718000D01*
X192453000Y-79547250D01*
X192453000Y-78779167D01*
X192494567Y-78693130D01*
X192540697Y-78515228D01*
X192544499Y-78449000D01*
X192611000Y-78449000D01*
X192611000Y-79547250D01*
X192781750Y-79718000D01*
X193197000Y-79721305D01*
X193330891Y-79708118D01*
X193459638Y-79669063D01*
X193578291Y-79605642D01*
X193682291Y-79520291D01*
X193767642Y-79416291D01*
X193831063Y-79297638D01*
X193870118Y-79168891D01*
X193883305Y-79035000D01*
X193880000Y-78619750D01*
X193709250Y-78449000D01*
X192611000Y-78449000D01*
X192544499Y-78449000D01*
X192548005Y-78387955D01*
X192570254Y-78389233D01*
X192752267Y-78363770D01*
X192925815Y-78303289D01*
X192948806Y-78291000D01*
X193709250Y-78291000D01*
X193880000Y-78120250D01*
X193883305Y-77705000D01*
X193870118Y-77571109D01*
X193834138Y-77452500D01*
X193870118Y-77333891D01*
X193883305Y-77200000D01*
X193880000Y-76784750D01*
X193709250Y-76614000D01*
X192941167Y-76614000D01*
X192855130Y-76572433D01*
X192709705Y-76534724D01*
X192752267Y-76528770D01*
X192925815Y-76468289D01*
X192948806Y-76456000D01*
X193709250Y-76456000D01*
X193880000Y-76285250D01*
X193883305Y-75870000D01*
X193870118Y-75736109D01*
X193834138Y-75617500D01*
X193870118Y-75498891D01*
X193883305Y-75365000D01*
X193880000Y-74949750D01*
X193709250Y-74779000D01*
X192941167Y-74779000D01*
X192855130Y-74737433D01*
X192677228Y-74691303D01*
X192549955Y-74683995D01*
X192551233Y-74661746D01*
X192525770Y-74479733D01*
X192465289Y-74306185D01*
X192453000Y-74283194D01*
X192453000Y-73522750D01*
X192611000Y-73522750D01*
X192611000Y-74621000D01*
X193709250Y-74621000D01*
X193880000Y-74450250D01*
X193883305Y-74035000D01*
X193870118Y-73901109D01*
X193831063Y-73772362D01*
X193767642Y-73653709D01*
X193682291Y-73549709D01*
X193578291Y-73464358D01*
X193459638Y-73400937D01*
X193330891Y-73361882D01*
X193197000Y-73348695D01*
X192781750Y-73352000D01*
X192611000Y-73522750D01*
X192453000Y-73522750D01*
X192282250Y-73352000D01*
X191867000Y-73348695D01*
X191733109Y-73361882D01*
X191614500Y-73397862D01*
X191495891Y-73361882D01*
X191362000Y-73348695D01*
X190946750Y-73352000D01*
X190776000Y-73522750D01*
X190776000Y-74290833D01*
X190734433Y-74376870D01*
X190696724Y-74522295D01*
X190690770Y-74479733D01*
X190630289Y-74306185D01*
X190618000Y-74283194D01*
X190618000Y-73522750D01*
X190447250Y-73352000D01*
X190032000Y-73348695D01*
X189898109Y-73361882D01*
X189779500Y-73397862D01*
X189660891Y-73361882D01*
X189527000Y-73348695D01*
X189111750Y-73352000D01*
X188941000Y-73522750D01*
X188941000Y-74290833D01*
X188899433Y-74376870D01*
X188853303Y-74554772D01*
X188845995Y-74682045D01*
X188823746Y-74680767D01*
X188641733Y-74706230D01*
X188468185Y-74766711D01*
X188445194Y-74779000D01*
X187684750Y-74779000D01*
X187514000Y-74949750D01*
X187510695Y-75365000D01*
X184883304Y-75365000D01*
X184883304Y-74935000D01*
X184870117Y-74801109D01*
X184854613Y-74750000D01*
X184870117Y-74698891D01*
X184883304Y-74565000D01*
X184883304Y-74035000D01*
X187510695Y-74035000D01*
X187514000Y-74450250D01*
X187684750Y-74621000D01*
X188783000Y-74621000D01*
X188783000Y-73522750D01*
X188612250Y-73352000D01*
X188197000Y-73348695D01*
X188063109Y-73361882D01*
X187934362Y-73400937D01*
X187815709Y-73464358D01*
X187711709Y-73549709D01*
X187626358Y-73653709D01*
X187562937Y-73772362D01*
X187523882Y-73901109D01*
X187510695Y-74035000D01*
X184883304Y-74035000D01*
X184883304Y-73665000D01*
X184870117Y-73531109D01*
X184854613Y-73480000D01*
X184870117Y-73428891D01*
X184883304Y-73295000D01*
X184883304Y-72395000D01*
X184870117Y-72261109D01*
X184854613Y-72210000D01*
X184870117Y-72158891D01*
X184883304Y-72025000D01*
X184883304Y-71125000D01*
X184870117Y-70991109D01*
X184854613Y-70940000D01*
X184870117Y-70888891D01*
X184883304Y-70755000D01*
X184883304Y-69855000D01*
X184870117Y-69721109D01*
X184854614Y-69670002D01*
X184870118Y-69618891D01*
X184883305Y-69485000D01*
X184880000Y-69284750D01*
X184709250Y-69114000D01*
X183276000Y-69114000D01*
X183276000Y-69134000D01*
X183118000Y-69134000D01*
X183118000Y-69114000D01*
X183098000Y-69114000D01*
X183098000Y-68956000D01*
X183118000Y-68956000D01*
X183118000Y-68936000D01*
X183276000Y-68936000D01*
X183276000Y-68956000D01*
X184709250Y-68956000D01*
X184880000Y-68785250D01*
X184883305Y-68585000D01*
X184870118Y-68451109D01*
X184831063Y-68322362D01*
X184767642Y-68203709D01*
X184698943Y-68120000D01*
X198695057Y-68120000D01*
X198626358Y-68203709D01*
X198562937Y-68322362D01*
X198523882Y-68451109D01*
X198510695Y-68585000D01*
X198514000Y-68785250D01*
X198684750Y-68956000D01*
X200118000Y-68956000D01*
X200118000Y-68936000D01*
X200276000Y-68936000D01*
X200276000Y-68956000D01*
X201709250Y-68956000D01*
X201880000Y-68785250D01*
X201883305Y-68585000D01*
X201870118Y-68451109D01*
X201831063Y-68322362D01*
X201767642Y-68203709D01*
X201698943Y-68120000D01*
X201930000Y-68120000D01*
X201964141Y-68116637D01*
X201996970Y-68106679D01*
X202027225Y-68090507D01*
X202053744Y-68068744D01*
X202073884Y-68044612D01*
X205545126Y-63030595D01*
X205535912Y-63052840D01*
G37*
G04 #@! TD.AperFunction*
D29*
X207089000Y-71041000D02*
X207109000Y-71041000D01*
X207109000Y-71199000D01*
X207089000Y-71199000D01*
X207089000Y-72482250D01*
X207259750Y-72653000D01*
X207860000Y-72656305D01*
X207993891Y-72643118D01*
X208122638Y-72604063D01*
X208241291Y-72540642D01*
X208345291Y-72455291D01*
X208430642Y-72351291D01*
X208467001Y-72283268D01*
X208467000Y-81467000D01*
X208087609Y-81467000D01*
X208041008Y-81379817D01*
X208020500Y-81354828D01*
X208020500Y-79935172D01*
X208041008Y-79910183D01*
X208127532Y-79748309D01*
X208180813Y-79572665D01*
X208198804Y-79390001D01*
X208198804Y-78089999D01*
X208180813Y-77907335D01*
X208127532Y-77731691D01*
X208041008Y-77569817D01*
X207924567Y-77427933D01*
X207782683Y-77311492D01*
X207620809Y-77224968D01*
X207445165Y-77171687D01*
X207262501Y-77153696D01*
X206612499Y-77153696D01*
X206429835Y-77171687D01*
X206254191Y-77224968D01*
X206092317Y-77311492D01*
X205950433Y-77427933D01*
X205833992Y-77569817D01*
X205747468Y-77731691D01*
X205694187Y-77907335D01*
X205676196Y-78089999D01*
X205676196Y-79390001D01*
X205694187Y-79572665D01*
X205747468Y-79748309D01*
X205833992Y-79910183D01*
X205854500Y-79935172D01*
X205854501Y-81354827D01*
X205833992Y-81379817D01*
X205747468Y-81541691D01*
X205694187Y-81717335D01*
X205676196Y-81899999D01*
X205676196Y-83200001D01*
X205694187Y-83382665D01*
X205747468Y-83558309D01*
X205833992Y-83720183D01*
X205950433Y-83862067D01*
X206092317Y-83978508D01*
X206254191Y-84065032D01*
X206429835Y-84118313D01*
X206612499Y-84136304D01*
X207262501Y-84136304D01*
X207445165Y-84118313D01*
X207620809Y-84065032D01*
X207782683Y-83978508D01*
X207924567Y-83862067D01*
X208041008Y-83720183D01*
X208087609Y-83633000D01*
X208467001Y-83633000D01*
X208467000Y-90116797D01*
X208467000Y-90991407D01*
X208466408Y-90992000D01*
X208365109Y-90992000D01*
X208318508Y-90904817D01*
X208202067Y-90762933D01*
X208060183Y-90646492D01*
X207898309Y-90559968D01*
X207722665Y-90506687D01*
X207540001Y-90488696D01*
X206889999Y-90488696D01*
X206707335Y-90506687D01*
X206531691Y-90559968D01*
X206369817Y-90646492D01*
X206227933Y-90762933D01*
X206111492Y-90904817D01*
X206024968Y-91066691D01*
X205971687Y-91242335D01*
X205953696Y-91424999D01*
X205953696Y-92031350D01*
X205942671Y-92067695D01*
X205927001Y-92226797D01*
X205927000Y-94587879D01*
X205740000Y-94774879D01*
X205553000Y-94587879D01*
X205553000Y-92226797D01*
X205537330Y-92067695D01*
X205526304Y-92031347D01*
X205526304Y-91424999D01*
X205508313Y-91242335D01*
X205455032Y-91066691D01*
X205368508Y-90904817D01*
X205348000Y-90879828D01*
X205348000Y-90503000D01*
X206436800Y-90503000D01*
X206490000Y-90508240D01*
X206543200Y-90503000D01*
X206543203Y-90503000D01*
X206702305Y-90487330D01*
X206906451Y-90425403D01*
X207094594Y-90324838D01*
X207259502Y-90189502D01*
X207293422Y-90148170D01*
X207665674Y-89775919D01*
X207707002Y-89742002D01*
X207842338Y-89577094D01*
X207942903Y-89388951D01*
X208004830Y-89184805D01*
X208020500Y-89025703D01*
X208020500Y-89025701D01*
X208025740Y-88972500D01*
X208020500Y-88919300D01*
X208020500Y-88825172D01*
X208041008Y-88800183D01*
X208127532Y-88638309D01*
X208180813Y-88462665D01*
X208198804Y-88280001D01*
X208198804Y-86979999D01*
X208180813Y-86797335D01*
X208127532Y-86621691D01*
X208041008Y-86459817D01*
X207924567Y-86317933D01*
X207782683Y-86201492D01*
X207620809Y-86114968D01*
X207445165Y-86061687D01*
X207262501Y-86043696D01*
X206612499Y-86043696D01*
X206429835Y-86061687D01*
X206254191Y-86114968D01*
X206092317Y-86201492D01*
X205950433Y-86317933D01*
X205833992Y-86459817D01*
X205747468Y-86621691D01*
X205694187Y-86797335D01*
X205676196Y-86979999D01*
X205676196Y-88280001D01*
X205681810Y-88337000D01*
X205247824Y-88337000D01*
X205245500Y-87879750D01*
X205074750Y-87709000D01*
X204066500Y-87709000D01*
X204066500Y-87729000D01*
X203908500Y-87729000D01*
X203908500Y-87709000D01*
X202900250Y-87709000D01*
X202729500Y-87879750D01*
X202726195Y-88530000D01*
X202739382Y-88663891D01*
X202778437Y-88792638D01*
X202841858Y-88911291D01*
X202927209Y-89015291D01*
X203031209Y-89100642D01*
X203149862Y-89164063D01*
X203278609Y-89203118D01*
X203412500Y-89216305D01*
X203462426Y-89215798D01*
X203434682Y-89249604D01*
X203360162Y-89340407D01*
X203272403Y-89504593D01*
X203259598Y-89528549D01*
X203200340Y-89723899D01*
X203197671Y-89732696D01*
X203176760Y-89945000D01*
X203182001Y-89998210D01*
X203182001Y-90879827D01*
X203161492Y-90904817D01*
X203114891Y-90992000D01*
X200943593Y-90992000D01*
X198128558Y-88176966D01*
X198243290Y-88115641D01*
X198347290Y-88030290D01*
X198432641Y-87926290D01*
X198496062Y-87807637D01*
X198535117Y-87678891D01*
X198548304Y-87545000D01*
X198548304Y-86209396D01*
X198562938Y-86257637D01*
X198626359Y-86376290D01*
X198711710Y-86480290D01*
X198815710Y-86565641D01*
X198934363Y-86629062D01*
X199063109Y-86668117D01*
X199197000Y-86681304D01*
X201197000Y-86681304D01*
X201330891Y-86668117D01*
X201453006Y-86631074D01*
X201475000Y-86633240D01*
X201528200Y-86628000D01*
X201528203Y-86628000D01*
X201687305Y-86612330D01*
X201891451Y-86550403D01*
X202079594Y-86449838D01*
X202244502Y-86314502D01*
X202278422Y-86273170D01*
X202882500Y-85669093D01*
X203144628Y-85931221D01*
X203189078Y-85960922D01*
X203230405Y-85994838D01*
X203277556Y-86020041D01*
X203322007Y-86049742D01*
X203327596Y-86052057D01*
X203278609Y-86056882D01*
X203149862Y-86095937D01*
X203031209Y-86159358D01*
X202927209Y-86244709D01*
X202841858Y-86348709D01*
X202778437Y-86467362D01*
X202739382Y-86596109D01*
X202726195Y-86730000D01*
X202729500Y-87380250D01*
X202900250Y-87551000D01*
X203908500Y-87551000D01*
X203908500Y-87531000D01*
X204066500Y-87531000D01*
X204066500Y-87551000D01*
X205074750Y-87551000D01*
X205245500Y-87380250D01*
X205248805Y-86730000D01*
X205235618Y-86596109D01*
X205196563Y-86467362D01*
X205133142Y-86348709D01*
X205047791Y-86244709D01*
X204943791Y-86159358D01*
X204825138Y-86095937D01*
X204696391Y-86056882D01*
X204562500Y-86043695D01*
X204353870Y-86045815D01*
X204392452Y-86020035D01*
X204439593Y-85994838D01*
X204480912Y-85960928D01*
X204525372Y-85931221D01*
X204563183Y-85893410D01*
X204604501Y-85859501D01*
X204638410Y-85818183D01*
X204676221Y-85780372D01*
X204705928Y-85735912D01*
X204739838Y-85694593D01*
X204765035Y-85647452D01*
X204794742Y-85602993D01*
X204815204Y-85553592D01*
X204840402Y-85506451D01*
X204855918Y-85455300D01*
X204876381Y-85405899D01*
X204886813Y-85353453D01*
X204902329Y-85302304D01*
X204907568Y-85249111D01*
X204918000Y-85196666D01*
X204918000Y-85143192D01*
X204923239Y-85089999D01*
X204918000Y-85036806D01*
X204918000Y-84983334D01*
X204907568Y-84930890D01*
X204902329Y-84877695D01*
X204886812Y-84826543D01*
X204876381Y-84774101D01*
X204855920Y-84724705D01*
X204840402Y-84673547D01*
X204815201Y-84626399D01*
X204794742Y-84577007D01*
X204765041Y-84532556D01*
X204739838Y-84485405D01*
X204705922Y-84444078D01*
X204676221Y-84399628D01*
X204403895Y-84127302D01*
X204495165Y-84118313D01*
X204670809Y-84065032D01*
X204832683Y-83978508D01*
X204974567Y-83862067D01*
X205091008Y-83720183D01*
X205177532Y-83558309D01*
X205230813Y-83382665D01*
X205248804Y-83200001D01*
X205248804Y-81899999D01*
X205230813Y-81717335D01*
X205177532Y-81541691D01*
X205091008Y-81379817D01*
X204974567Y-81237933D01*
X204832683Y-81121492D01*
X204670809Y-81034968D01*
X204495165Y-80981687D01*
X204312501Y-80963696D01*
X203662499Y-80963696D01*
X203479835Y-80981687D01*
X203304191Y-81034968D01*
X203142317Y-81121492D01*
X203000433Y-81237933D01*
X202883992Y-81379817D01*
X202798308Y-81540120D01*
X202783549Y-81544597D01*
X202595406Y-81645162D01*
X202430498Y-81780498D01*
X202396577Y-81821831D01*
X202154326Y-82064082D01*
X202112999Y-82097998D01*
X202079084Y-82139324D01*
X201977662Y-82262907D01*
X201893101Y-82421109D01*
X201877098Y-82451049D01*
X201874054Y-82461083D01*
X201870117Y-82421109D01*
X201854613Y-82370000D01*
X201870117Y-82318891D01*
X201883304Y-82185000D01*
X201883304Y-81486525D01*
X201936451Y-81470403D01*
X202124594Y-81369838D01*
X202289502Y-81234502D01*
X202323423Y-81193169D01*
X203276410Y-80240183D01*
X203304191Y-80255032D01*
X203479835Y-80308313D01*
X203662499Y-80326304D01*
X204312501Y-80326304D01*
X204495165Y-80308313D01*
X204670809Y-80255032D01*
X204832683Y-80168508D01*
X204974567Y-80052067D01*
X205091008Y-79910183D01*
X205177532Y-79748309D01*
X205230813Y-79572665D01*
X205248804Y-79390001D01*
X205248804Y-78089999D01*
X205230813Y-77907335D01*
X205177532Y-77731691D01*
X205152233Y-77684359D01*
X205353416Y-77483176D01*
X206543416Y-76293177D01*
X206581221Y-76255372D01*
X206610922Y-76210922D01*
X206644838Y-76169595D01*
X206670041Y-76122444D01*
X206699742Y-76077993D01*
X206720201Y-76028601D01*
X206745402Y-75981453D01*
X206760920Y-75930295D01*
X206781381Y-75880899D01*
X206791812Y-75828457D01*
X206807329Y-75777305D01*
X206812569Y-75724108D01*
X206823000Y-75671666D01*
X206823000Y-75618201D01*
X206828240Y-75565001D01*
X206823000Y-75511800D01*
X206823000Y-75458334D01*
X206812568Y-75405891D01*
X206807329Y-75352696D01*
X206791813Y-75301547D01*
X206781381Y-75249101D01*
X206760918Y-75199700D01*
X206745402Y-75148549D01*
X206720204Y-75101408D01*
X206699742Y-75052007D01*
X206670035Y-75007548D01*
X206644838Y-74960407D01*
X206610928Y-74919088D01*
X206581221Y-74874628D01*
X206543410Y-74836817D01*
X206509501Y-74795499D01*
X206468183Y-74761590D01*
X206430372Y-74723779D01*
X206385912Y-74694072D01*
X206344593Y-74660162D01*
X206297452Y-74634965D01*
X206252993Y-74605258D01*
X206203592Y-74584796D01*
X206156451Y-74559598D01*
X206105300Y-74544082D01*
X206055899Y-74523619D01*
X206003453Y-74513187D01*
X205952304Y-74497671D01*
X205899109Y-74492432D01*
X205846666Y-74482000D01*
X205793200Y-74482000D01*
X205739999Y-74476760D01*
X205686799Y-74482000D01*
X205633334Y-74482000D01*
X205580892Y-74492431D01*
X205527695Y-74497671D01*
X205476543Y-74513188D01*
X205424101Y-74523619D01*
X205374705Y-74544080D01*
X205323547Y-74559598D01*
X205276399Y-74584799D01*
X205227007Y-74605258D01*
X205182556Y-74634959D01*
X205135405Y-74660162D01*
X205094078Y-74694078D01*
X205049628Y-74723779D01*
X205011823Y-74761584D01*
X203821824Y-75951584D01*
X203259326Y-76514082D01*
X203217999Y-76547998D01*
X203163833Y-76614000D01*
X203082662Y-76712907D01*
X203021145Y-76827998D01*
X202982098Y-76901049D01*
X202920170Y-77105195D01*
X202905150Y-77257696D01*
X202899260Y-77317500D01*
X202904500Y-77370700D01*
X202904500Y-77544828D01*
X202883992Y-77569817D01*
X202797468Y-77731691D01*
X202782817Y-77779988D01*
X202595406Y-77880162D01*
X202430498Y-78015498D01*
X202396581Y-78056826D01*
X201863642Y-78589765D01*
X201854613Y-78560000D01*
X201870117Y-78508891D01*
X201883304Y-78375000D01*
X201883304Y-77475000D01*
X201870117Y-77341109D01*
X201854613Y-77290000D01*
X201870117Y-77238891D01*
X201883304Y-77105000D01*
X201883304Y-76468000D01*
X202094625Y-76468000D01*
X202122101Y-76479381D01*
X202331334Y-76521000D01*
X202544666Y-76521000D01*
X202753899Y-76479381D01*
X202950993Y-76397742D01*
X203128372Y-76279221D01*
X203279221Y-76128372D01*
X203397742Y-75950993D01*
X203479381Y-75753899D01*
X203521000Y-75544666D01*
X203521000Y-75331334D01*
X203479381Y-75122101D01*
X203407266Y-74948000D01*
X203614085Y-74948000D01*
X203655000Y-74952030D01*
X203695915Y-74948000D01*
X203695918Y-74948000D01*
X203818296Y-74935947D01*
X203975318Y-74888315D01*
X204120029Y-74810965D01*
X204246870Y-74706870D01*
X204272960Y-74675079D01*
X205665085Y-73282955D01*
X205696870Y-73256870D01*
X205760193Y-73179710D01*
X205800965Y-73130030D01*
X205878315Y-72985318D01*
X205881671Y-72974255D01*
X205925947Y-72828296D01*
X205938000Y-72705918D01*
X205938000Y-72705916D01*
X205942030Y-72665000D01*
X205938000Y-72624085D01*
X205938000Y-72616390D01*
X206026109Y-72643118D01*
X206160000Y-72656305D01*
X206760250Y-72653000D01*
X206931000Y-72482250D01*
X206931000Y-71199000D01*
X206911000Y-71199000D01*
X206911000Y-71041000D01*
X206931000Y-71041000D01*
X206931000Y-71021000D01*
X207089000Y-71021000D01*
X207089000Y-71041000D01*
G04 #@! TA.AperFunction,Conductor*
D30*
G36*
X207089000Y-71041000D02*
G01*
X207109000Y-71041000D01*
X207109000Y-71199000D01*
X207089000Y-71199000D01*
X207089000Y-72482250D01*
X207259750Y-72653000D01*
X207860000Y-72656305D01*
X207993891Y-72643118D01*
X208122638Y-72604063D01*
X208241291Y-72540642D01*
X208345291Y-72455291D01*
X208430642Y-72351291D01*
X208467001Y-72283268D01*
X208467000Y-81467000D01*
X208087609Y-81467000D01*
X208041008Y-81379817D01*
X208020500Y-81354828D01*
X208020500Y-79935172D01*
X208041008Y-79910183D01*
X208127532Y-79748309D01*
X208180813Y-79572665D01*
X208198804Y-79390001D01*
X208198804Y-78089999D01*
X208180813Y-77907335D01*
X208127532Y-77731691D01*
X208041008Y-77569817D01*
X207924567Y-77427933D01*
X207782683Y-77311492D01*
X207620809Y-77224968D01*
X207445165Y-77171687D01*
X207262501Y-77153696D01*
X206612499Y-77153696D01*
X206429835Y-77171687D01*
X206254191Y-77224968D01*
X206092317Y-77311492D01*
X205950433Y-77427933D01*
X205833992Y-77569817D01*
X205747468Y-77731691D01*
X205694187Y-77907335D01*
X205676196Y-78089999D01*
X205676196Y-79390001D01*
X205694187Y-79572665D01*
X205747468Y-79748309D01*
X205833992Y-79910183D01*
X205854500Y-79935172D01*
X205854501Y-81354827D01*
X205833992Y-81379817D01*
X205747468Y-81541691D01*
X205694187Y-81717335D01*
X205676196Y-81899999D01*
X205676196Y-83200001D01*
X205694187Y-83382665D01*
X205747468Y-83558309D01*
X205833992Y-83720183D01*
X205950433Y-83862067D01*
X206092317Y-83978508D01*
X206254191Y-84065032D01*
X206429835Y-84118313D01*
X206612499Y-84136304D01*
X207262501Y-84136304D01*
X207445165Y-84118313D01*
X207620809Y-84065032D01*
X207782683Y-83978508D01*
X207924567Y-83862067D01*
X208041008Y-83720183D01*
X208087609Y-83633000D01*
X208467001Y-83633000D01*
X208467000Y-90116797D01*
X208467000Y-90991407D01*
X208466408Y-90992000D01*
X208365109Y-90992000D01*
X208318508Y-90904817D01*
X208202067Y-90762933D01*
X208060183Y-90646492D01*
X207898309Y-90559968D01*
X207722665Y-90506687D01*
X207540001Y-90488696D01*
X206889999Y-90488696D01*
X206707335Y-90506687D01*
X206531691Y-90559968D01*
X206369817Y-90646492D01*
X206227933Y-90762933D01*
X206111492Y-90904817D01*
X206024968Y-91066691D01*
X205971687Y-91242335D01*
X205953696Y-91424999D01*
X205953696Y-92031350D01*
X205942671Y-92067695D01*
X205927001Y-92226797D01*
X205927000Y-94587879D01*
X205740000Y-94774879D01*
X205553000Y-94587879D01*
X205553000Y-92226797D01*
X205537330Y-92067695D01*
X205526304Y-92031347D01*
X205526304Y-91424999D01*
X205508313Y-91242335D01*
X205455032Y-91066691D01*
X205368508Y-90904817D01*
X205348000Y-90879828D01*
X205348000Y-90503000D01*
X206436800Y-90503000D01*
X206490000Y-90508240D01*
X206543200Y-90503000D01*
X206543203Y-90503000D01*
X206702305Y-90487330D01*
X206906451Y-90425403D01*
X207094594Y-90324838D01*
X207259502Y-90189502D01*
X207293422Y-90148170D01*
X207665674Y-89775919D01*
X207707002Y-89742002D01*
X207842338Y-89577094D01*
X207942903Y-89388951D01*
X208004830Y-89184805D01*
X208020500Y-89025703D01*
X208020500Y-89025701D01*
X208025740Y-88972500D01*
X208020500Y-88919300D01*
X208020500Y-88825172D01*
X208041008Y-88800183D01*
X208127532Y-88638309D01*
X208180813Y-88462665D01*
X208198804Y-88280001D01*
X208198804Y-86979999D01*
X208180813Y-86797335D01*
X208127532Y-86621691D01*
X208041008Y-86459817D01*
X207924567Y-86317933D01*
X207782683Y-86201492D01*
X207620809Y-86114968D01*
X207445165Y-86061687D01*
X207262501Y-86043696D01*
X206612499Y-86043696D01*
X206429835Y-86061687D01*
X206254191Y-86114968D01*
X206092317Y-86201492D01*
X205950433Y-86317933D01*
X205833992Y-86459817D01*
X205747468Y-86621691D01*
X205694187Y-86797335D01*
X205676196Y-86979999D01*
X205676196Y-88280001D01*
X205681810Y-88337000D01*
X205247824Y-88337000D01*
X205245500Y-87879750D01*
X205074750Y-87709000D01*
X204066500Y-87709000D01*
X204066500Y-87729000D01*
X203908500Y-87729000D01*
X203908500Y-87709000D01*
X202900250Y-87709000D01*
X202729500Y-87879750D01*
X202726195Y-88530000D01*
X202739382Y-88663891D01*
X202778437Y-88792638D01*
X202841858Y-88911291D01*
X202927209Y-89015291D01*
X203031209Y-89100642D01*
X203149862Y-89164063D01*
X203278609Y-89203118D01*
X203412500Y-89216305D01*
X203462426Y-89215798D01*
X203434682Y-89249604D01*
X203360162Y-89340407D01*
X203272403Y-89504593D01*
X203259598Y-89528549D01*
X203200340Y-89723899D01*
X203197671Y-89732696D01*
X203176760Y-89945000D01*
X203182001Y-89998210D01*
X203182001Y-90879827D01*
X203161492Y-90904817D01*
X203114891Y-90992000D01*
X200943593Y-90992000D01*
X198128558Y-88176966D01*
X198243290Y-88115641D01*
X198347290Y-88030290D01*
X198432641Y-87926290D01*
X198496062Y-87807637D01*
X198535117Y-87678891D01*
X198548304Y-87545000D01*
X198548304Y-86209396D01*
X198562938Y-86257637D01*
X198626359Y-86376290D01*
X198711710Y-86480290D01*
X198815710Y-86565641D01*
X198934363Y-86629062D01*
X199063109Y-86668117D01*
X199197000Y-86681304D01*
X201197000Y-86681304D01*
X201330891Y-86668117D01*
X201453006Y-86631074D01*
X201475000Y-86633240D01*
X201528200Y-86628000D01*
X201528203Y-86628000D01*
X201687305Y-86612330D01*
X201891451Y-86550403D01*
X202079594Y-86449838D01*
X202244502Y-86314502D01*
X202278422Y-86273170D01*
X202882500Y-85669093D01*
X203144628Y-85931221D01*
X203189078Y-85960922D01*
X203230405Y-85994838D01*
X203277556Y-86020041D01*
X203322007Y-86049742D01*
X203327596Y-86052057D01*
X203278609Y-86056882D01*
X203149862Y-86095937D01*
X203031209Y-86159358D01*
X202927209Y-86244709D01*
X202841858Y-86348709D01*
X202778437Y-86467362D01*
X202739382Y-86596109D01*
X202726195Y-86730000D01*
X202729500Y-87380250D01*
X202900250Y-87551000D01*
X203908500Y-87551000D01*
X203908500Y-87531000D01*
X204066500Y-87531000D01*
X204066500Y-87551000D01*
X205074750Y-87551000D01*
X205245500Y-87380250D01*
X205248805Y-86730000D01*
X205235618Y-86596109D01*
X205196563Y-86467362D01*
X205133142Y-86348709D01*
X205047791Y-86244709D01*
X204943791Y-86159358D01*
X204825138Y-86095937D01*
X204696391Y-86056882D01*
X204562500Y-86043695D01*
X204353870Y-86045815D01*
X204392452Y-86020035D01*
X204439593Y-85994838D01*
X204480912Y-85960928D01*
X204525372Y-85931221D01*
X204563183Y-85893410D01*
X204604501Y-85859501D01*
X204638410Y-85818183D01*
X204676221Y-85780372D01*
X204705928Y-85735912D01*
X204739838Y-85694593D01*
X204765035Y-85647452D01*
X204794742Y-85602993D01*
X204815204Y-85553592D01*
X204840402Y-85506451D01*
X204855918Y-85455300D01*
X204876381Y-85405899D01*
X204886813Y-85353453D01*
X204902329Y-85302304D01*
X204907568Y-85249111D01*
X204918000Y-85196666D01*
X204918000Y-85143192D01*
X204923239Y-85089999D01*
X204918000Y-85036806D01*
X204918000Y-84983334D01*
X204907568Y-84930890D01*
X204902329Y-84877695D01*
X204886812Y-84826543D01*
X204876381Y-84774101D01*
X204855920Y-84724705D01*
X204840402Y-84673547D01*
X204815201Y-84626399D01*
X204794742Y-84577007D01*
X204765041Y-84532556D01*
X204739838Y-84485405D01*
X204705922Y-84444078D01*
X204676221Y-84399628D01*
X204403895Y-84127302D01*
X204495165Y-84118313D01*
X204670809Y-84065032D01*
X204832683Y-83978508D01*
X204974567Y-83862067D01*
X205091008Y-83720183D01*
X205177532Y-83558309D01*
X205230813Y-83382665D01*
X205248804Y-83200001D01*
X205248804Y-81899999D01*
X205230813Y-81717335D01*
X205177532Y-81541691D01*
X205091008Y-81379817D01*
X204974567Y-81237933D01*
X204832683Y-81121492D01*
X204670809Y-81034968D01*
X204495165Y-80981687D01*
X204312501Y-80963696D01*
X203662499Y-80963696D01*
X203479835Y-80981687D01*
X203304191Y-81034968D01*
X203142317Y-81121492D01*
X203000433Y-81237933D01*
X202883992Y-81379817D01*
X202798308Y-81540120D01*
X202783549Y-81544597D01*
X202595406Y-81645162D01*
X202430498Y-81780498D01*
X202396577Y-81821831D01*
X202154326Y-82064082D01*
X202112999Y-82097998D01*
X202079084Y-82139324D01*
X201977662Y-82262907D01*
X201893101Y-82421109D01*
X201877098Y-82451049D01*
X201874054Y-82461083D01*
X201870117Y-82421109D01*
X201854613Y-82370000D01*
X201870117Y-82318891D01*
X201883304Y-82185000D01*
X201883304Y-81486525D01*
X201936451Y-81470403D01*
X202124594Y-81369838D01*
X202289502Y-81234502D01*
X202323423Y-81193169D01*
X203276410Y-80240183D01*
X203304191Y-80255032D01*
X203479835Y-80308313D01*
X203662499Y-80326304D01*
X204312501Y-80326304D01*
X204495165Y-80308313D01*
X204670809Y-80255032D01*
X204832683Y-80168508D01*
X204974567Y-80052067D01*
X205091008Y-79910183D01*
X205177532Y-79748309D01*
X205230813Y-79572665D01*
X205248804Y-79390001D01*
X205248804Y-78089999D01*
X205230813Y-77907335D01*
X205177532Y-77731691D01*
X205152233Y-77684359D01*
X205353416Y-77483176D01*
X206543416Y-76293177D01*
X206581221Y-76255372D01*
X206610922Y-76210922D01*
X206644838Y-76169595D01*
X206670041Y-76122444D01*
X206699742Y-76077993D01*
X206720201Y-76028601D01*
X206745402Y-75981453D01*
X206760920Y-75930295D01*
X206781381Y-75880899D01*
X206791812Y-75828457D01*
X206807329Y-75777305D01*
X206812569Y-75724108D01*
X206823000Y-75671666D01*
X206823000Y-75618201D01*
X206828240Y-75565001D01*
X206823000Y-75511800D01*
X206823000Y-75458334D01*
X206812568Y-75405891D01*
X206807329Y-75352696D01*
X206791813Y-75301547D01*
X206781381Y-75249101D01*
X206760918Y-75199700D01*
X206745402Y-75148549D01*
X206720204Y-75101408D01*
X206699742Y-75052007D01*
X206670035Y-75007548D01*
X206644838Y-74960407D01*
X206610928Y-74919088D01*
X206581221Y-74874628D01*
X206543410Y-74836817D01*
X206509501Y-74795499D01*
X206468183Y-74761590D01*
X206430372Y-74723779D01*
X206385912Y-74694072D01*
X206344593Y-74660162D01*
X206297452Y-74634965D01*
X206252993Y-74605258D01*
X206203592Y-74584796D01*
X206156451Y-74559598D01*
X206105300Y-74544082D01*
X206055899Y-74523619D01*
X206003453Y-74513187D01*
X205952304Y-74497671D01*
X205899109Y-74492432D01*
X205846666Y-74482000D01*
X205793200Y-74482000D01*
X205739999Y-74476760D01*
X205686799Y-74482000D01*
X205633334Y-74482000D01*
X205580892Y-74492431D01*
X205527695Y-74497671D01*
X205476543Y-74513188D01*
X205424101Y-74523619D01*
X205374705Y-74544080D01*
X205323547Y-74559598D01*
X205276399Y-74584799D01*
X205227007Y-74605258D01*
X205182556Y-74634959D01*
X205135405Y-74660162D01*
X205094078Y-74694078D01*
X205049628Y-74723779D01*
X205011823Y-74761584D01*
X203821824Y-75951584D01*
X203259326Y-76514082D01*
X203217999Y-76547998D01*
X203163833Y-76614000D01*
X203082662Y-76712907D01*
X203021145Y-76827998D01*
X202982098Y-76901049D01*
X202920170Y-77105195D01*
X202905150Y-77257696D01*
X202899260Y-77317500D01*
X202904500Y-77370700D01*
X202904500Y-77544828D01*
X202883992Y-77569817D01*
X202797468Y-77731691D01*
X202782817Y-77779988D01*
X202595406Y-77880162D01*
X202430498Y-78015498D01*
X202396581Y-78056826D01*
X201863642Y-78589765D01*
X201854613Y-78560000D01*
X201870117Y-78508891D01*
X201883304Y-78375000D01*
X201883304Y-77475000D01*
X201870117Y-77341109D01*
X201854613Y-77290000D01*
X201870117Y-77238891D01*
X201883304Y-77105000D01*
X201883304Y-76468000D01*
X202094625Y-76468000D01*
X202122101Y-76479381D01*
X202331334Y-76521000D01*
X202544666Y-76521000D01*
X202753899Y-76479381D01*
X202950993Y-76397742D01*
X203128372Y-76279221D01*
X203279221Y-76128372D01*
X203397742Y-75950993D01*
X203479381Y-75753899D01*
X203521000Y-75544666D01*
X203521000Y-75331334D01*
X203479381Y-75122101D01*
X203407266Y-74948000D01*
X203614085Y-74948000D01*
X203655000Y-74952030D01*
X203695915Y-74948000D01*
X203695918Y-74948000D01*
X203818296Y-74935947D01*
X203975318Y-74888315D01*
X204120029Y-74810965D01*
X204246870Y-74706870D01*
X204272960Y-74675079D01*
X205665085Y-73282955D01*
X205696870Y-73256870D01*
X205760193Y-73179710D01*
X205800965Y-73130030D01*
X205878315Y-72985318D01*
X205881671Y-72974255D01*
X205925947Y-72828296D01*
X205938000Y-72705918D01*
X205938000Y-72705916D01*
X205942030Y-72665000D01*
X205938000Y-72624085D01*
X205938000Y-72616390D01*
X206026109Y-72643118D01*
X206160000Y-72656305D01*
X206760250Y-72653000D01*
X206931000Y-72482250D01*
X206931000Y-71199000D01*
X206911000Y-71199000D01*
X206911000Y-71041000D01*
X206931000Y-71041000D01*
X206931000Y-71021000D01*
X207089000Y-71021000D01*
X207089000Y-71041000D01*
G37*
G04 #@! TD.AperFunction*
M02*
